STARTFONT 2.1
COMMENT
COMMENT Converted from OpenType font "IBMPlexSans-Medium.ttf" by "otf2bdf 3.0".
COMMENT
FONT -FreeType-IBM Plex Sans Medm-Medium-R-Normal--48-480-72-72-P-243-ISO10646-1
SIZE 48 72 72
FONTBOUNDINGBOX 72 67 -11 -13
STARTPROPERTIES 19
FOUNDRY "FreeType"
FAMILY_NAME "IBM Plex Sans Medm"
WEIGHT_NAME "Medium"
SLANT "R"
SETWIDTH_NAME "Normal"
ADD_STYLE_NAME ""
PIXEL_SIZE 48
POINT_SIZE 480
RESOLUTION_X 72
RESOLUTION_Y 72
SPACING "P"
AVERAGE_WIDTH 243
CHARSET_REGISTRY "ISO10646"
CHARSET_ENCODING "1"
FONT_ASCENT 49
FONT_DESCENT 13
COPYRIGHT "Copyright 2018 IBM Corp. All rights reserved."
_OTF_FONTFILE "IBMPlexSans-Medium.ttf"
_OTF_PSNAME "IBMPlexSans-Medm"
ENDPROPERTIES
CHARS 844
STARTCHAR 0000
ENCODING 0
SWIDTH 0 0
DWIDTH 0 0
BBX 0 0 0 0
BITMAP
ENDCHAR
STARTCHAR 000D
ENCODING 13
SWIDTH 229 0
DWIDTH 11 0
BBX 0 0 0 0
BITMAP
ENDCHAR
STARTCHAR 0020
ENCODING 32
SWIDTH 229 0
DWIDTH 11 0
BBX 0 0 0 0
BITMAP
ENDCHAR
STARTCHAR 0021
ENCODING 33
SWIDTH 291 0
DWIDTH 14 0
BBX 7 35 4 -1
BITMAP
FC
FC
FC
FC
FC
FC
FC
FC
FC
FC
FC
FC
7C
7C
78
78
78
78
78
78
78
38
38
38
30
00
00
00
78
FC
FE
FE
FE
FC
78
ENDCHAR
STARTCHAR 0022
ENCODING 34
SWIDTH 458 0
DWIDTH 22 0
BBX 14 14 4 22
BITMAP
F07C
F07C
F07C
F07C
F07C
F07C
F07C
F07C
F07C
F07C
F07C
F07C
F07C
F07C
ENDCHAR
STARTCHAR 0023
ENCODING 35
SWIDTH 687 0
DWIDTH 33 0
BBX 29 34 2 0
BITMAP
00380780
00780700
00780F00
00780F00
00780F00
00700F00
00700F00
00F00E00
00F01E00
3FFFFFF8
3FFFFFF8
3FFFFFF8
01E01C00
01E01C00
01E03C00
01E03C00
01E03C00
01C03C00
01C03C00
03C03800
03C03800
03C07800
FFFFFFE0
FFFFFFE0
FFFFFFE0
07807000
0780F000
0780F000
0780F000
0700F000
0700E000
0F00E000
0F01E000
0F01E000
ENDCHAR
STARTCHAR 0024
ENCODING 36
SWIDTH 604 0
DWIDTH 29 0
BBX 24 41 2 -4
BITMAP
001E00
001E00
001E00
001E00
00FFC0
07FFF0
0FFFFC
1FFFFE
3F9CFF
3E1C3E
7E1C1C
7C1C08
7C1C00
7C1C00
7C1C00
7E1C00
3F1C00
3FFC00
1FFF00
0FFFE0
03FFF8
007FFC
001FFE
001C7F
001C3F
001C1F
001C1F
001C1F
001C1F
101C1F
381C3F
FE1C3E
7F9CFE
3FFFFC
1FFFF8
07FFE0
01FF80
001E00
001E00
001E00
001E00
ENDCHAR
STARTCHAR 0025
ENCODING 37
SWIDTH 937 0
DWIDTH 45 0
BBX 40 35 3 -1
BITMAP
07E00007C0
1FF8000F80
3FFC001F00
7C3E001E00
781E003E00
F81E007C00
F81F00F800
F01F00F800
F01F01F000
F01F03E000
F01F03E000
F01F07C000
F81F0F8000
F81E0F8000
781E1F0000
7C3E3E07E0
3FFC3E1FF8
1FF87C3FFC
07E0F87C7C
0000F0F83E
0001F0F81E
0003E0F01E
0003C0F01E
0007C0F01F
000F80F01F
001F00F01F
001F00F01F
003E00F01E
007C00F01E
007C00F81E
00F800F83E
01F0007C7C
01F0003FFC
03E0001FF0
0000000FE0
ENDCHAR
STARTCHAR 0026
ENCODING 38
SWIDTH 708 0
DWIDTH 34 0
BBX 30 35 3 -1
BITMAP
007F0000
01FFC000
07FFE000
07FFF000
0FC3F000
1F81F800
1F00F800
1F00F800
1F00F800
1F00F800
1F81F800
0F81F000
0FC7E000
07EFC000
07FF8000
03FF0000
03FC0000
07FC03F8
1FFE03F8
3FBF03F8
3E1F87F8
7C0FC7C0
7C07E780
FC03F780
F803FF80
F801FF00
F800FF00
FC007F00
FC007F80
7E00FFC0
7F83FFE0
3FFFF7F0
1FFFE3F8
0FFF81FC
01FE0000
ENDCHAR
STARTCHAR 0027
ENCODING 39
SWIDTH 250 0
DWIDTH 12 0
BBX 4 14 4 22
BITMAP
F0
F0
F0
F0
F0
F0
F0
F0
F0
F0
F0
F0
F0
F0
ENDCHAR
STARTCHAR 0028
ENCODING 40
SWIDTH 333 0
DWIDTH 16 0
BBX 14 43 3 -7
BITMAP
00FC
01F0
03E0
07C0
07C0
0F80
0F00
1F00
1E00
3E00
3E00
7C00
7C00
7C00
7800
7800
F800
F800
F800
F800
F800
F800
F800
F800
F800
F800
F800
7800
7C00
7C00
7C00
7C00
3E00
3E00
1E00
1F00
0F00
0F80
07C0
07C0
03E0
01F0
00FC
ENDCHAR
STARTCHAR 0029
ENCODING 41
SWIDTH 333 0
DWIDTH 16 0
BBX 13 43 0 -7
BITMAP
F800
7C00
3E00
1F00
1F00
0F80
07C0
07C0
03E0
03E0
03E0
01F0
01F0
01F0
00F0
00F8
00F8
00F8
00F8
00F8
00F8
00F8
00F8
00F8
00F8
00F8
00F8
00F8
00F0
01F0
01F0
01F0
03E0
03E0
03E0
07C0
07C0
0F80
1F00
1F00
3E00
7C00
F800
ENDCHAR
STARTCHAR 002A
ENCODING 42
SWIDTH 520 0
DWIDTH 25 0
BBX 21 20 2 16
BITMAP
00F800
00F800
00F800
00F000
00F000
40F030
78F0F0
FEF7F0
FFFFF8
7FFFF0
0FFF80
01F800
03FC00
03FE00
07DF00
0F8F80
1F0F80
3F07C0
1E0380
040300
ENDCHAR
STARTCHAR 002B
ENCODING 43
SWIDTH 604 0
DWIDTH 29 0
BBX 23 24 3 3
BITMAP
007C00
007C00
007C00
007C00
007C00
007C00
007C00
007C00
007C00
007C00
FFFFFE
FFFFFE
FFFFFE
FFFFFE
007C00
007C00
007C00
007C00
007C00
007C00
007C00
007C00
007C00
007C00
ENDCHAR
STARTCHAR 002C
ENCODING 44
SWIDTH 291 0
DWIDTH 14 0
BBX 8 13 2 -6
BITMAP
1E
3F
7F
7F
7F
3F
1F
0F
1E
1E
3C
78
F0
ENDCHAR
STARTCHAR 002D
ENCODING 45
SWIDTH 395 0
DWIDTH 19 0
BBX 13 5 3 12
BITMAP
FFF8
FFF8
FFF8
FFF8
FFF8
ENDCHAR
STARTCHAR 002E
ENCODING 46
SWIDTH 291 0
DWIDTH 14 0
BBX 7 7 3 -1
BITMAP
3C
7E
FE
FE
FE
7E
3C
ENDCHAR
STARTCHAR 002F
ENCODING 47
SWIDTH 416 0
DWIDTH 20 0
BBX 18 43 0 -7
BITMAP
0007C0
0007C0
000780
000780
000F80
000F00
000F00
001F00
001F00
001E00
003E00
003E00
003C00
007C00
007C00
007800
007800
00F800
00F000
00F000
01F000
01F000
01E000
03E000
03E000
03C000
07C000
07C000
078000
0F8000
0F8000
0F0000
0F0000
1F0000
1E0000
1E0000
3E0000
3E0000
3C0000
7C0000
7C0000
780000
F80000
ENDCHAR
STARTCHAR 0030
ENCODING 48
SWIDTH 604 0
DWIDTH 29 0
BBX 25 35 2 -1
BITMAP
007F0000
03FFC000
07FFF000
0FFFF800
1FC1FC00
1F80FC00
3F007E00
3E003E00
7E003E00
7C003F00
7C003F00
7C001F00
7C001F00
FC001F00
FC001F00
FC001F80
FC001F80
FC001F80
FC001F80
FC001F80
FC001F00
FC001F00
7C001F00
7C001F00
7C003F00
7C003F00
7E003E00
3E003E00
3F007E00
1F00FC00
1FC1FC00
0FFFF800
07FFF000
03FFE000
007F0000
ENDCHAR
STARTCHAR 0031
ENCODING 49
SWIDTH 604 0
DWIDTH 29 0
BBX 25 34 2 0
BITMAP
00FF8000
01FF8000
03FF8000
07FF8000
0FEF8000
1FCF8000
1F8F8000
3F0F8000
7E0F8000
FC0F8000
7C0F8000
380F8000
100F8000
000F8000
000F8000
000F8000
000F8000
000F8000
000F8000
000F8000
000F8000
000F8000
000F8000
000F8000
000F8000
000F8000
000F8000
000F8000
000F8000
000F8000
3FFFFF80
3FFFFF80
3FFFFF80
3FFFFF80
ENDCHAR
STARTCHAR 0032
ENCODING 50
SWIDTH 604 0
DWIDTH 29 0
BBX 23 34 3 0
BITMAP
01FE00
07FF80
1FFFE0
3FFFF0
7F07F8
7E01F8
FC01F8
F800FC
3800FC
0000FC
0000FC
0000FC
0000FC
0000F8
0001F8
0003F0
0003F0
0007E0
000FC0
001F80
003F00
007E00
00FC00
01F800
03F000
07E000
1FC000
3F8000
7F0000
FE0000
FFFFFE
FFFFFE
FFFFFE
FFFFFE
ENDCHAR
STARTCHAR 0033
ENCODING 51
SWIDTH 604 0
DWIDTH 29 0
BBX 23 35 2 -1
BITMAP
01FF00
07FFC0
1FFFF0
3FFFF8
7F03F8
7E01FC
1C00FC
0800FC
00007C
00007C
00007C
0000FC
0000FC
0001F8
0003F0
01FFE0
01FF80
01FFC0
01FFF0
0003F8
0000FC
00007C
00007E
00007E
00007E
00007E
10007E
30007E
7800FC
FC00FC
FF03F8
7FFFF8
3FFFE0
0FFFC0
01FE00
ENDCHAR
STARTCHAR 0034
ENCODING 52
SWIDTH 604 0
DWIDTH 29 0
BBX 25 34 2 0
BITMAP
0007F000
000FF000
000FF000
001FF000
001FF000
003FF000
007DF000
0079F000
00F9F000
00F1F000
01F1F000
03E1F000
03C1F000
07C1F000
0781F000
0F81F000
1F01F000
1F01F000
3E01F000
3C01F000
7C01F000
F801F000
F801F000
FFFFFF80
FFFFFF80
FFFFFF80
FFFFFF80
0001F000
0001F000
0001F000
0001F000
0001F000
0001F000
0001F000
ENDCHAR
STARTCHAR 0035
ENCODING 53
SWIDTH 604 0
DWIDTH 29 0
BBX 23 35 3 -1
BITMAP
3FFFF8
3FFFF8
3FFFF8
3FFFF8
3C0000
3C0000
3C0000
3C0000
3C0000
3C0000
3C0000
3C0000
3C3F00
7CFFC0
7DFFF0
7FFFF8
7F83F8
7E01FC
7C00FC
00007E
00007E
00007E
00007E
00007E
00007E
00007E
10007E
38007C
7C00FC
FE01FC
7F83F8
3FFFF0
1FFFE0
07FFC0
01FE00
ENDCHAR
STARTCHAR 0036
ENCODING 54
SWIDTH 604 0
DWIDTH 29 0
BBX 23 35 3 -1
BITMAP
001FE0
003F80
007F00
00FC00
01F800
03F000
07E000
0FC000
0FC000
1F8000
3F0000
3F0000
3E0000
7E3F80
7CFFE0
FDFFF0
FFFFF8
FB83FC
FE00FC
FC007E
FC007E
FC007E
F8003E
F8003E
F8003E
F8003E
FC007E
7C007E
7C007C
3E00FC
3F83F8
1FFFF0
0FFFE0
07FFC0
00FE00
ENDCHAR
STARTCHAR 0037
ENCODING 55
SWIDTH 604 0
DWIDTH 29 0
BBX 23 34 3 0
BITMAP
FFFFFE
FFFFFE
FFFFFE
FFFFFE
F8007E
F8007C
F800FC
F800F8
F800F8
F801F8
F801F0
0003F0
0003E0
0007E0
0007E0
0007C0
000FC0
000F80
001F80
001F80
001F00
003F00
003E00
007E00
007E00
007C00
00FC00
00FC00
01F800
01F800
01F000
03F000
03F000
07E000
ENDCHAR
STARTCHAR 0038
ENCODING 56
SWIDTH 604 0
DWIDTH 29 0
BBX 24 35 2 -1
BITMAP
00FF00
03FFE0
0FFFF8
1FFFFC
3F81FC
3F007E
3E003E
7E003E
7E003E
7E003E
3E003E
3E003E
3E003E
1F007C
0FC1F8
07FFF0
01FFC0
03FFE0
0FFFF8
1F81FC
3F007E
7E003F
7C003F
7C001F
FC001F
FC001F
FC001F
7C003F
7E003F
7F007E
3F81FE
1FFFFC
0FFFF8
07FFE0
00FF80
ENDCHAR
STARTCHAR 0039
ENCODING 57
SWIDTH 604 0
DWIDTH 29 0
BBX 23 34 3 0
BITMAP
00FE00
07FF80
0FFFE0
3FFFF0
3F83F8
7E00F8
7C00FC
FC007C
F8007E
F8007E
F8007E
F8007E
F8007E
F8007E
FC007E
FC00FE
7E00FE
7F83FE
3FFF7C
1FFF7C
0FFE7C
03F8F8
0000F8
0001F0
0003F0
0003E0
0007E0
000FC0
001F80
003F00
007E00
01FC00
03F800
0FF000
ENDCHAR
STARTCHAR 003A
ENCODING 58
SWIDTH 312 0
DWIDTH 15 0
BBX 7 26 4 -1
BITMAP
7C
FE
FE
FE
FE
FE
7C
00
00
00
00
00
00
00
00
00
00
00
00
7C
FE
FE
FE
FE
FE
7C
ENDCHAR
STARTCHAR 003B
ENCODING 59
SWIDTH 312 0
DWIDTH 15 0
BBX 9 31 2 -6
BITMAP
1F00
3F80
3F80
3F80
3F80
3F80
1F00
0000
0000
0000
0000
0000
0000
0000
0000
0000
0000
0000
1F00
3F80
3F80
3F80
3F80
3F80
1F80
0F00
0F00
1E00
1E00
3C00
F800
ENDCHAR
STARTCHAR 003C
ENCODING 60
SWIDTH 604 0
DWIDTH 29 0
BBX 19 28 5 0
BITMAP
000020
000060
0001E0
0007E0
000FE0
003FE0
007F80
01FF00
07FC00
0FF000
3FC000
FF8000
FE0000
F80000
F80000
FE0000
FF8000
3FE000
0FF000
07FC00
01FF00
007F80
003FE0
000FE0
0007E0
0001E0
000060
000020
ENDCHAR
STARTCHAR 003D
ENCODING 61
SWIDTH 604 0
DWIDTH 29 0
BBX 23 14 3 8
BITMAP
FFFFFE
FFFFFE
FFFFFE
FFFFFE
000000
000000
000000
000000
000000
000000
FFFFFE
FFFFFE
FFFFFE
FFFFFE
ENDCHAR
STARTCHAR 003E
ENCODING 62
SWIDTH 604 0
DWIDTH 29 0
BBX 19 28 5 0
BITMAP
800000
C00000
F00000
F80000
FE0000
FF8000
3FC000
1FF000
07F800
01FE00
00FF80
003FC0
000FE0
0007E0
0007E0
000FE0
003FC0
00FF80
01FE00
07F800
1FF000
3FC000
FF8000
FE0000
F80000
F00000
C00000
800000
ENDCHAR
STARTCHAR 003F
ENCODING 63
SWIDTH 479 0
DWIDTH 23 0
BBX 21 35 1 -1
BITMAP
01FC00
0FFF00
1FFFC0
3FFFE0
7F07E0
7C03F0
FC01F0
7801F8
1801F8
0001F8
0001F8
0001F8
0001F0
0003F0
0003F0
000FE0
007FC0
01FF80
01FF00
01FC00
01F000
01F000
01F000
01F000
000000
000000
000000
000000
01F000
01F800
03F800
03F800
03F800
01F800
01F000
ENDCHAR
STARTCHAR 0040
ENCODING 64
SWIDTH 895 0
DWIDTH 43 0
BBX 37 40 3 -6
BITMAP
0003FF0000
001FFFE000
007FFFF800
00FE01FC00
03F0003F00
07C0001F80
0F80000780
0F000003C0
1E000001E0
3C03F1E1E0
3C07F9E0F0
380FFDE0F0
781F0FE070
783E03E078
703C03E078
F03C01E078
F07C01E078
F07C01E078
F07C01E078
F07C01E078
F07C01E078
F07C01E078
F07C01E078
F07C01E078
F03C03E070
703C03E0F0
703E03E0E0
781F0FF1E0
780FFDFFC0
3C07F8FF80
3C03F03E00
1E00000000
1F00000000
0F80000000
07C0000000
03F0000000
01FE000000
007FFFF800
001FFFF800
0003FFF800
ENDCHAR
STARTCHAR 0041
ENCODING 65
SWIDTH 666 0
DWIDTH 32 0
BBX 30 34 1 0
BITMAP
001FC000
001FE000
001FE000
003FE000
003FF000
003DF000
007DF000
007CF800
007CF800
00F8F800
00F87C00
00F87C00
01F07E00
01F07E00
01F03E00
03E03F00
03E03F00
03E01F00
07E01F80
07C01F80
07C00F80
0FFFFFC0
0FFFFFC0
0FFFFFC0
1FFFFFE0
1F0007E0
1F0003E0
3F0003F0
3E0003F0
3E0001F0
7E0001F8
7C0001F8
7C0000F8
FC0000FC
ENDCHAR
STARTCHAR 0042
ENCODING 66
SWIDTH 666 0
DWIDTH 32 0
BBX 25 34 4 0
BITMAP
FFFFC000
FFFFF000
FFFFFC00
FFFFFC00
FC00FE00
FC007E00
FC003F00
FC003F00
FC003F00
FC003F00
FC003F00
FC003F00
FC003E00
FC007E00
FC00FC00
FFFFF800
FFFFC000
FFFFF800
FFFFFE00
FC007E00
FC003F00
FC001F80
FC001F80
FC001F80
FC001F80
FC001F80
FC001F80
FC001F80
FC003F00
FC007F00
FFFFFE00
FFFFFC00
FFFFF800
FFFFE000
ENDCHAR
STARTCHAR 0043
ENCODING 67
SWIDTH 625 0
DWIDTH 30 0
BBX 26 35 3 -1
BITMAP
003FC000
01FFF800
07FFFC00
0FFFFE00
1FE07F00
1F803F80
3F000FC0
3E000F00
7E000400
7C000000
FC000000
FC000000
FC000000
F8000000
F8000000
F8000000
F8000000
F8000000
F8000000
F8000000
F8000000
F8000000
FC000000
FC000000
FC000000
7C000400
7E000600
7E000F80
3F000FC0
1F801F80
1FE07F00
0FFFFE00
07FFFC00
01FFF800
007FC000
ENDCHAR
STARTCHAR 0044
ENCODING 68
SWIDTH 687 0
DWIDTH 33 0
BBX 26 34 4 0
BITMAP
FFFF0000
FFFFE000
FFFFF000
FFFFFC00
FC01FC00
FC007E00
FC003F00
FC001F00
FC001F80
FC000F80
FC000F80
FC000FC0
FC000FC0
FC000FC0
FC000FC0
FC000FC0
FC000FC0
FC000FC0
FC000FC0
FC000FC0
FC000FC0
FC000FC0
FC000FC0
FC000F80
FC000F80
FC001F80
FC001F00
FC003F00
FC007E00
FC01FC00
FFFFFC00
FFFFF000
FFFFE000
FFFF0000
ENDCHAR
STARTCHAR 0045
ENCODING 69
SWIDTH 583 0
DWIDTH 28 0
BBX 22 34 4 0
BITMAP
FFFFFC
FFFFFC
FFFFFC
FFFFFC
FC0000
FC0000
FC0000
FC0000
FC0000
FC0000
FC0000
FC0000
FC0000
FC0000
FC0000
FFFFF0
FFFFF0
FFFFF0
FFFFF0
FC0000
FC0000
FC0000
FC0000
FC0000
FC0000
FC0000
FC0000
FC0000
FC0000
FC0000
FFFFFC
FFFFFC
FFFFFC
FFFFFC
ENDCHAR
STARTCHAR 0046
ENCODING 70
SWIDTH 562 0
DWIDTH 27 0
BBX 21 34 4 0
BITMAP
FFFFF8
FFFFF8
FFFFF8
FFFFF8
FC0000
FC0000
FC0000
FC0000
FC0000
FC0000
FC0000
FC0000
FC0000
FC0000
FC0000
FFFFE0
FFFFE0
FFFFE0
FFFFE0
FC0000
FC0000
FC0000
FC0000
FC0000
FC0000
FC0000
FC0000
FC0000
FC0000
FC0000
FC0000
FC0000
FC0000
FC0000
ENDCHAR
STARTCHAR 0047
ENCODING 71
SWIDTH 708 0
DWIDTH 34 0
BBX 27 35 3 -1
BITMAP
003FC000
00FFF800
03FFFE00
07FFFF00
0FE07F80
1F801FC0
3F000FC0
3E0007E0
7E000380
7C000200
7C000000
FC000000
FC000000
F8000000
F8000000
F8000000
F8000000
F801FFE0
F801FFE0
F801FFE0
F801FFE0
F80003E0
FC0003E0
FC0003E0
FC0003E0
7C0003E0
7E0003E0
3E0007E0
3F0007E0
1F801FE0
0FE07DE0
0FFFFDE0
03FFF9E0
01FFF1E0
003F8000
ENDCHAR
STARTCHAR 0048
ENCODING 72
SWIDTH 708 0
DWIDTH 34 0
BBX 26 34 4 0
BITMAP
FC0007C0
FC0007C0
FC0007C0
FC0007C0
FC0007C0
FC0007C0
FC0007C0
FC0007C0
FC0007C0
FC0007C0
FC0007C0
FC0007C0
FC0007C0
FC0007C0
FC0007C0
FFFFFFC0
FFFFFFC0
FFFFFFC0
FFFFFFC0
FC0007C0
FC0007C0
FC0007C0
FC0007C0
FC0007C0
FC0007C0
FC0007C0
FC0007C0
FC0007C0
FC0007C0
FC0007C0
FC0007C0
FC0007C0
FC0007C0
FC0007C0
ENDCHAR
STARTCHAR 0049
ENCODING 73
SWIDTH 416 0
DWIDTH 20 0
BBX 14 34 3 0
BITMAP
FFFC
FFFC
FFFC
FFFC
0FC0
0FC0
0FC0
0FC0
0FC0
0FC0
0FC0
0FC0
0FC0
0FC0
0FC0
0FC0
0FC0
0FC0
0FC0
0FC0
0FC0
0FC0
0FC0
0FC0
0FC0
0FC0
0FC0
0FC0
0FC0
0FC0
FFFC
FFFC
FFFC
FFFC
ENDCHAR
STARTCHAR 004A
ENCODING 74
SWIDTH 520 0
DWIDTH 25 0
BBX 21 35 1 -1
BITMAP
0FFFF8
0FFFF8
0FFFF8
0FFFF8
0001F8
0001F8
0001F8
0001F8
0001F8
0001F8
0001F8
0001F8
0001F8
0001F8
0001F8
0001F8
0001F8
0001F8
0001F8
0001F8
0001F8
0001F8
0001F8
0001F8
0001F8
0001F8
0801F0
FC01F0
7C03F0
7E03F0
7F07E0
3FFFC0
1FFFC0
0FFF00
03FC00
ENDCHAR
STARTCHAR 004B
ENCODING 75
SWIDTH 666 0
DWIDTH 32 0
BBX 27 34 4 0
BITMAP
FC001FC0
FC003F80
FC003F00
FC007E00
FC00FC00
FC01F800
FC03F000
FC07F000
FC07E000
FC0FC000
FC1F8000
FC3F0000
FC7E0000
FC7E0000
FCFC0000
FDFE0000
FFFE0000
FFFF0000
FFFF8000
FF9F8000
FF0FC000
FE0FE000
FC07E000
FC03F000
FC03F800
FC01F800
FC00FC00
FC00FE00
FC007E00
FC007F00
FC003F80
FC001F80
FC001FC0
FC000FE0
ENDCHAR
STARTCHAR 004C
ENCODING 76
SWIDTH 520 0
DWIDTH 25 0
BBX 19 34 4 0
BITMAP
FC0000
FC0000
FC0000
FC0000
FC0000
FC0000
FC0000
FC0000
FC0000
FC0000
FC0000
FC0000
FC0000
FC0000
FC0000
FC0000
FC0000
FC0000
FC0000
FC0000
FC0000
FC0000
FC0000
FC0000
FC0000
FC0000
FC0000
FC0000
FC0000
FC0000
FFFFE0
FFFFE0
FFFFE0
FFFFE0
ENDCHAR
STARTCHAR 004D
ENCODING 77
SWIDTH 812 0
DWIDTH 39 0
BBX 31 34 4 0
BITMAP
FE00007E
FE0000FE
FF0001FE
FF0001FE
FF8003FE
FF8003FE
FFC007FE
FFC007FE
FBE00FBE
FBE00FBE
F9F01F3E
F9F81F3E
F8F83E3E
F8FC3E3E
F87C7C3E
F87E7C3E
F83EF83E
F83FF83E
F81FF03E
F81FF03E
F80FE03E
F807E03E
F807C03E
F803803E
F803803E
F801003E
F801003E
F800003E
F800003E
F800003E
F800003E
F800003E
F800003E
F800003E
ENDCHAR
STARTCHAR 004E
ENCODING 78
SWIDTH 708 0
DWIDTH 34 0
BBX 26 34 4 0
BITMAP
FC0007C0
FE0007C0
FF0007C0
FF0007C0
FF8007C0
FF8007C0
FFC007C0
FFE007C0
FBE007C0
FBF007C0
F9F007C0
F9F807C0
F8F807C0
F8FC07C0
F87E07C0
F87E07C0
F83F07C0
F81F07C0
F81F87C0
F80F87C0
F80FC7C0
F807C7C0
F807E7C0
F803E7C0
F801F7C0
F801FFC0
F800FFC0
F800FFC0
F8007FC0
F8007FC0
F8003FC0
F8001FC0
F8001FC0
F8000FC0
ENDCHAR
STARTCHAR 004F
ENCODING 79
SWIDTH 708 0
DWIDTH 34 0
BBX 29 35 3 -1
BITMAP
003FC000
01FFF800
03FFFC00
07FFFF00
0FE07F80
1F801F80
3F000FC0
3E0007E0
7E0007E0
7C0003E0
FC0003F0
FC0003F0
FC0001F0
F80001F0
F80001F0
F80001F0
F80001F8
F80001F8
F80001F8
F80001F0
F80001F0
F80001F0
FC0001F0
FC0003F0
FC0003F0
7C0003E0
7E0007E0
3E0007E0
3F000FC0
1F801F80
0FE07F80
07FFFF00
03FFFC00
01FFF800
003FC000
ENDCHAR
STARTCHAR 0050
ENCODING 80
SWIDTH 625 0
DWIDTH 30 0
BBX 24 34 4 0
BITMAP
FFFFC0
FFFFF0
FFFFFC
FFFFFC
FC00FE
FC003E
FC003F
FC003F
FC001F
FC001F
FC001F
FC001F
FC003F
FC003F
FC003E
FC00FE
FFFFFC
FFFFFC
FFFFF0
FFFFC0
FC0000
FC0000
FC0000
FC0000
FC0000
FC0000
FC0000
FC0000
FC0000
FC0000
FC0000
FC0000
FC0000
FC0000
ENDCHAR
STARTCHAR 0051
ENCODING 81
SWIDTH 708 0
DWIDTH 34 0
BBX 29 41 3 -7
BITMAP
003FC000
01FFF800
03FFFE00
0FFFFF00
1FE07F80
1F801F80
3F000FC0
3E0007E0
7E0007E0
7C0003E0
FC0003F0
FC0003F0
FC0001F0
F80001F0
F80001F0
F80001F0
F80001F8
F80001F8
F80001F0
F80001F0
F80001F0
FC0001F0
FC0003F0
FC0003F0
7C0003F0
7E0007E0
7E0007E0
3F000FC0
1F801FC0
1FE07F80
0FFFFF00
07FFFE00
01FFF800
007FE000
000F8000
000F8000
000F8000
000FFC00
000FFC00
0007FC00
0003FC00
ENDCHAR
STARTCHAR 0052
ENCODING 82
SWIDTH 645 0
DWIDTH 31 0
BBX 25 34 4 0
BITMAP
FFFFC000
FFFFF000
FFFFFC00
FFFFFC00
FC00FE00
FC003F00
FC003F00
FC003F00
FC001F00
FC001F00
FC001F00
FC003F00
FC003F00
FC003F00
FC007E00
FFFFFC00
FFFFFC00
FFFFF000
FFFFC000
FC0FC000
FC07E000
FC07E000
FC03F000
FC03F000
FC01F800
FC01F800
FC00F800
FC00FC00
FC00FC00
FC007E00
FC007E00
FC003F00
FC003F00
FC001F80
ENDCHAR
STARTCHAR 0053
ENCODING 83
SWIDTH 604 0
DWIDTH 29 0
BBX 24 35 2 -1
BITMAP
00FF80
03FFF0
0FFFF8
1FFFFE
3F80FF
3F007E
7E001C
7C0008
7C0000
7C0000
7C0000
7E0000
7E0000
3F8000
3FE000
1FFF00
0FFFE0
03FFF8
007FFC
0003FE
0000FE
00003F
00003F
00001F
00001F
00001F
10001F
38003F
7C003F
FE007E
7F81FE
3FFFFC
1FFFF8
07FFE0
00FF80
ENDCHAR
STARTCHAR 0054
ENCODING 84
SWIDTH 583 0
DWIDTH 28 0
BBX 26 34 1 0
BITMAP
FFFFFFC0
FFFFFFC0
FFFFFFC0
FFFFFFC0
003F0000
003F0000
003F0000
003F0000
003F0000
003F0000
003F0000
003F0000
003F0000
003F0000
003F0000
003F0000
003F0000
003F0000
003F0000
003F0000
003F0000
003F0000
003F0000
003F0000
003F0000
003F0000
003F0000
003F0000
003F0000
003F0000
003F0000
003F0000
003F0000
003F0000
ENDCHAR
STARTCHAR 0055
ENCODING 85
SWIDTH 687 0
DWIDTH 33 0
BBX 25 35 4 -1
BITMAP
F8000F80
F8000F80
F8000F80
F8000F80
F8000F80
F8000F80
F8000F80
F8000F80
F8000F80
F8000F80
F8000F80
F8000F80
F8000F80
F8000F80
F8000F80
F8000F80
F8000F80
F8000F80
F8000F80
F8000F80
F8000F80
F8000F80
F8000F80
F8000F80
F8001F80
FC001F80
7C001F00
7C001F00
7E003F00
3F007E00
3F80FE00
1FFFFC00
0FFFF800
07FFF000
00FF8000
ENDCHAR
STARTCHAR 0056
ENCODING 86
SWIDTH 625 0
DWIDTH 30 0
BBX 28 34 1 0
BITMAP
FC0001F0
FC0003F0
7C0003E0
7E0003E0
7E0007E0
3E0007E0
3F0007C0
3F000FC0
1F000FC0
1F000F80
1F801F80
0F801F80
0F801F00
0FC01F00
07C03F00
07C03E00
07E03E00
03E07E00
03E07C00
03F07C00
03F0FC00
01F0F800
01F0F800
01F8F800
00F9F000
00F9F000
00F9F000
007DE000
007FE000
007FE000
003FC000
003FC000
003FC000
001F8000
ENDCHAR
STARTCHAR 0057
ENCODING 87
SWIDTH 916 0
DWIDTH 44 0
BBX 42 34 1 0
BITMAP
FC003F0007C0
7C003F8007C0
7C003F800FC0
7C007F800F80
7E007F800F80
7E007FC00F80
3E007FC00F80
3E00FBC01F00
3E00F3C01F00
3F00F3E01F00
1F00F3E01F00
1F01F3E01F00
1F01E1E03E00
1F01E1F03E00
0F81E1F03E00
0F83E1F03E00
0F83E0F07C00
0F83C0F07C00
0FC3C0F87C00
07C3C0F87C00
07C7C0787800
07C78078F800
07C7807CF800
03E7807CF800
03EF803CF000
03EF003DF000
03EF003FF000
01EF003FF000
01FF001FE000
01FE001FE000
01FE001FE000
00FE001FE000
00FE000FC000
00FC000FC000
ENDCHAR
STARTCHAR 0058
ENCODING 88
SWIDTH 645 0
DWIDTH 31 0
BBX 29 34 1 0
BITMAP
FE0003F0
7F0007E0
3F0007E0
1F800FC0
1FC01F80
0FC01F80
0FE03F00
07E03E00
03F07E00
03F0FC00
01F8FC00
00FDF800
00FDF000
007FF000
003FE000
003FC000
001FC000
003FC000
003FE000
007FF000
00FFF000
00F9F800
01F9F800
01F0FC00
03F07E00
07E07E00
07C03F00
0FC03F80
1F801F80
1F800FC0
3F000FC0
3F0007E0
7E0007F0
FC0003F8
ENDCHAR
STARTCHAR 0059
ENCODING 89
SWIDTH 625 0
DWIDTH 30 0
BBX 28 34 1 0
BITMAP
FC0003F0
FE0007E0
7E0007E0
3F000FC0
3F000FC0
1F801F80
1F801F00
0FC03F00
0FC03E00
07E07E00
07E0FC00
03F0FC00
01F9F800
01F9F000
00FFF000
00FFE000
007FE000
007FC000
003FC000
001F8000
001F0000
001F0000
001F0000
001F0000
001F0000
001F0000
001F0000
001F0000
001F0000
001F0000
001F0000
001F0000
001F0000
001F0000
ENDCHAR
STARTCHAR 005A
ENCODING 90
SWIDTH 583 0
DWIDTH 28 0
BBX 25 34 2 0
BITMAP
7FFFFF00
7FFFFF00
7FFFFF00
7FFFFF00
00003F00
00007E00
0000FC00
0001FC00
0001F800
0003F000
0007F000
0007E000
000FC000
001F8000
001F8000
003F0000
007E0000
00FE0000
00FC0000
01F80000
03F80000
03F00000
07E00000
0FC00000
0FC00000
1F800000
3F000000
7F000000
7E000000
FC000000
FFFFFF80
FFFFFF80
FFFFFF80
FFFFFF80
ENDCHAR
STARTCHAR 005B
ENCODING 91
SWIDTH 333 0
DWIDTH 16 0
BBX 9 43 4 -7
BITMAP
FF80
FF80
FF80
F800
F800
F800
F800
F800
F800
F800
F800
F800
F800
F800
F800
F800
F800
F800
F800
F800
F800
F800
F800
F800
F800
F800
F800
F800
F800
F800
F800
F800
F800
F800
F800
F800
F800
F800
F800
F800
FF80
FF80
FF80
ENDCHAR
STARTCHAR 005C
ENCODING 92
SWIDTH 416 0
DWIDTH 20 0
BBX 18 43 2 -7
BITMAP
F80000
F80000
780000
780000
7C0000
3C0000
3C0000
3E0000
3E0000
1E0000
1F0000
1F0000
0F0000
0F8000
0F8000
078000
078000
07C000
03C000
03C000
03E000
01E000
01E000
01F000
01F000
00F000
00F800
00F800
007800
007C00
007C00
003C00
003C00
003E00
001E00
001E00
001F00
001F00
000F00
000F80
000F80
000780
0007C0
ENDCHAR
STARTCHAR 005D
ENCODING 93
SWIDTH 333 0
DWIDTH 16 0
BBX 8 43 3 -7
BITMAP
FF
FF
FF
0F
0F
0F
0F
0F
0F
0F
0F
0F
0F
0F
0F
0F
0F
0F
0F
0F
0F
0F
0F
0F
0F
0F
0F
0F
0F
0F
0F
0F
0F
0F
0F
0F
0F
0F
0F
0F
FF
FF
FF
ENDCHAR
STARTCHAR 005E
ENCODING 94
SWIDTH 604 0
DWIDTH 29 0
BBX 25 20 2 14
BITMAP
003E0000
007F0000
007F0000
00FF8000
01FF8000
01FFC000
03F7C000
03E3E000
07C3F000
07C1F000
0F81F800
0F80F800
1F00FC00
1F007C00
3E003E00
7E003E00
7C001F00
F8001F00
38000E80
10000800
ENDCHAR
STARTCHAR 005F
ENCODING 95
SWIDTH 562 0
DWIDTH 27 0
BBX 24 4 1 -8
BITMAP
FFFFFF
FFFFFF
FFFFFF
FFFFFF
ENDCHAR
STARTCHAR 0060
ENCODING 96
SWIDTH 604 0
DWIDTH 29 0
BBX 9 10 8 28
BITMAP
1800
7C00
FC00
7E00
3E00
1F00
1F00
0F80
0780
0200
ENDCHAR
STARTCHAR 0061
ENCODING 97
SWIDTH 541 0
DWIDTH 26 0
BBX 23 27 2 -1
BITMAP
01FC00
0FFF80
1FFFC0
3FFFE0
7E0FE0
7C03F0
3803F0
1001F0
0001F0
0001F0
0001F0
0001F0
03FFF0
1FFFF0
3FFFF0
7E01F0
FC01F0
F801F0
F801F0
F801F0
F801F0
FC03F0
FE0EFE
7FFEFE
3FFCFE
1FF83E
07E000
ENDCHAR
STARTCHAR 0062
ENCODING 98
SWIDTH 583 0
DWIDTH 28 0
BBX 22 37 4 -1
BITMAP
F80000
F80000
F80000
F80000
F80000
F80000
F80000
F80000
F80000
F80000
F87F00
F9FF80
FBFFE0
FBFFF0
FF07F0
FC01F8
FC01F8
F800F8
F800FC
F8007C
F8007C
F8007C
F8007C
F8007C
F8007C
F8007C
F8007C
F8007C
F800FC
F800F8
FC01F8
FC01F8
FF07F0
FBFFF0
FBFFE0
F9FF80
007F00
ENDCHAR
STARTCHAR 0063
ENCODING 99
SWIDTH 500 0
DWIDTH 24 0
BBX 21 27 2 -1
BITMAP
00FE00
03FF80
0FFFE0
1FFFF0
3F83F0
3E01F8
7E00F0
7C0080
7C0000
FC0000
FC0000
FC0000
FC0000
FC0000
FC0000
FC0000
FC0000
FC0000
7C0000
7C0040
7E00F0
3E01F8
3F83F0
1FFFF0
0FFFE0
07FF80
00FE00
ENDCHAR
STARTCHAR 0064
ENCODING 100
SWIDTH 583 0
DWIDTH 28 0
BBX 23 37 2 -1
BITMAP
00007E
00007E
00007E
00007E
00007E
00007E
00007E
00007E
00007E
00007E
01F87E
07FE7E
0FFF7E
1FFFFE
3F83FE
3F00FE
7E007E
7C007E
7C007E
7C007E
FC007E
FC007E
FC007E
FC007E
FC007E
FC007E
FC007E
7C007E
7C007E
7C007E
7E007E
3F00FE
3F83FE
1FFFFE
0FFF7E
07FE7E
01F800
ENDCHAR
STARTCHAR 0065
ENCODING 101
SWIDTH 562 0
DWIDTH 27 0
BBX 23 27 2 -1
BITMAP
00FE00
03FF80
0FFFE0
1FFFF0
3F83F8
3F01F8
7E00FC
7C007C
7C007C
FC007C
F8007E
FFFFFE
FFFFFE
FFFFFE
F80000
F80000
FC0000
FC0000
7C0020
7C0030
7E0078
3F00FC
3F81F8
1FFFF0
0FFFE0
03FFC0
00FE00
ENDCHAR
STARTCHAR 0066
ENCODING 102
SWIDTH 333 0
DWIDTH 16 0
BBX 15 36 1 0
BITMAP
01FE
03FE
07FE
07FE
0F80
0F80
0F80
0F80
0F80
0F80
0F80
FFFE
FFFE
FFFE
FFFE
0F80
0F80
0F80
0F80
0F80
0F80
0F80
0F80
0F80
0F80
0F80
0F80
0F80
0F80
0F80
0F80
0F80
0F80
0F80
0F80
0F80
ENDCHAR
STARTCHAR 0067
ENCODING 103
SWIDTH 541 0
DWIDTH 26 0
BBX 24 39 2 -10
BITMAP
00007C
0000FC
0001FC
01FFFC
07FF80
1FFFC0
1FFFE0
3F07F0
3E01F0
7C01F8
7C00F8
7C00F8
7C00F8
7C00F8
7C01F8
7E01F0
3F03F0
1FFFE0
1FFFC0
07FF80
0FFE00
3C0000
780000
780000
7C0000
7FFFE0
3FFFF8
1FFFFC
0FFFFE
78007E
F0003F
F0001F
F0001F
F8003E
FC00FE
FFFFFC
7FFFFC
3FFFF0
07FF80
ENDCHAR
STARTCHAR 0068
ENCODING 104
SWIDTH 583 0
DWIDTH 28 0
BBX 20 36 4 0
BITMAP
F80000
F80000
F80000
F80000
F80000
F80000
F80000
F80000
F80000
F80000
F87E00
F9FF80
FBFFC0
FBFFE0
FF07E0
FC03F0
F803F0
F801F0
F801F0
F801F0
F801F0
F801F0
F801F0
F801F0
F801F0
F801F0
F801F0
F801F0
F801F0
F801F0
F801F0
F801F0
F801F0
F801F0
F801F0
F801F0
ENDCHAR
STARTCHAR 0069
ENCODING 105
SWIDTH 270 0
DWIDTH 13 0
BBX 6 36 3 0
BITMAP
78
7C
FC
FC
FC
7C
78
00
00
00
00
7C
7C
7C
7C
7C
7C
7C
7C
7C
7C
7C
7C
7C
7C
7C
7C
7C
7C
7C
7C
7C
7C
7C
7C
7C
ENDCHAR
STARTCHAR 006A
ENCODING 106
SWIDTH 270 0
DWIDTH 13 0
BBX 9 46 0 -10
BITMAP
0F00
0F80
1F80
1F80
1F80
0F80
0F00
0000
0000
0000
0000
0F80
0F80
0F80
0F80
0F80
0F80
0F80
0F80
0F80
0F80
0F80
0F80
0F80
0F80
0F80
0F80
0F80
0F80
0F80
0F80
0F80
0F80
0F80
0F80
0F80
0F80
0F80
0F80
0F80
0F80
0F80
FF80
FF00
FE00
FC00
ENDCHAR
STARTCHAR 006B
ENCODING 107
SWIDTH 541 0
DWIDTH 26 0
BBX 22 36 4 0
BITMAP
F80000
F80000
F80000
F80000
F80000
F80000
F80000
F80000
F80000
F80000
F80000
F803F8
F807E0
F80FE0
F80FC0
F81F80
F83F00
F87E00
F8FC00
F9F800
F9F000
FBF800
FFF800
FFFC00
FF7C00
FE7E00
FC3F00
F83F00
F81F80
F80FC0
F80FC0
F807E0
F807F0
F803F0
F801F8
F801FC
ENDCHAR
STARTCHAR 006C
ENCODING 108
SWIDTH 291 0
DWIDTH 14 0
BBX 8 36 4 0
BITMAP
F8
F8
F8
F8
F8
F8
F8
F8
F8
F8
F8
F8
F8
F8
F8
F8
F8
F8
F8
F8
F8
F8
F8
F8
F8
F8
F8
F8
F8
F8
F8
F8
FF
FF
7F
3F
ENDCHAR
STARTCHAR 006D
ENCODING 109
SWIDTH 875 0
DWIDTH 42 0
BBX 35 26 4 0
BITMAP
007E00FC00
F9FF83FF00
FBFFC7FF80
FBFFEFFF80
FF0FFE1FC0
FC07F80FC0
F803F007E0
F803F007E0
F801F007E0
F801F003E0
F801F003E0
F801F003E0
F801F003E0
F801F003E0
F801F003E0
F801F003E0
F801F003E0
F801F003E0
F801F003E0
F801F003E0
F801F003E0
F801F003E0
F801F003E0
F801F003E0
F801F003E0
F801F003E0
ENDCHAR
STARTCHAR 006E
ENCODING 110
SWIDTH 583 0
DWIDTH 28 0
BBX 20 26 4 0
BITMAP
007E00
F9FF80
FBFFC0
FBFFE0
FF07E0
FC03F0
F803F0
F801F0
F801F0
F801F0
F801F0
F801F0
F801F0
F801F0
F801F0
F801F0
F801F0
F801F0
F801F0
F801F0
F801F0
F801F0
F801F0
F801F0
F801F0
F801F0
ENDCHAR
STARTCHAR 006F
ENCODING 111
SWIDTH 562 0
DWIDTH 27 0
BBX 23 27 2 -1
BITMAP
00FE00
03FF80
0FFFE0
1FFFF0
1F83F8
3F00F8
7E00FC
7C007C
7C007C
FC007E
FC007E
FC007E
FC007E
FC007E
FC007E
FC007E
FC007E
FC007E
7C007C
7C007C
7E00FC
3F00F8
1F83F8
1FFFF0
0FFFE0
03FF80
00FE00
ENDCHAR
STARTCHAR 0070
ENCODING 112
SWIDTH 583 0
DWIDTH 28 0
BBX 22 36 4 -10
BITMAP
007F00
F9FF80
FBFFE0
FBFFF0
FF07F0
FC01F8
FC01F8
F800F8
F800FC
F8007C
F8007C
F8007C
F8007C
F8007C
F8007C
F8007C
F8007C
F8007C
F800FC
F800F8
FC01F8
FC01F8
FF07F0
FBFFF0
FBFFE0
F9FF80
F87F00
F80000
F80000
F80000
F80000
F80000
F80000
F80000
F80000
F80000
ENDCHAR
STARTCHAR 0071
ENCODING 113
SWIDTH 583 0
DWIDTH 28 0
BBX 23 36 2 -10
BITMAP
01F800
07FE7E
0FFF7E
1FFFFE
3F83FE
3F00FE
7E007E
7C007E
7C007E
7C007E
FC007E
FC007E
FC007E
FC007E
FC007E
FC007E
FC007E
7C007E
7C007E
7C007E
7E007E
3F00FE
3F83FE
1FFFFE
0FFF7E
07FE7E
01F87E
00007E
00007E
00007E
00007E
00007E
00007E
00007E
00007E
00007E
ENDCHAR
STARTCHAR 0072
ENCODING 114
SWIDTH 375 0
DWIDTH 18 0
BBX 13 25 4 0
BITMAP
F878
F9F8
FBF8
FFF8
FF00
FC00
F800
F800
F800
F800
F800
F800
F800
F800
F800
F800
F800
F800
F800
F800
F800
F800
F800
F800
F800
ENDCHAR
STARTCHAR 0073
ENCODING 115
SWIDTH 500 0
DWIDTH 24 0
BBX 20 27 2 -1
BITMAP
03FC00
0FFF00
1FFF80
3FFFE0
7E0FE0
7C03C0
7C0180
F80000
FC0000
7C0000
7E0000
7FF000
3FFF00
1FFF80
07FFC0
007FE0
0007E0
0003E0
0003F0
2003F0
7003E0
F803E0
FE07E0
7FFFC0
3FFF80
1FFF00
03FC00
ENDCHAR
STARTCHAR 0074
ENCODING 116
SWIDTH 375 0
DWIDTH 18 0
BBX 15 32 1 0
BITMAP
0780
0780
0780
0780
0780
0780
0F80
FFFE
FFFE
FFFE
FFFE
0F80
0F80
0F80
0F80
0F80
0F80
0F80
0F80
0F80
0F80
0F80
0F80
0F80
0F80
0F80
0F80
0F80
0FFC
07FC
07FC
01FC
ENDCHAR
STARTCHAR 0075
ENCODING 117
SWIDTH 583 0
DWIDTH 28 0
BBX 21 26 3 -1
BITMAP
FC00F8
FC00F8
FC00F8
FC00F8
FC00F8
FC00F8
FC00F8
FC00F8
FC00F8
FC00F8
FC00F8
FC00F8
FC00F8
FC00F8
FC00F8
FC00F8
FC00F8
7C00F8
7C00F8
7C01F8
7E01F8
7F07F8
3FFEF8
1FFEF8
0FFCF8
07F000
ENDCHAR
STARTCHAR 0076
ENCODING 118
SWIDTH 520 0
DWIDTH 25 0
BBX 23 25 1 0
BITMAP
F8003E
F8007C
7C007C
7C007C
7C00F8
3E00F8
3E00F8
3E01F0
1F01F0
1F01F0
1F03E0
0F83E0
0F83E0
0F87C0
07C7C0
07C7C0
07C780
03CF80
03EF80
03EF00
01FF00
01FF00
01FE00
00FE00
00FC00
ENDCHAR
STARTCHAR 0077
ENCODING 119
SWIDTH 791 0
DWIDTH 38 0
BBX 36 25 1 0
BITMAP
F800F801F0
7C01F801F0
7C01F801E0
7C01FC03E0
7C01FC03E0
3E03FC03E0
3E03FC03C0
3E03FE07C0
1E07DE07C0
1F079E07C0
1F079F0780
1F078F0F80
0F0F0F0F80
0F8F0F8F00
0F8F0F8F00
0F9F079F00
079E079F00
07DE07DE00
07DE03DE00
03FC03DE00
03FC03FE00
03FC03FC00
03FC01FC00
01F801FC00
01F801FC00
ENDCHAR
STARTCHAR 0078
ENCODING 120
SWIDTH 520 0
DWIDTH 25 0
BBX 23 25 1 0
BITMAP
FE007E
7E007C
3F00FC
1F81F8
1F81F0
0FC3F0
07C7E0
07E7C0
03FF80
01FF80
01FF00
00FE00
007E00
00FF00
01FF00
01FF80
03EFC0
07C7C0
0FC7E0
0F83F0
1F81F0
3F01F8
3E00FC
7E00FC
FC007E
ENDCHAR
STARTCHAR 0079
ENCODING 121
SWIDTH 520 0
DWIDTH 25 0
BBX 23 35 1 -10
BITMAP
F8003E
F8003E
FC007C
7C007C
7C007C
7E00F8
3E00F8
3E00F8
3F01F0
1F01F0
1F01E0
1F83E0
0F83E0
0F83C0
0FC7C0
07C7C0
07C780
03CF80
03EF80
03EF00
01EF00
01FF00
01FE00
00FE00
00FE00
00FC00
007C00
00FC00
00F800
00F800
01F800
1FF000
1FF000
1FE000
1F8000
ENDCHAR
STARTCHAR 007A
ENCODING 122
SWIDTH 479 0
DWIDTH 23 0
BBX 20 25 2 0
BITMAP
FFFFE0
FFFFE0
FFFFE0
FFFFE0
0007E0
000FC0
001F80
003F00
003F00
007E00
00FC00
01F800
03F000
03F000
07E000
0FC000
1F8000
3F8000
3F0000
7E0000
FC0000
FFFFF0
FFFFF0
FFFFF0
FFFFF0
ENDCHAR
STARTCHAR 007B
ENCODING 123
SWIDTH 354 0
DWIDTH 17 0
BBX 13 43 1 -7
BITMAP
01F8
07F8
07F8
0780
0780
0780
0780
0780
0780
0780
0780
0780
0780
0780
0780
0780
0F80
0F80
3F00
FE00
FC00
F800
FC00
FE00
3F00
0F80
0F80
0780
0780
0780
0780
0780
0780
0780
0780
0780
0780
0780
0780
0780
07F8
07F8
01F8
ENDCHAR
STARTCHAR 007C
ENCODING 124
SWIDTH 354 0
DWIDTH 17 0
BBX 5 43 6 -7
BITMAP
F8
F8
F8
F8
F8
F8
F8
F8
F8
F8
F8
F8
F8
F8
F8
F8
F8
F8
F8
F8
F8
F8
F8
F8
F8
F8
F8
F8
F8
F8
F8
F8
F8
F8
F8
F8
F8
F8
F8
F8
F8
F8
F8
ENDCHAR
STARTCHAR 007D
ENCODING 125
SWIDTH 354 0
DWIDTH 17 0
BBX 13 43 3 -7
BITMAP
FC00
FF00
FF00
0F00
0F00
0F00
0F00
0F00
0F00
0F00
0F00
0F00
0F00
0F00
0F00
0F80
0F80
0F80
07E0
03F8
01F8
0078
01F8
03F8
07E0
0F80
0F80
0F80
0F00
0F00
0F00
0F00
0F00
0F00
0F00
0F00
0F00
0F00
0F00
0F00
FF00
FF00
FC00
ENDCHAR
STARTCHAR 007E
ENCODING 126
SWIDTH 604 0
DWIDTH 29 0
BBX 23 7 3 11
BITMAP
1F8000
7FF008
FFFC1C
FFFFFE
70FFFE
401FFC
0003F0
ENDCHAR
STARTCHAR 00A0
ENCODING 160
SWIDTH 229 0
DWIDTH 11 0
BBX 0 0 0 0
BITMAP
ENDCHAR
STARTCHAR 00A1
ENCODING 161
SWIDTH 291 0
DWIDTH 14 0
BBX 7 35 4 -9
BITMAP
78
FC
FE
FE
FE
FC
78
00
00
00
30
38
38
38
78
78
78
78
78
78
7C
7C
7C
7C
FC
FC
FC
FC
FC
FC
FC
FC
FC
FC
FC
ENDCHAR
STARTCHAR 00A2
ENCODING 162
SWIDTH 520 0
DWIDTH 25 0
BBX 22 35 2 -5
BITMAP
007800
007800
007800
007800
007800
01FF00
07FFC0
0FFFE0
1FFFF0
3F39F8
3E38F8
7C3860
7C3840
FC3800
F83800
F83800
F83800
F83800
F83800
F83800
F83800
FC3800
7C3840
7C3870
3E38FC
3F39F8
1FFFF0
0FFFE0
07FFC0
01FF00
007800
007800
007800
007800
007800
ENDCHAR
STARTCHAR 00A3
ENCODING 163
SWIDTH 583 0
DWIDTH 28 0
BBX 25 34 2 0
BITMAP
003FC000
01FFF800
03FFFC00
07FFFE00
0FE07F00
1FC03F80
1F800C00
1F000800
3F000000
3F000000
3F000000
3F000000
1F000000
1F000000
1F800000
1F800000
FFFFE000
FFFFE000
FFFFE000
FFFFE000
07C00000
07E00000
07E00000
07C00000
07C00000
07C00000
0FC00000
1F800000
3F000000
3E000000
3FFFFF00
3FFFFF00
3FFFFF00
3FFFFF00
ENDCHAR
STARTCHAR 00A4
ENCODING 164
SWIDTH 625 0
DWIDTH 30 0
BBX 28 29 1 2
BITMAP
20000080
700000C0
F80001E0
FC3FC3F0
7EFFF7E0
3FFFFFC0
1FFFFF80
0FE0FF00
0FC03F00
0F801F00
1F801F00
1F001F80
1F001F80
1F001F80
1F001F80
1F001F80
1F001F80
1F001F80
1F801F00
0F801F00
0FC03F00
0FE0FF00
1FFFFF80
3FFFFFC0
7EFFF7E0
FC3FC3F0
F80001E0
700000C0
20000080
ENDCHAR
STARTCHAR 00A5
ENCODING 165
SWIDTH 625 0
DWIDTH 30 0
BBX 28 34 1 0
BITMAP
FE0007F0
7E0007E0
3F000FC0
3F000FC0
1F800F80
1F801F80
0FC01F00
0FC03F00
07E03E00
07E07C00
03F07C00
01F0F800
01F8F800
00F9F000
00FDF000
007FE000
1FFFFF80
1FFFFF80
1FFFFF80
1FFFFF80
001F8000
001F8000
001F8000
001F8000
1FFFFF80
1FFFFF80
1FFFFF80
1FFFFF80
001F8000
001F8000
001F8000
001F8000
001F8000
001F8000
ENDCHAR
STARTCHAR 00A6
ENCODING 166
SWIDTH 354 0
DWIDTH 17 0
BBX 5 43 6 -7
BITMAP
F8
F8
F8
F8
F8
F8
F8
F8
F8
F8
F8
F8
F8
F8
F8
F8
F8
00
00
00
00
00
00
00
00
00
F8
F8
F8
F8
F8
F8
F8
F8
F8
F8
F8
F8
F8
F8
F8
F8
F8
ENDCHAR
STARTCHAR 00A7
ENCODING 167
SWIDTH 583 0
DWIDTH 28 0
BBX 22 42 3 -8
BITMAP
00FE00
07FFC0
0FFFF0
1FFFF0
3F83E0
3E00C0
3E0000
3C0000
3C0000
3E0000
3F0000
1FC000
1FF800
0FFF00
07FFC0
0EFFF0
1C1FF0
3803F8
7800F8
F800FC
F8007C
F80078
F80078
FC0078
7F00F0
7FE1E0
3FFF80
0FFF00
03FFC0
007FE0
000FE0
0003F0
0001F0
0001F0
0001F0
0001F0
0803F0
1E07E0
3FFFE0
7FFFC0
0FFF00
03FC00
ENDCHAR
STARTCHAR 00A8
ENCODING 168
SWIDTH 604 0
DWIDTH 29 0
BBX 15 6 7 29
BITMAP
783C
F87E
FC7E
FC7E
F87E
783C
ENDCHAR
STARTCHAR 00A9
ENCODING 169
SWIDTH 791 0
DWIDTH 38 0
BBX 33 35 2 -1
BITMAP
0007F80000
003FFF0000
00FFFFC000
03F80FE000
07E001F000
0F80007800
0F00003C00
1E00001E00
3C03F01E00
380FFC0F00
381FFE0700
783FFF0700
707E1F0780
707C0E8780
7078080380
70F8000380
F0F8000380
F0F8000380
F0F8000380
7078000380
7078040380
707C0E0780
707E1F8780
783FFF0700
381FFE0700
380FFC0F00
3C03F01E00
1E00001E00
0F00003C00
0F80007800
07C001F000
03F807E000
00FFFFC000
003FFF0000
000FF80000
ENDCHAR
STARTCHAR 00AA
ENCODING 170
SWIDTH 416 0
DWIDTH 20 0
BBX 16 18 2 16
BITMAP
0FE0
3FF0
7FF8
787C
303C
203C
001C
001C
0FFC
3FFC
781C
F01C
F03C
F03C
F87C
7FDF
7F9F
1F07
ENDCHAR
STARTCHAR 00AB
ENCODING 171
SWIDTH 541 0
DWIDTH 26 0
BBX 21 20 2 4
BITMAP
008010
01C030
03C078
07C1F8
0F83F0
3F07E0
7F0FC0
FE1F80
FC3F00
F83F00
F03E00
F83F00
FC3F80
7E0FC0
3F07E0
1F83F0
0FC1F8
03C0F8
01C070
008010
ENDCHAR
STARTCHAR 00AC
ENCODING 172
SWIDTH 604 0
DWIDTH 29 0
BBX 24 13 2 4
BITMAP
FFFFFF
FFFFFF
FFFFFF
FFFFFF
00001F
00001F
00001F
00001F
00001F
00001F
00001F
00001F
00001F
ENDCHAR
STARTCHAR 00AD
ENCODING 173
SWIDTH 395 0
DWIDTH 19 0
BBX 13 5 3 12
BITMAP
FFF8
FFF8
FFF8
FFF8
FFF8
ENDCHAR
STARTCHAR 00AE
ENCODING 174
SWIDTH 479 0
DWIDTH 23 0
BBX 19 19 2 15
BITMAP
03F800
0FFE00
1E0F00
380380
7001C0
67F0C0
C7F8C0
C71860
C71860
C7F860
C7F060
C73060
C738C0
671CC0
7001C0
380380
1E0F00
0FFE00
03F000
ENDCHAR
STARTCHAR 00AF
ENCODING 175
SWIDTH 604 0
DWIDTH 29 0
BBX 14 4 7 30
BITMAP
FFFC
FFFC
FFFC
FFFC
ENDCHAR
STARTCHAR 00B0
ENCODING 176
SWIDTH 479 0
DWIDTH 23 0
BBX 17 17 3 17
BITMAP
07E000
1FF800
3FFC00
7FFE00
7C3F00
F80F00
F00F80
F00780
F00780
F00780
F00F80
F80F00
7C3F00
7FFE00
3FFC00
1FF800
07E000
ENDCHAR
STARTCHAR 00B1
ENCODING 177
SWIDTH 604 0
DWIDTH 29 0
BBX 23 30 3 0
BITMAP
007C00
007C00
007C00
007C00
007C00
007C00
007C00
007C00
007C00
FFFFFE
FFFFFE
FFFFFE
FFFFFE
007C00
007C00
007C00
007C00
007C00
007C00
007C00
007C00
007C00
000000
000000
000000
000000
FFFFFE
FFFFFE
FFFFFE
FFFFFE
ENDCHAR
STARTCHAR 00B2
ENCODING 178
SWIDTH 354 0
DWIDTH 17 0
BBX 14 18 1 16
BITMAP
0FC0
3FF0
7FF8
7878
F07C
103C
007C
0078
00F8
01F0
03E0
07C0
1F00
3E00
7C00
7FFC
7FFC
7FFC
ENDCHAR
STARTCHAR 00B3
ENCODING 179
SWIDTH 354 0
DWIDTH 17 0
BBX 14 18 1 16
BITMAP
0FC0
3FF0
7FF8
F878
207C
0078
0078
07F0
07C0
07F0
0078
003C
003C
603C
F078
FFF8
7FF0
1FC0
ENDCHAR
STARTCHAR 00B4
ENCODING 180
SWIDTH 604 0
DWIDTH 29 0
BBX 9 10 12 28
BITMAP
0C00
1F00
1F80
3F00
3E00
7C00
7800
F800
F000
2000
ENDCHAR
STARTCHAR 00B5
ENCODING 181
SWIDTH 583 0
DWIDTH 28 0
BBX 20 35 4 -10
BITMAP
F801F0
F801F0
F801F0
F801F0
F801F0
F801F0
F801F0
F801F0
F801F0
F801F0
F801F0
F801F0
F801F0
F801F0
F801F0
F801F0
F801F0
F801F0
F801F0
FC01F0
FC03F0
FE0FF0
FFFFF0
FFFDF0
F7F9F0
F3E000
F80000
F80000
F80000
F80000
F80000
F80000
F80000
F80000
F80000
ENDCHAR
STARTCHAR 00B6
ENCODING 182
SWIDTH 666 0
DWIDTH 32 0
BBX 26 41 2 -7
BITMAP
01FFFFC0
07FFFFC0
1FFFFFC0
3FFFFFC0
3FFC1E00
7FFC1E00
7FFC1E00
FFFC1E00
FFFC1E00
FFFC1E00
FFFC1E00
FFFC1E00
FFFC1E00
7FFC1E00
7FFC1E00
3FFC1E00
3FFC1E00
1FFC1E00
07FC1E00
01FC1E00
003C1E00
003C1E00
003C1E00
003C1E00
003C1E00
003C1E00
003C1E00
003C1E00
003C1E00
003C1E00
003C1E00
003C1E00
003C1E00
003C1E00
003C1E00
003C1E00
003C1E00
003C1E00
003C1E00
003C1E00
003C1E00
ENDCHAR
STARTCHAR 00B7
ENCODING 183
SWIDTH 354 0
DWIDTH 17 0
BBX 7 8 5 11
BITMAP
7C
FE
FE
FE
FE
FE
FE
7C
ENDCHAR
STARTCHAR 00B8
ENCODING 184
SWIDTH 604 0
DWIDTH 29 0
BBX 11 11 10 -10
BITMAP
1C00
1C00
1C00
1800
3F80
07C0
01E0
61E0
FFE0
FFC0
3F00
ENDCHAR
STARTCHAR 00B9
ENCODING 185
SWIDTH 354 0
DWIDTH 17 0
BBX 15 18 1 16
BITMAP
0FC0
1FC0
3FC0
3FC0
7BC0
F3C0
23C0
03C0
03C0
03C0
03C0
03C0
03C0
03C0
03C0
3FFE
3FFE
3FFE
ENDCHAR
STARTCHAR 00BA
ENCODING 186
SWIDTH 416 0
DWIDTH 20 0
BBX 16 18 2 16
BITMAP
07E0
1FF8
3FFC
7C3E
781E
F00E
F00F
F00F
F00F
F00F
F00F
F00F
F00E
781E
7C3E
3FFC
1FF8
07E0
ENDCHAR
STARTCHAR 00BB
ENCODING 187
SWIDTH 541 0
DWIDTH 26 0
BBX 22 20 2 4
BITMAP
200800
700C00
780F00
FC1F80
7E0FC0
3F07E0
1FC3F0
0FE1F8
07E0FC
03E07C
03E07C
07E0FC
07E1FC
0FC3F8
1F87E0
3F0FC0
7C0F80
F81F00
700E00
200C00
ENDCHAR
STARTCHAR 00BC
ENCODING 188
SWIDTH 854 0
DWIDTH 41 0
BBX 39 34 1 0
BITMAP
0FC00003E0
1FC0000780
3FC0000F80
3FC0000F00
7BC0001E00
F3C0003E00
23C0003C00
03C0007800
03C000F000
03C001F000
03C001E000
03C003C000
03C007C000
03C0078000
03C00F0000
3FFE1E0000
3FFE1E01F0
3FFE3C01F0
00007803F0
0000F807F0
0000F00770
0001E00E70
0003E01E70
0003C01C70
0007803870
000F007870
001F007070
001E00E070
003C00FFFE
007C00FFFE
007800FFFE
00F0000070
01E0000070
03E0000070
ENDCHAR
STARTCHAR 00BD
ENCODING 189
SWIDTH 854 0
DWIDTH 41 0
BBX 38 34 1 0
BITMAP
0FC00007C0
1FC0000F80
3FC0000F00
3FC0001E00
7BC0003E00
F3C0003C00
23C0007800
03C000F000
03C001F000
03C001E000
03C003C000
03C007C000
03C0078000
03C00F0000
03C01E0000
3FFE1E0000
3FFE3C0FE0
3FFE781FF0
0000F83FF8
0000F0787C
0001E0703C
0003E0103C
0003C0003C
0007800078
000F0000F8
001F0001F0
001E0003E0
003C0007C0
007C000F00
0078003E00
00F0007C00
01E0007FFC
03E0007FFC
07C0007FFC
ENDCHAR
STARTCHAR 00BE
ENCODING 190
SWIDTH 833 0
DWIDTH 40 0
BBX 38 34 1 0
BITMAP
0FC00007C0
3FF0000F80
7FF8000F00
F878001E00
207C003C00
0078007C00
0078007800
07F000F000
07C001F000
07F001E000
007803C000
003C078000
003C0F8000
603C0F0000
F0781E0000
FFF83E0000
7FF03C03E0
1FC07803E0
0000F007E0
0000F00FE0
0001E00EE0
0003C01CE0
0007C03CE0
00078038E0
000F0070E0
001F00F0E0
001E00E0E0
003C01E0E0
007801FFFC
00F801FFFC
00F001FFFC
01E00000E0
03E00000E0
07C00000E0
ENDCHAR
STARTCHAR 00BF
ENCODING 191
SWIDTH 479 0
DWIDTH 23 0
BBX 20 35 2 -9
BITMAP
00F800
00FC00
01FC00
01FC00
01FC00
00FC00
00F800
000000
000000
000000
000000
00F800
00F800
00F800
00F800
03F800
0FF800
1FF800
3FE000
7F0000
7E0000
FC0000
FC0000
F80000
F80000
F80000
F80080
F801F0
FC01F0
FC03F0
7F07E0
3FFFE0
1FFFC0
0FFF00
03FC00
ENDCHAR
STARTCHAR 00C0
ENCODING 192
SWIDTH 666 0
DWIDTH 32 0
BBX 30 46 1 0
BITMAP
000C0000
003C0000
007E0000
003E0000
003F0000
001F0000
000F8000
00078000
0007C000
00020000
00000000
00000000
001FC000
001FE000
001FE000
003FE000
003FF000
003DF000
007DF000
007CF800
007CF800
00F8F800
00F87C00
00F87C00
01F07E00
01F07E00
01F03E00
03E03F00
03E03F00
03E01F00
07E01F80
07C01F80
07C00F80
0FFFFFC0
0FFFFFC0
0FFFFFC0
1FFFFFE0
1F0007E0
1F0003E0
3F0003F0
3E0003F0
3E0001F0
7E0001F8
7C0001F8
7C0000F8
FC0000FC
ENDCHAR
STARTCHAR 00C1
ENCODING 193
SWIDTH 666 0
DWIDTH 32 0
BBX 30 46 1 0
BITMAP
0000C000
0000F000
0001F800
0001F000
0003E000
0003E000
0007C000
00078000
000F0000
00030000
00000000
00000000
001FC000
001FE000
001FE000
003FE000
003FF000
003DF000
007DF000
007CF800
007CF800
00F8F800
00F87C00
00F87C00
01F07E00
01F07E00
01F03E00
03E03F00
03E03F00
03E01F00
07E01F80
07C01F80
07C00F80
0FFFFFC0
0FFFFFC0
0FFFFFC0
1FFFFFE0
1F0007E0
1F0003E0
3F0003F0
3E0003F0
3E0001F0
7E0001F8
7C0001F8
7C0000F8
FC0000FC
ENDCHAR
STARTCHAR 00C2
ENCODING 194
SWIDTH 666 0
DWIDTH 32 0
BBX 30 46 1 0
BITMAP
000FC000
001FE000
003FE000
003FF000
007DF800
00F8FC00
01F07C00
01F03E00
03E01C00
00400800
00000000
00000000
001FC000
001FE000
001FE000
003FE000
003FF000
003DF000
007DF000
007CF800
007CF800
00F8F800
00F87C00
00F87C00
01F07E00
01F07E00
01F03E00
03E03F00
03E03F00
03E01F00
07E01F80
07C01F80
07C00F80
0FFFFFC0
0FFFFFC0
0FFFFFC0
1FFFFFE0
1F0007E0
1F0003E0
3F0003F0
3E0003F0
3E0001F0
7E0001F8
7C0001F8
7C0000F8
FC0000FC
ENDCHAR
STARTCHAR 00C3
ENCODING 195
SWIDTH 666 0
DWIDTH 32 0
BBX 30 43 1 0
BITMAP
007C0400
00FF0C00
01FFFE00
03FFFE00
01C7FC00
0080F800
00000000
00000000
00000000
001FC000
001FE000
001FE000
003FE000
003FF000
003DF000
007DF000
007CF800
007CF800
00F8F800
00F87C00
00F87C00
01F07E00
01F07E00
01F03E00
03E03F00
03E03F00
03E01F00
07E01F80
07C01F80
07C00F80
0FFFFFC0
0FFFFFC0
0FFFFFC0
1FFFFFE0
1F0007E0
1F0003E0
3F0003F0
3E0003F0
3E0001F0
7E0001F8
7C0001F8
7C0000F8
FC0000FC
ENDCHAR
STARTCHAR 00C4
ENCODING 196
SWIDTH 666 0
DWIDTH 32 0
BBX 30 43 1 0
BITMAP
00F03C00
01F87C00
01F87E00
01F87E00
01F87C00
00F03C00
00000000
00000000
00000000
001FC000
001FE000
001FE000
003FE000
003FF000
003DF000
007DF000
007CF800
007CF800
00F8F800
00F87C00
00F87C00
01F07E00
01F07E00
01F03E00
03E03F00
03E03F00
03E01F00
07E01F80
07C01F80
07C00F80
0FFFFFC0
0FFFFFC0
0FFFFFC0
1FFFFFE0
1F0007E0
1F0003E0
3F0003F0
3E0003F0
3E0001F0
7E0001F8
7C0001F8
7C0000F8
FC0000FC
ENDCHAR
STARTCHAR 00C5
ENCODING 197
SWIDTH 666 0
DWIDTH 32 0
BBX 30 47 1 0
BITMAP
000F8000
001FE000
003FF000
00787800
00707800
00707800
00707800
00707800
00787800
003FF000
001FE000
000F8000
00000000
001FC000
001FE000
001FE000
003FE000
003FF000
003DF000
007DF000
007CF800
007CF800
00F8F800
00F87C00
00F87C00
01F07E00
01F07E00
01F03E00
03E03F00
03E03F00
03E01F00
07E01F80
07C01F80
07C00F80
0FFFFFC0
0FFFFFC0
0FFFFFC0
1FFFFFE0
1F0007E0
1F0003E0
3F0003F0
3E0003F0
3E0001F0
7E0001F8
7C0001F8
7C0000F8
FC0000FC
ENDCHAR
STARTCHAR 00C6
ENCODING 198
SWIDTH 937 0
DWIDTH 45 0
BBX 42 34 0 0
BITMAP
00007FFFFFC0
0000FFFFFFC0
0000FFFFFFC0
0001FFFFFFC0
0001EFC00000
0003EFC00000
0003EFC00000
0007CFC00000
0007CFC00000
000F8FC00000
000F8FC00000
001F0FC00000
001F0FC00000
003E0FC00000
003E0FC00000
007E0FFFFF00
007C0FFFFF00
00FC0FFFFF00
00F80FFFFF00
01F80FC00000
01F00FC00000
03FFFFC00000
03FFFFC00000
07FFFFC00000
07FFFFC00000
0FC00FC00000
0F800FC00000
1F800FC00000
1F000FC00000
3F000FC00000
3E000FFFFFC0
7E000FFFFFC0
7C000FFFFFC0
FC000FFFFFC0
ENDCHAR
STARTCHAR 00C7
ENCODING 199
SWIDTH 625 0
DWIDTH 30 0
BBX 26 43 3 -9
BITMAP
003FC000
01FFF800
07FFFC00
0FFFFE00
1FE07F00
1F803F80
3F000FC0
7E000F00
7E000400
7C000000
FC000000
FC000000
F8000000
F8000000
F8000000
F8000000
F8000000
F8000000
F8000000
F8000000
F8000000
F8000000
FC000000
FC000000
7C000400
7E000600
7E000F80
3F000FC0
3F801F80
1FE07F00
0FFFFF00
07FFFC00
01FFF800
007FC000
000C0000
001C0000
001FC000
0003E000
0000E000
0031F000
007FE000
00FFE000
001F8000
ENDCHAR
STARTCHAR 00C8
ENCODING 200
SWIDTH 583 0
DWIDTH 28 0
BBX 22 46 4 0
BITMAP
00C000
03C000
07E000
03E000
03F000
01F000
00F800
007800
007C00
002000
000000
000000
FFFFFC
FFFFFC
FFFFFC
FFFFFC
FC0000
FC0000
FC0000
FC0000
FC0000
FC0000
FC0000
FC0000
FC0000
FC0000
FC0000
FFFFF0
FFFFF0
FFFFF0
FFFFF0
FC0000
FC0000
FC0000
FC0000
FC0000
FC0000
FC0000
FC0000
FC0000
FC0000
FC0000
FFFFFC
FFFFFC
FFFFFC
FFFFFC
ENDCHAR
STARTCHAR 00C9
ENCODING 201
SWIDTH 583 0
DWIDTH 28 0
BBX 22 46 4 0
BITMAP
000C00
000F00
001F80
001F00
003E00
003E00
007C00
007800
00F000
003000
000000
000000
FFFFFC
FFFFFC
FFFFFC
FFFFFC
FC0000
FC0000
FC0000
FC0000
FC0000
FC0000
FC0000
FC0000
FC0000
FC0000
FC0000
FFFFF0
FFFFF0
FFFFF0
FFFFF0
FC0000
FC0000
FC0000
FC0000
FC0000
FC0000
FC0000
FC0000
FC0000
FC0000
FC0000
FFFFFC
FFFFFC
FFFFFC
FFFFFC
ENDCHAR
STARTCHAR 00CA
ENCODING 202
SWIDTH 583 0
DWIDTH 28 0
BBX 22 46 4 0
BITMAP
00FC00
01FE00
03FE00
03FF00
07DF80
0F8FC0
1F07C0
1F03E0
3E01C0
040080
000000
000000
FFFFFC
FFFFFC
FFFFFC
FFFFFC
FC0000
FC0000
FC0000
FC0000
FC0000
FC0000
FC0000
FC0000
FC0000
FC0000
FC0000
FFFFF0
FFFFF0
FFFFF0
FFFFF0
FC0000
FC0000
FC0000
FC0000
FC0000
FC0000
FC0000
FC0000
FC0000
FC0000
FC0000
FFFFFC
FFFFFC
FFFFFC
FFFFFC
ENDCHAR
STARTCHAR 00CB
ENCODING 203
SWIDTH 583 0
DWIDTH 28 0
BBX 22 43 4 0
BITMAP
0F03C0
1F87C0
1F87E0
1F87E0
1F87C0
0F03C0
000000
000000
000000
FFFFFC
FFFFFC
FFFFFC
FFFFFC
FC0000
FC0000
FC0000
FC0000
FC0000
FC0000
FC0000
FC0000
FC0000
FC0000
FC0000
FFFFF0
FFFFF0
FFFFF0
FFFFF0
FC0000
FC0000
FC0000
FC0000
FC0000
FC0000
FC0000
FC0000
FC0000
FC0000
FC0000
FFFFFC
FFFFFC
FFFFFC
FFFFFC
ENDCHAR
STARTCHAR 00CC
ENCODING 204
SWIDTH 416 0
DWIDTH 20 0
BBX 14 46 3 0
BITMAP
0C00
3C00
7E00
3E00
1F00
1F00
0F80
0780
07C0
0300
0000
0000
FFFC
FFFC
FFFC
FFFC
0FC0
0FC0
0FC0
0FC0
0FC0
0FC0
0FC0
0FC0
0FC0
0FC0
0FC0
0FC0
0FC0
0FC0
0FC0
0FC0
0FC0
0FC0
0FC0
0FC0
0FC0
0FC0
0FC0
0FC0
0FC0
0FC0
FFFC
FFFC
FFFC
FFFC
ENDCHAR
STARTCHAR 00CD
ENCODING 205
SWIDTH 416 0
DWIDTH 20 0
BBX 14 46 3 0
BITMAP
00C0
00F0
01F8
01F0
03E0
03E0
07C0
0780
0F80
0300
0000
0000
FFFC
FFFC
FFFC
FFFC
0FC0
0FC0
0FC0
0FC0
0FC0
0FC0
0FC0
0FC0
0FC0
0FC0
0FC0
0FC0
0FC0
0FC0
0FC0
0FC0
0FC0
0FC0
0FC0
0FC0
0FC0
0FC0
0FC0
0FC0
0FC0
0FC0
FFFC
FFFC
FFFC
FFFC
ENDCHAR
STARTCHAR 00CE
ENCODING 206
SWIDTH 416 0
DWIDTH 20 0
BBX 16 46 2 0
BITMAP
07E0
0FF0
1FF0
1FF8
3FFC
7E7E
7C3E
F81F
F00F
2004
0000
0000
7FFE
7FFE
7FFE
7FFE
07E0
07E0
07E0
07E0
07E0
07E0
07E0
07E0
07E0
07E0
07E0
07E0
07E0
07E0
07E0
07E0
07E0
07E0
07E0
07E0
07E0
07E0
07E0
07E0
07E0
07E0
7FFE
7FFE
7FFE
7FFE
ENDCHAR
STARTCHAR 00CF
ENCODING 207
SWIDTH 416 0
DWIDTH 20 0
BBX 16 43 2 0
BITMAP
781E
FC3F
FC3F
FC3F
FC3F
781E
0000
0000
0000
7FFE
7FFE
7FFE
7FFE
07E0
07E0
07E0
07E0
07E0
07E0
07E0
07E0
07E0
07E0
07E0
07E0
07E0
07E0
07E0
07E0
07E0
07E0
07E0
07E0
07E0
07E0
07E0
07E0
07E0
07E0
7FFE
7FFE
7FFE
7FFE
ENDCHAR
STARTCHAR 00D0
ENCODING 208
SWIDTH 687 0
DWIDTH 33 0
BBX 29 34 1 0
BITMAP
1FFFE000
1FFFFC00
1FFFFF00
1FFFFF80
1F803FC0
1F800FC0
1F8007E0
1F8003F0
1F8003F0
1F8001F0
1F8001F8
1F8001F8
1F8001F8
1F8000F8
FFFE00F8
FFFE00F8
FFFE00F8
FFFE00F8
1F8000F8
1F8000F8
1F8000F8
1F8001F8
1F8001F8
1F8001F8
1F8001F0
1F8003F0
1F8003F0
1F8007E0
1F800FC0
1F803FC0
1FFFFF80
1FFFFF00
1FFFFC00
1FFFE000
ENDCHAR
STARTCHAR 00D1
ENCODING 209
SWIDTH 708 0
DWIDTH 34 0
BBX 26 43 4 0
BITMAP
01F01000
03FE3800
07FFF800
07FFFC00
030FF000
0203E000
00000000
00000000
00000000
FC0007C0
FE0007C0
FF0007C0
FF0007C0
FF8007C0
FF8007C0
FFC007C0
FFE007C0
FBE007C0
FBF007C0
F9F007C0
F9F807C0
F8F807C0
F8FC07C0
F87E07C0
F87E07C0
F83F07C0
F81F07C0
F81F87C0
F80F87C0
F80FC7C0
F807C7C0
F807E7C0
F803E7C0
F801F7C0
F801FFC0
F800FFC0
F800FFC0
F8007FC0
F8007FC0
F8003FC0
F8001FC0
F8001FC0
F8000FC0
ENDCHAR
STARTCHAR 00D2
ENCODING 210
SWIDTH 708 0
DWIDTH 34 0
BBX 29 47 3 -1
BITMAP
00180000
00780000
00FC0000
007C0000
003E0000
003E0000
001F0000
000F0000
000F8000
00060000
00000000
00000000
003FC000
01FFF800
03FFFC00
07FFFF00
0FE07F80
1F801F80
3F000FC0
3E0007E0
7E0007E0
7C0003E0
FC0003F0
FC0003F0
FC0001F0
F80001F0
F80001F0
F80001F0
F80001F8
F80001F8
F80001F8
F80001F0
F80001F0
F80001F0
FC0001F0
FC0003F0
FC0003F0
7C0003E0
7E0007E0
3E0007E0
3F000FC0
1F801F80
0FE07F80
07FFFF00
03FFFC00
01FFF800
003FC000
ENDCHAR
STARTCHAR 00D3
ENCODING 211
SWIDTH 708 0
DWIDTH 34 0
BBX 29 47 3 -1
BITMAP
00018000
0001E000
0003F000
0003E000
0007E000
0007C000
000F8000
000F0000
001F0000
00020000
00000000
00000000
003FC000
01FFF800
03FFFC00
07FFFF00
0FE07F80
1F801F80
3F000FC0
3E0007E0
7E0007E0
7C0003E0
FC0003F0
FC0003F0
FC0001F0
F80001F0
F80001F0
F80001F0
F80001F8
F80001F8
F80001F8
F80001F0
F80001F0
F80001F0
FC0001F0
FC0003F0
FC0003F0
7C0003E0
7E0007E0
3E0007E0
3F000FC0
1F801F80
0FE07F80
07FFFF00
03FFFC00
01FFF800
003FC000
ENDCHAR
STARTCHAR 00D4
ENCODING 212
SWIDTH 708 0
DWIDTH 34 0
BBX 29 47 3 -1
BITMAP
001F8000
003FC000
003FE000
007FE000
00FDF000
01F8F800
01F0FC00
03E07C00
01C03C00
00801000
00000000
00000000
003FC000
01FFF800
03FFFC00
07FFFF00
0FE07F80
1F801F80
3F000FC0
3E0007E0
7E0007E0
7C0003E0
FC0003F0
FC0003F0
FC0001F0
F80001F0
F80001F0
F80001F0
F80001F8
F80001F8
F80001F8
F80001F0
F80001F0
F80001F0
FC0001F0
FC0003F0
FC0003F0
7C0003E0
7E0007E0
3E0007E0
3F000FC0
1F801F80
0FE07F80
07FFFF00
03FFFC00
01FFF800
003FC000
ENDCHAR
STARTCHAR 00D5
ENCODING 213
SWIDTH 708 0
DWIDTH 34 0
BBX 29 44 3 -1
BITMAP
00F80800
01FF1C00
03FFFC00
03FFFE00
0187F800
0101F000
00000000
00000000
00000000
003FC000
01FFF800
03FFFC00
07FFFF00
0FE07F80
1F801F80
3F000FC0
3E0007E0
7E0007E0
7C0003E0
FC0003F0
FC0003F0
FC0001F0
F80001F0
F80001F0
F80001F0
F80001F8
F80001F8
F80001F8
F80001F0
F80001F0
F80001F0
FC0001F0
FC0003F0
FC0003F0
7C0003E0
7E0007E0
3E0007E0
3F000FC0
1F801F80
0FE07F80
07FFFF00
03FFFC00
01FFF800
003FC000
ENDCHAR
STARTCHAR 00D6
ENCODING 214
SWIDTH 708 0
DWIDTH 34 0
BBX 29 44 3 -1
BITMAP
01E07800
03F0FC00
03F0FC00
03F0FC00
03F0FC00
01E07800
00000000
00000000
00000000
003FC000
01FFF800
03FFFC00
07FFFF00
0FE07F80
1F801F80
3F000FC0
3E0007E0
7E0007E0
7C0003E0
FC0003F0
FC0003F0
FC0001F0
F80001F0
F80001F0
F80001F0
F80001F8
F80001F8
F80001F8
F80001F0
F80001F0
F80001F0
FC0001F0
FC0003F0
FC0003F0
7C0003E0
7E0007E0
3E0007E0
3F000FC0
1F801F80
0FE07F80
07FFFF00
03FFFC00
01FFF800
003FC000
ENDCHAR
STARTCHAR 00D7
ENCODING 215
SWIDTH 604 0
DWIDTH 29 0
BBX 21 21 4 4
BITMAP
100040
3800E0
7C01F0
FE03F8
3F07E0
1F8FC0
1F9F80
0FFF00
07FE00
03FC00
01F800
03FC00
07FE00
0FFF00
1FDF80
1F8FC0
3F07E0
7E03F0
FC01F8
3800E0
100040
ENDCHAR
STARTCHAR 00D8
ENCODING 216
SWIDTH 708 0
DWIDTH 34 0
BBX 29 39 3 -3
BITMAP
00000080
000000E0
003FC1F0
01FFFBE0
03FFFFE0
07FFFFC0
0FE07F80
1F801F80
3F001FC0
3E003FE0
7E003FE0
7C007BE0
7C00FBF0
FC00F1F0
F801E1F0
F803E1F0
F803C1F0
F807C1F0
F80781F8
F80F01F8
F81F01F8
F81E01F0
F83C01F0
F87C01F0
F87801F0
FCF001F0
FDF003F0
7DE003E0
7FE003E0
3FC007C0
3F800FC0
1FC01F80
1FE07F80
3FFFFF00
3FFFFC00
7DFFF800
F83FC000
30000000
10000000
ENDCHAR
STARTCHAR 00D9
ENCODING 217
SWIDTH 687 0
DWIDTH 33 0
BBX 25 47 4 -1
BITMAP
00600000
01F00000
03F00000
01F80000
00F80000
007C0000
007C0000
003E0000
001E0000
00080000
00000000
00000000
F8000F80
F8000F80
F8000F80
F8000F80
F8000F80
F8000F80
F8000F80
F8000F80
F8000F80
F8000F80
F8000F80
F8000F80
F8000F80
F8000F80
F8000F80
F8000F80
F8000F80
F8000F80
F8000F80
F8000F80
F8000F80
F8000F80
F8000F80
F8000F80
F8001F80
FC001F80
7C001F00
7C001F00
7E003F00
3F007E00
3F80FE00
1FFFFC00
0FFFF800
07FFF000
00FF8000
ENDCHAR
STARTCHAR 00DA
ENCODING 218
SWIDTH 687 0
DWIDTH 33 0
BBX 25 47 4 -1
BITMAP
00030000
0007C000
0007E000
000FC000
000F8000
001F0000
001E0000
003E0000
003C0000
00080000
00000000
00000000
F8000F80
F8000F80
F8000F80
F8000F80
F8000F80
F8000F80
F8000F80
F8000F80
F8000F80
F8000F80
F8000F80
F8000F80
F8000F80
F8000F80
F8000F80
F8000F80
F8000F80
F8000F80
F8000F80
F8000F80
F8000F80
F8000F80
F8000F80
F8000F80
F8001F80
FC001F80
7C001F00
7C001F00
7E003F00
3F007E00
3F80FE00
1FFFFC00
0FFFF800
07FFF000
00FF8000
ENDCHAR
STARTCHAR 00DB
ENCODING 219
SWIDTH 687 0
DWIDTH 33 0
BBX 25 47 4 -1
BITMAP
007E0000
007F0000
00FF8000
01FFC000
03F7C000
03E3E000
07C1F000
0F80F800
07007000
02002000
00000000
00000000
F8000F80
F8000F80
F8000F80
F8000F80
F8000F80
F8000F80
F8000F80
F8000F80
F8000F80
F8000F80
F8000F80
F8000F80
F8000F80
F8000F80
F8000F80
F8000F80
F8000F80
F8000F80
F8000F80
F8000F80
F8000F80
F8000F80
F8000F80
F8000F80
F8001F80
FC001F80
7C001F00
7C001F00
7E003F00
3F007E00
3F80FE00
1FFFFC00
0FFFF800
07FFF000
00FF8000
ENDCHAR
STARTCHAR 00DC
ENCODING 220
SWIDTH 687 0
DWIDTH 33 0
BBX 25 44 4 -1
BITMAP
03C1E000
07C3F000
07E3F000
07E3F000
07C3F000
03C1E000
00000000
00000000
00000000
F8000F80
F8000F80
F8000F80
F8000F80
F8000F80
F8000F80
F8000F80
F8000F80
F8000F80
F8000F80
F8000F80
F8000F80
F8000F80
F8000F80
F8000F80
F8000F80
F8000F80
F8000F80
F8000F80
F8000F80
F8000F80
F8000F80
F8000F80
F8000F80
F8001F80
FC001F80
7C001F00
7C001F00
7E003F00
3F007E00
3F80FE00
1FFFFC00
0FFFF800
07FFF000
00FF8000
ENDCHAR
STARTCHAR 00DD
ENCODING 221
SWIDTH 625 0
DWIDTH 30 0
BBX 28 46 1 0
BITMAP
00018000
0001E000
0003F000
0003E000
0007C000
0007C000
000F8000
000F0000
001E0000
00060000
00000000
00000000
FC0003F0
FE0007E0
7E0007E0
3F000FC0
3F000FC0
1F801F80
1F801F00
0FC03F00
0FC03E00
07E07E00
07E0FC00
03F0FC00
01F9F800
01F9F000
00FFF000
00FFE000
007FE000
007FC000
003FC000
001F8000
001F0000
001F0000
001F0000
001F0000
001F0000
001F0000
001F0000
001F0000
001F0000
001F0000
001F0000
001F0000
001F0000
001F0000
ENDCHAR
STARTCHAR 00DE
ENCODING 222
SWIDTH 625 0
DWIDTH 30 0
BBX 24 34 4 0
BITMAP
FC0000
FC0000
FC0000
FC0000
FC0000
FC0000
FFFFC0
FFFFF0
FFFFF8
FFFFFC
FC00FE
FC003E
FC003F
FC003F
FC001F
FC001F
FC001F
FC001F
FC001F
FC003F
FC003F
FC003E
FC00FE
FFFFFC
FFFFF8
FFFFF0
FFFFC0
FC0000
FC0000
FC0000
FC0000
FC0000
FC0000
FC0000
ENDCHAR
STARTCHAR 00DF
ENCODING 223
SWIDTH 666 0
DWIDTH 32 0
BBX 30 37 1 -1
BITMAP
001FE000
007FF800
01FFFE00
03FFFF00
03F03F00
07E00F80
07C00F80
0FC007C0
0F8007C0
0F8007C0
0F8007C0
FF801FC0
FF807FC0
FF81FFC0
FF81FFC0
0F83F000
0F83E000
0F83C000
0F83C000
0F83E000
0F83F000
0F83FC00
0F81FF80
0F80FFE0
0F807FF0
0F800FF8
0F8001F8
0F8000F8
0F80007C
0F80007C
0F8200F8
0F8300F8
0F87C1F8
0F8FFFF0
0F87FFE0
0F83FFC0
00007F00
ENDCHAR
STARTCHAR 00E0
ENCODING 224
SWIDTH 541 0
DWIDTH 26 0
BBX 23 39 2 -1
BITMAP
018000
07C000
0FC000
07E000
03E000
01F000
01F000
00F800
007800
002000
000000
000000
01FC00
0FFF80
1FFFC0
3FFFE0
7E0FE0
7C03F0
3803F0
1001F0
0001F0
0001F0
0001F0
0001F0
03FFF0
1FFFF0
3FFFF0
7E01F0
FC01F0
F801F0
F801F0
F801F0
F801F0
FC03F0
FE0EFE
7FFEFE
3FFCFE
1FF83E
07E000
ENDCHAR
STARTCHAR 00E1
ENCODING 225
SWIDTH 541 0
DWIDTH 26 0
BBX 23 39 2 -1
BITMAP
000C00
001F00
001F80
003F00
003E00
007C00
007800
00F800
00F000
002000
000000
000000
01FC00
0FFF80
1FFFC0
3FFFE0
7E0FE0
7C03F0
3803F0
1001F0
0001F0
0001F0
0001F0
0001F0
03FFF0
1FFFF0
3FFFF0
7E01F0
FC01F0
F801F0
F801F0
F801F0
F801F0
FC03F0
FE0EFE
7FFEFE
3FFCFE
1FF83E
07E000
ENDCHAR
STARTCHAR 00E2
ENCODING 226
SWIDTH 541 0
DWIDTH 26 0
BBX 23 39 2 -1
BITMAP
01FC00
01FC00
03FE00
07FF00
0FDF00
0F8F80
1F07C0
3E03E0
1C01C0
080080
000000
000000
01FC00
0FFF80
1FFFC0
3FFFE0
7E0FE0
7C03F0
3803F0
1001F0
0001F0
0001F0
0001F0
0001F0
03FFF0
1FFFF0
3FFFF0
7E01F0
FC01F0
F801F0
F801F0
F801F0
F801F0
FC03F0
FE0EFE
7FFEFE
3FFCFE
1FF83E
07E000
ENDCHAR
STARTCHAR 00E3
ENCODING 227
SWIDTH 541 0
DWIDTH 26 0
BBX 23 36 2 -1
BITMAP
078080
1FF0C0
3FFFE0
3FFFE0
187FC0
101F00
000000
000000
000000
01FC00
0FFF80
1FFFC0
3FFFE0
7E0FE0
7C03F0
3803F0
1001F0
0001F0
0001F0
0001F0
0001F0
03FFF0
1FFFF0
3FFFF0
7E01F0
FC01F0
F801F0
F801F0
F801F0
F801F0
FC03F0
FE0EFE
7FFEFE
3FFCFE
1FF83E
07E000
ENDCHAR
STARTCHAR 00E4
ENCODING 228
SWIDTH 541 0
DWIDTH 26 0
BBX 23 36 2 -1
BITMAP
0F0780
1F0FC0
1F8FC0
1F8FC0
1F0FC0
0F0780
000000
000000
000000
01FC00
0FFF80
1FFFC0
3FFFE0
7E0FE0
7C03F0
3803F0
1001F0
0001F0
0001F0
0001F0
0001F0
03FFF0
1FFFF0
3FFFF0
7E01F0
FC01F0
F801F0
F801F0
F801F0
F801F0
FC03F0
FE0EFE
7FFEFE
3FFCFE
1FF83E
07E000
ENDCHAR
STARTCHAR 00E5
ENCODING 229
SWIDTH 541 0
DWIDTH 26 0
BBX 23 40 2 -1
BITMAP
00F800
03FE00
07FF00
078F00
0F0780
0F0780
0F0780
0F0780
078F00
07FF00
03FE00
00F800
000000
01FC00
0FFF80
1FFFC0
3FFFE0
7E0FE0
7C03F0
3803F0
1001F0
0001F0
0001F0
0001F0
0001F0
03FFF0
1FFFF0
3FFFF0
7E01F0
FC01F0
F801F0
F801F0
F801F0
F801F0
FC03F0
FE0EFE
7FFEFE
3FFCFE
1FF83E
07E000
ENDCHAR
STARTCHAR 00E6
ENCODING 230
SWIDTH 875 0
DWIDTH 42 0
BBX 37 27 2 -1
BITMAP
01FC01FC00
0FFE07FF00
1FFF8FFFC0
3FFF9FFFE0
7E0FFF07E0
7C03FE03F0
3803FC01F0
1001F801F8
0001F800F8
0001F800F8
0001F000F8
0001F000F8
03FFFFFFF8
1FFFFFFFF8
3FFFFFFFF8
7E01F00000
7C01F00000
F801F00000
F801F80000
F801F80040
F801FC00E0
FC03FE01F0
FE0FBF03F8
7FFF3FFFE0
3FFE1FFFC0
1FFC07FF80
07F001FC00
ENDCHAR
STARTCHAR 00E7
ENCODING 231
SWIDTH 500 0
DWIDTH 24 0
BBX 21 35 2 -9
BITMAP
00FE00
07FF80
0FFFE0
1FFFF0
3F83F0
3E01F8
7E00F0
7C0080
7C0000
FC0000
FC0000
FC0000
FC0000
FC0000
FC0000
FC0000
FC0000
7C0000
7C0040
7E00F0
3E01F8
3F83F0
1FFFF0
0FFFE0
07FFC0
01FE00
007000
007000
007F00
000F80
000780
008780
01FF80
03FF00
00FE00
ENDCHAR
STARTCHAR 00E8
ENCODING 232
SWIDTH 562 0
DWIDTH 27 0
BBX 23 39 2 -1
BITMAP
00C000
03E000
07E000
03F000
01F000
00F800
007800
007C00
003C00
001000
000000
000000
00FE00
03FF80
0FFFE0
1FFFF0
3F83F8
3F01F8
7E00FC
7C007C
7C007C
FC007C
F8007E
FFFFFE
FFFFFE
FFFFFE
F80000
F80000
FC0000
FC0000
7C0020
7C0030
7E0078
3F00FC
3F81F8
1FFFF0
0FFFE0
03FFC0
00FE00
ENDCHAR
STARTCHAR 00E9
ENCODING 233
SWIDTH 562 0
DWIDTH 27 0
BBX 23 39 2 -1
BITMAP
000600
000F80
000FC0
001F80
001F00
003E00
003E00
007C00
007800
001800
000000
000000
00FE00
03FF80
0FFFE0
1FFFF0
3F83F8
3F01F8
7E00FC
7C007C
7C007C
FC007C
F8007E
FFFFFE
FFFFFE
FFFFFE
F80000
F80000
FC0000
FC0000
7C0020
7C0030
7E0078
3F00FC
3F81F8
1FFFF0
0FFFE0
03FFC0
00FE00
ENDCHAR
STARTCHAR 00EA
ENCODING 234
SWIDTH 562 0
DWIDTH 27 0
BBX 23 39 2 -1
BITMAP
007E00
00FE00
01FF00
03FF80
03EFC0
07C7C0
0F83E0
1F01F0
0E00E0
040040
000000
000000
00FE00
03FF80
0FFFE0
1FFFF0
3F83F8
3F01F8
7E00FC
7C007C
7C007C
FC007C
F8007E
FFFFFE
FFFFFE
FFFFFE
F80000
F80000
FC0000
FC0000
7C0020
7C0030
7E0078
3F00FC
3F81F8
1FFFF0
0FFFE0
03FFC0
00FE00
ENDCHAR
STARTCHAR 00EB
ENCODING 235
SWIDTH 562 0
DWIDTH 27 0
BBX 23 36 2 -1
BITMAP
0783C0
0FC3E0
0FC7E0
0FC7E0
0FC3E0
0783C0
000000
000000
000000
00FE00
03FF80
0FFFE0
1FFFF0
3F83F8
3F01F8
7E00FC
7C007C
7C007C
FC007C
F8007E
FFFFFE
FFFFFE
FFFFFE
F80000
F80000
FC0000
FC0000
7C0020
7C0030
7E0078
3F00FC
3F81F8
1FFFF0
0FFFE0
03FFC0
00FE00
ENDCHAR
STARTCHAR 00EC
ENCODING 236
SWIDTH 270 0
DWIDTH 13 0
BBX 9 38 0 0
BITMAP
1800
7C00
FC00
7E00
3E00
1F00
1F00
0F80
0780
0200
0000
0000
0000
0F80
0F80
0F80
0F80
0F80
0F80
0F80
0F80
0F80
0F80
0F80
0F80
0F80
0F80
0F80
0F80
0F80
0F80
0F80
0F80
0F80
0F80
0F80
0F80
0F80
ENDCHAR
STARTCHAR 00ED
ENCODING 237
SWIDTH 270 0
DWIDTH 13 0
BBX 9 38 4 0
BITMAP
0C00
1F00
1F80
3F00
3E00
7C00
7800
F800
F000
2000
0000
0000
0000
F800
F800
F800
F800
F800
F800
F800
F800
F800
F800
F800
F800
F800
F800
F800
F800
F800
F800
F800
F800
F800
F800
F800
F800
F800
ENDCHAR
STARTCHAR 00EE
ENCODING 238
SWIDTH 270 0
DWIDTH 13 0
BBX 17 38 -2 0
BITMAP
07E000
07F000
0FF800
1FFC00
3F7C00
3E3E00
7C1F00
F80F80
700700
200200
000000
000000
000000
03E000
03E000
03E000
03E000
03E000
03E000
03E000
03E000
03E000
03E000
03E000
03E000
03E000
03E000
03E000
03E000
03E000
03E000
03E000
03E000
03E000
03E000
03E000
03E000
03E000
ENDCHAR
STARTCHAR 00EF
ENCODING 239
SWIDTH 270 0
DWIDTH 13 0
BBX 15 35 -1 0
BITMAP
783C
F87E
FC7E
FC7E
F87E
783C
0000
0000
0000
0000
07C0
07C0
07C0
07C0
07C0
07C0
07C0
07C0
07C0
07C0
07C0
07C0
07C0
07C0
07C0
07C0
07C0
07C0
07C0
07C0
07C0
07C0
07C0
07C0
07C0
ENDCHAR
STARTCHAR 00F0
ENCODING 240
SWIDTH 583 0
DWIDTH 28 0
BBX 23 37 2 -1
BITMAP
3FE040
07F1E0
03FBE0
01FF80
007F00
007F00
01FF80
03EFC0
01C7E0
0103E0
0001F0
0001F0
01F8F8
07FEF8
0FFF7C
1FFFFC
3F83FC
3F00FE
7E007E
7C007E
FC007E
FC003E
FC003E
FC003E
FC003E
FC003E
FC003E
FC003E
7C007E
7C007C
7E007C
3F00F8
3F83F8
1FFFF0
0FFFE0
03FFC0
00FE00
ENDCHAR
STARTCHAR 00F1
ENCODING 241
SWIDTH 583 0
DWIDTH 28 0
BBX 20 35 4 0
BITMAP
0F8080
1FF1C0
3FFFC0
3FFFE0
187F80
101F00
000000
000000
000000
007E00
F9FF80
FBFFC0
FBFFE0
FF07E0
FC03F0
F803F0
F801F0
F801F0
F801F0
F801F0
F801F0
F801F0
F801F0
F801F0
F801F0
F801F0
F801F0
F801F0
F801F0
F801F0
F801F0
F801F0
F801F0
F801F0
F801F0
ENDCHAR
STARTCHAR 00F2
ENCODING 242
SWIDTH 562 0
DWIDTH 27 0
BBX 23 39 2 -1
BITMAP
00C000
03E000
07E000
03F000
01F000
00F800
007800
007C00
003C00
001000
000000
000000
00FE00
03FF80
0FFFE0
1FFFF0
1F83F8
3F00F8
7E00FC
7C007C
7C007C
FC007E
FC007E
FC007E
FC007E
FC007E
FC007E
FC007E
FC007E
FC007E
7C007C
7C007C
7E00FC
3F00F8
1F83F8
1FFFF0
0FFFE0
03FF80
00FE00
ENDCHAR
STARTCHAR 00F3
ENCODING 243
SWIDTH 562 0
DWIDTH 27 0
BBX 23 39 2 -1
BITMAP
000600
000F80
000FC0
001F80
001F00
003E00
003E00
007C00
007800
001000
000000
000000
00FE00
03FF80
0FFFE0
1FFFF0
1F83F8
3F00F8
7E00FC
7C007C
7C007C
FC007E
FC007E
FC007E
FC007E
FC007E
FC007E
FC007E
FC007E
FC007E
7C007C
7C007C
7E00FC
3F00F8
1F83F8
1FFFF0
0FFFE0
03FF80
00FE00
ENDCHAR
STARTCHAR 00F4
ENCODING 244
SWIDTH 562 0
DWIDTH 27 0
BBX 23 39 2 -1
BITMAP
007E00
00FE00
01FF00
03FF80
03EFC0
07C7C0
0F83E0
1F01F0
0E00E0
040040
000000
000000
00FE00
03FF80
0FFFE0
1FFFF0
1F83F8
3F00F8
7E00FC
7C007C
7C007C
FC007E
FC007E
FC007E
FC007E
FC007E
FC007E
FC007E
FC007E
FC007E
7C007C
7C007C
7E00FC
3F00F8
1F83F8
1FFFF0
0FFFE0
03FF80
00FE00
ENDCHAR
STARTCHAR 00F5
ENCODING 245
SWIDTH 562 0
DWIDTH 27 0
BBX 23 36 2 -1
BITMAP
03C040
0FF860
1FFFF0
1FFFF0
0C3FE0
080780
000000
000000
000000
00FE00
03FF80
0FFFE0
1FFFF0
1F83F8
3F00F8
7E00FC
7C007C
7C007C
FC007E
FC007E
FC007E
FC007E
FC007E
FC007E
FC007E
FC007E
FC007E
7C007C
7C007C
7E00FC
3F00F8
1F83F8
1FFFF0
0FFFE0
03FF80
00FE00
ENDCHAR
STARTCHAR 00F6
ENCODING 246
SWIDTH 562 0
DWIDTH 27 0
BBX 23 36 2 -1
BITMAP
0783C0
0FC3E0
0FC7E0
0FC7E0
0FC3E0
0783C0
000000
000000
000000
00FE00
03FF80
0FFFE0
1FFFF0
1F83F8
3F00F8
7E00FC
7C007C
7C007C
FC007E
FC007E
FC007E
FC007E
FC007E
FC007E
FC007E
FC007E
FC007E
7C007C
7C007C
7E00FC
3F00F8
1F83F8
1FFFF0
0FFFE0
03FF80
00FE00
ENDCHAR
STARTCHAR 00F7
ENCODING 247
SWIDTH 604 0
DWIDTH 29 0
BBX 23 26 3 2
BITMAP
007C00
00FE00
00FE00
00FE00
00FE00
00FE00
007C00
000000
000000
000000
000000
FFFFFE
FFFFFE
FFFFFE
FFFFFE
000000
000000
000000
000000
007C00
00FE00
00FE00
00FE00
00FE00
00FE00
007C00
ENDCHAR
STARTCHAR 00F8
ENCODING 248
SWIDTH 562 0
DWIDTH 27 0
BBX 25 29 1 -2
BITMAP
00000700
007F0780
01FFCF00
07FFFF00
0FFFFE00
0FC1FC00
1F80FC00
1F00FE00
3E01FE00
3E03FF00
3E03DF00
7E079F00
7E0F1F00
7E1F1F00
7E1E1F00
7E3C1F00
7E781F00
7EF01F00
3EF01F00
3FE03F00
3FC03E00
3F803E00
1F807C00
1FC1FC00
3FFFF800
3FFFF000
7DFFC000
F87F0000
30000000
ENDCHAR
STARTCHAR 00F9
ENCODING 249
SWIDTH 583 0
DWIDTH 28 0
BBX 21 39 3 -1
BITMAP
00C000
03C000
07E000
03E000
03F000
01F000
00F800
007800
007C00
002000
000000
000000
000000
FC00F8
FC00F8
FC00F8
FC00F8
FC00F8
FC00F8
FC00F8
FC00F8
FC00F8
FC00F8
FC00F8
FC00F8
FC00F8
FC00F8
FC00F8
FC00F8
FC00F8
7C00F8
7C00F8
7C01F8
7E01F8
7F07F8
3FFEF8
1FFEF8
0FFCF8
07F000
ENDCHAR
STARTCHAR 00FA
ENCODING 250
SWIDTH 583 0
DWIDTH 28 0
BBX 21 39 3 -1
BITMAP
000C00
000F00
001F80
001F00
003E00
003E00
007C00
007800
00F000
003000
000000
000000
000000
FC00F8
FC00F8
FC00F8
FC00F8
FC00F8
FC00F8
FC00F8
FC00F8
FC00F8
FC00F8
FC00F8
FC00F8
FC00F8
FC00F8
FC00F8
FC00F8
FC00F8
7C00F8
7C00F8
7C01F8
7E01F8
7F07F8
3FFEF8
1FFEF8
0FFCF8
07F000
ENDCHAR
STARTCHAR 00FB
ENCODING 251
SWIDTH 583 0
DWIDTH 28 0
BBX 21 39 3 -1
BITMAP
00FC00
01FE00
03FE00
03FF00
07DF80
0F8FC0
1F07C0
1F03E0
3E01C0
040080
000000
000000
000000
FC00F8
FC00F8
FC00F8
FC00F8
FC00F8
FC00F8
FC00F8
FC00F8
FC00F8
FC00F8
FC00F8
FC00F8
FC00F8
FC00F8
FC00F8
FC00F8
FC00F8
7C00F8
7C00F8
7C01F8
7E01F8
7F07F8
3FFEF8
1FFEF8
0FFCF8
07F000
ENDCHAR
STARTCHAR 00FC
ENCODING 252
SWIDTH 583 0
DWIDTH 28 0
BBX 21 36 3 -1
BITMAP
0F03C0
1F87C0
1F87E0
1F87E0
1F87C0
0F03C0
000000
000000
000000
000000
FC00F8
FC00F8
FC00F8
FC00F8
FC00F8
FC00F8
FC00F8
FC00F8
FC00F8
FC00F8
FC00F8
FC00F8
FC00F8
FC00F8
FC00F8
FC00F8
FC00F8
7C00F8
7C00F8
7C01F8
7E01F8
7F07F8
3FFEF8
1FFEF8
0FFCF8
07F000
ENDCHAR
STARTCHAR 00FD
ENCODING 253
SWIDTH 520 0
DWIDTH 25 0
BBX 23 48 1 -10
BITMAP
000600
000F80
000FC0
001F80
001F00
003E00
003C00
007C00
007800
001000
000000
000000
000000
F8003E
F8003E
FC007C
7C007C
7C007C
7E00F8
3E00F8
3E00F8
3F01F0
1F01F0
1F01E0
1F83E0
0F83E0
0F83C0
0FC7C0
07C7C0
07C780
03CF80
03EF80
03EF00
01EF00
01FF00
01FE00
00FE00
00FE00
00FC00
007C00
00FC00
00F800
00F800
01F800
1FF000
1FF000
1FE000
1F8000
ENDCHAR
STARTCHAR 00FE
ENCODING 254
SWIDTH 583 0
DWIDTH 28 0
BBX 22 46 4 -10
BITMAP
F80000
F80000
F80000
F80000
F80000
F80000
F80000
F80000
F80000
F80000
F87F00
F9FF80
FBFFE0
FBFFF0
FF07F0
FC01F8
FC01F8
F800F8
F800FC
F8007C
F8007C
F8007C
F8007C
F8007C
F8007C
F8007C
F8007C
F8007C
F800FC
F800F8
FC01F8
FC01F8
FF07F0
FBFFF0
FBFFE0
F9FF80
F87F00
F80000
F80000
F80000
F80000
F80000
F80000
F80000
F80000
F80000
ENDCHAR
STARTCHAR 00FF
ENCODING 255
SWIDTH 520 0
DWIDTH 25 0
BBX 23 45 1 -10
BITMAP
0783C0
0F87E0
0FC7E0
0FC7E0
0F87E0
0783C0
000000
000000
000000
000000
F8003E
F8003E
FC007C
7C007C
7C007C
7E00F8
3E00F8
3E00F8
3F01F0
1F01F0
1F01E0
1F83E0
0F83E0
0F83C0
0FC7C0
07C7C0
07C780
03CF80
03EF80
03EF00
01EF00
01FF00
01FE00
00FE00
00FE00
00FC00
007C00
00FC00
00F800
00F800
01F800
1FF000
1FF000
1FE000
1F8000
ENDCHAR
STARTCHAR 0100
ENCODING 256
SWIDTH 666 0
DWIDTH 32 0
BBX 30 42 1 0
BITMAP
00FFFC00
00FFFC00
00FFFC00
00FFFC00
00000000
00000000
00000000
00000000
001FC000
001FE000
001FE000
003FE000
003FF000
003DF000
007DF000
007CF800
007CF800
00F8F800
00F87C00
00F87C00
01F07E00
01F07E00
01F03E00
03E03F00
03E03F00
03E01F00
07E01F80
07C01F80
07C00F80
0FFFFFC0
0FFFFFC0
0FFFFFC0
1FFFFFE0
1F0007E0
1F0003E0
3F0003F0
3E0003F0
3E0001F0
7E0001F8
7C0001F8
7C0000F8
FC0000FC
ENDCHAR
STARTCHAR 0101
ENCODING 257
SWIDTH 541 0
DWIDTH 26 0
BBX 23 35 2 -1
BITMAP
1FFF80
1FFF80
1FFF80
1FFF80
000000
000000
000000
000000
01FC00
0FFF80
1FFFC0
3FFFE0
7E0FE0
7C03F0
3803F0
1001F0
0001F0
0001F0
0001F0
0001F0
03FFF0
1FFFF0
3FFFF0
7E01F0
FC01F0
F801F0
F801F0
F801F0
F801F0
FC03F0
FE0EFE
7FFEFE
3FFCFE
1FF83E
07E000
ENDCHAR
STARTCHAR 0102
ENCODING 258
SWIDTH 666 0
DWIDTH 32 0
BBX 30 45 1 0
BITMAP
00400800
01C01E00
01E01E00
01F03C00
00F87C00
00FFF800
007FF000
003FE000
000FC000
00000000
00000000
001FC000
001FE000
001FE000
003FE000
003FF000
003DF000
007DF000
007CF800
007CF800
00F8F800
00F87C00
00F87C00
01F07E00
01F07E00
01F03E00
03E03F00
03E03F00
03E01F00
07E01F80
07C01F80
07C00F80
0FFFFFC0
0FFFFFC0
0FFFFFC0
1FFFFFE0
1F0007E0
1F0003E0
3F0003F0
3E0003F0
3E0001F0
7E0001F8
7C0001F8
7C0000F8
FC0000FC
ENDCHAR
STARTCHAR 0103
ENCODING 259
SWIDTH 541 0
DWIDTH 26 0
BBX 23 38 2 -1
BITMAP
0C0180
3C01C0
1E03E0
1E07C0
1F0F80
0FFF80
07FF00
03FE00
00F800
000000
000000
01FC00
0FFF80
1FFFC0
3FFFE0
7E0FE0
7C03F0
3803F0
1001F0
0001F0
0001F0
0001F0
0001F0
03FFF0
1FFFF0
3FFFF0
7E01F0
FC01F0
F801F0
F801F0
F801F0
F801F0
FC03F0
FE0EFE
7FFEFE
3FFCFE
1FF83E
07E000
ENDCHAR
STARTCHAR 0104
ENCODING 260
SWIDTH 666 0
DWIDTH 32 0
BBX 31 44 1 -10
BITMAP
001FC000
001FE000
001FE000
003FE000
003FF000
003DF000
007DF000
007CF800
007CF800
00F8F800
00F87C00
00F87C00
01F07E00
01F07E00
01F03E00
03E03F00
03E03F00
03E01F00
07E01F80
07C01F80
07C00F80
0FFFFFC0
0FFFFFC0
0FFFFFC0
1FFFFFE0
1F0007E0
1F0003E0
3F0003F0
3E0003F0
3E0001F0
7E0001F8
7C0001F8
7C0000F8
FC0000FC
00000038
000000F0
000001E0
000003C0
00000780
00000780
00000788
000007FC
000003FE
000001F8
ENDCHAR
STARTCHAR 0105
ENCODING 261
SWIDTH 541 0
DWIDTH 26 0
BBX 24 36 2 -10
BITMAP
01FC00
0FFF80
1FFFC0
3FFFE0
7E0FE0
7C03F0
3803F0
1001F0
0001F0
0001F0
0001F0
0001F0
03FFF0
1FFFF0
3FFFF0
7E01F0
FC01F0
F801F0
F801F0
F801F0
F801F0
FC03F0
FE0EFE
7FFEFE
3FFCFE
1FF83E
07E01C
000078
0000F0
0001E0
0003C0
0003C0
0003C6
0003FF
0001FF
0000FC
ENDCHAR
STARTCHAR 0106
ENCODING 262
SWIDTH 625 0
DWIDTH 30 0
BBX 26 47 3 -1
BITMAP
00018000
0003E000
0003F000
0007E000
0007C000
000F8000
000F8000
001F0000
001E0000
00040000
00000000
00000000
003FC000
01FFF800
07FFFC00
0FFFFE00
1FE07F00
1F803F80
3F000FC0
3E000F00
7E000400
7C000000
FC000000
FC000000
FC000000
F8000000
F8000000
F8000000
F8000000
F8000000
F8000000
F8000000
F8000000
F8000000
FC000000
FC000000
FC000000
7C000400
7E000600
7E000F80
3F000FC0
1F801F80
1FE07F00
0FFFFE00
07FFFC00
01FFF800
007FC000
ENDCHAR
STARTCHAR 0107
ENCODING 263
SWIDTH 500 0
DWIDTH 24 0
BBX 21 39 2 -1
BITMAP
000400
000F80
000F80
001F00
001F00
003E00
003C00
007C00
007800
001000
000000
000000
00FE00
03FF80
0FFFE0
1FFFF0
3F83F0
3E01F8
7E00F0
7C0080
7C0000
FC0000
FC0000
FC0000
FC0000
FC0000
FC0000
FC0000
FC0000
FC0000
7C0000
7C0040
7E00F0
3E01F8
3F83F0
1FFFF0
0FFFE0
07FF80
00FE00
ENDCHAR
STARTCHAR 0108
ENCODING 264
SWIDTH 625 0
DWIDTH 30 0
BBX 26 47 3 -1
BITMAP
001F8000
003F8000
007FC000
00FFE000
00FBF000
01F1F000
03E0F800
07C07C00
03803800
01001000
00000000
00000000
003FC000
01FFF800
07FFFC00
0FFFFE00
1FE07F00
1F803F80
3F000FC0
3E000F00
7E000400
7C000000
FC000000
FC000000
FC000000
F8000000
F8000000
F8000000
F8000000
F8000000
F8000000
F8000000
F8000000
F8000000
FC000000
FC000000
FC000000
7C000400
7E000600
7E000F80
3F000FC0
1F801F80
1FE07F00
0FFFFE00
07FFFC00
01FFF800
007FC000
ENDCHAR
STARTCHAR 0109
ENCODING 265
SWIDTH 500 0
DWIDTH 24 0
BBX 21 39 2 -1
BITMAP
00FC00
00FE00
01FF00
03FF80
07EF80
07C7C0
0F83E0
1F01E0
0E00F0
040040
000000
000000
00FE00
03FF80
0FFFE0
1FFFF0
3F83F0
3E01F8
7E00F0
7C0080
7C0000
FC0000
FC0000
FC0000
FC0000
FC0000
FC0000
FC0000
FC0000
FC0000
7C0000
7C0040
7E00F0
3E01F8
3F83F0
1FFFF0
0FFFE0
07FF80
00FE00
ENDCHAR
STARTCHAR 010A
ENCODING 266
SWIDTH 625 0
DWIDTH 30 0
BBX 26 45 3 -1
BITMAP
001F0000
001F8000
003F8000
003F8000
003F8000
001F8000
001F0000
00000000
00000000
00000000
003FC000
01FFF800
07FFFC00
0FFFFE00
1FE07F00
1F803F80
3F000FC0
3E000F00
7E000400
7C000000
FC000000
FC000000
FC000000
F8000000
F8000000
F8000000
F8000000
F8000000
F8000000
F8000000
F8000000
F8000000
FC000000
FC000000
FC000000
7C000400
7E000600
7E000F80
3F000FC0
1F801F80
1FE07F00
0FFFFE00
07FFFC00
01FFF800
007FC000
ENDCHAR
STARTCHAR 010B
ENCODING 267
SWIDTH 500 0
DWIDTH 24 0
BBX 21 36 2 -1
BITMAP
007800
00FC00
00FC00
00FE00
00FC00
007800
000000
000000
000000
00FE00
03FF80
0FFFE0
1FFFF0
3F83F0
3E01F8
7E00F0
7C0080
7C0000
FC0000
FC0000
FC0000
FC0000
FC0000
FC0000
FC0000
FC0000
FC0000
7C0000
7C0040
7E00F0
3E01F8
3F83F0
1FFFF0
0FFFE0
07FF80
00FE00
ENDCHAR
STARTCHAR 010C
ENCODING 268
SWIDTH 625 0
DWIDTH 30 0
BBX 26 47 3 -1
BITMAP
01001000
03803800
07C07C00
03E0F800
01F1F000
00FBF000
00FFE000
007FC000
003F8000
001F8000
00000000
00000000
003FC000
01FFF800
07FFFC00
0FFFFE00
1FE07F00
1F803F80
3F000FC0
3E000F00
7E000400
7C000000
FC000000
FC000000
FC000000
F8000000
F8000000
F8000000
F8000000
F8000000
F8000000
F8000000
F8000000
F8000000
FC000000
FC000000
FC000000
7C000400
7E000600
7E000F80
3F000FC0
1F801F80
1FE07F00
0FFFFE00
07FFFC00
01FFF800
007FC000
ENDCHAR
STARTCHAR 010D
ENCODING 269
SWIDTH 500 0
DWIDTH 24 0
BBX 21 40 2 -1
BITMAP
040040
0E00E0
1F01F0
0F83E0
07C7C0
07EF80
03FF80
01FF00
00FE00
00FC00
000000
000000
000000
00FE00
03FF80
0FFFE0
1FFFF0
3F83F0
3E01F8
7E00F0
7C0080
7C0000
FC0000
FC0000
FC0000
FC0000
FC0000
FC0000
FC0000
FC0000
FC0000
7C0000
7C0040
7E00F0
3E01F8
3F83F0
1FFFF0
0FFFE0
07FF80
00FE00
ENDCHAR
STARTCHAR 010E
ENCODING 270
SWIDTH 687 0
DWIDTH 33 0
BBX 26 46 4 0
BITMAP
04008000
0E01E000
1F03E000
0F87E000
0FCFC000
07EF8000
03FF0000
01FF0000
01FE0000
00FC0000
00000000
00000000
FFFF0000
FFFFE000
FFFFF000
FFFFFC00
FC01FC00
FC007E00
FC003F00
FC001F00
FC001F80
FC000F80
FC000F80
FC000FC0
FC000FC0
FC000FC0
FC000FC0
FC000FC0
FC000FC0
FC000FC0
FC000FC0
FC000FC0
FC000FC0
FC000FC0
FC000FC0
FC000F80
FC000F80
FC001F80
FC001F00
FC003F00
FC007E00
FC01FC00
FFFFFC00
FFFFF000
FFFFE000
FFFF0000
ENDCHAR
STARTCHAR 010F
ENCODING 271
SWIDTH 645 0
DWIDTH 31 0
BBX 32 37 2 -1
BITMAP
00007E3F
00007E3E
00007E3E
00007E3E
00007E3C
00007E3C
00007E7C
00007E78
00007E78
00007E78
01F87E00
07FE7E00
0FFF7E00
1FFFFE00
3F83FE00
3F00FE00
7E007E00
7C007E00
7C007E00
7C007E00
FC007E00
FC007E00
FC007E00
FC007E00
FC007E00
FC007E00
FC007E00
7C007E00
7C007E00
7C007E00
7E007E00
3F00FE00
3F83FE00
1FFFFE00
0FFF7E00
07FE7E00
01F80000
ENDCHAR
STARTCHAR 0110
ENCODING 272
SWIDTH 687 0
DWIDTH 33 0
BBX 29 34 1 0
BITMAP
1FFFE000
1FFFFC00
1FFFFF00
1FFFFF80
1F803FC0
1F800FC0
1F8007E0
1F8003F0
1F8003F0
1F8001F0
1F8001F8
1F8001F8
1F8001F8
1F8000F8
FFFE00F8
FFFE00F8
FFFE00F8
FFFE00F8
1F8000F8
1F8000F8
1F8000F8
1F8001F8
1F8001F8
1F8001F8
1F8001F0
1F8003F0
1F8003F0
1F8007E0
1F800FC0
1F803FC0
1FFFFF80
1FFFFF00
1FFFFC00
1FFFE000
ENDCHAR
STARTCHAR 0111
ENCODING 273
SWIDTH 604 0
DWIDTH 29 0
BBX 26 37 2 -1
BITMAP
00007E00
00007E00
00007E00
00007E00
003FFFC0
003FFFC0
003FFFC0
00007E00
00007E00
00007E00
01F87E00
07FE7E00
0FFF7E00
1FFFFE00
3F83FE00
3F00FE00
7E007E00
7C007E00
7C007E00
7C007E00
FC007E00
FC007E00
FC007E00
FC007E00
FC007E00
FC007E00
FC007E00
7C007E00
7C007E00
7C007E00
7E007E00
3F00FE00
3F83FE00
1FFFFE00
0FFF7E00
07FE7E00
01F80000
ENDCHAR
STARTCHAR 0112
ENCODING 274
SWIDTH 583 0
DWIDTH 28 0
BBX 22 42 4 0
BITMAP
0FFFC0
0FFFC0
0FFFC0
0FFFC0
000000
000000
000000
000000
FFFFFC
FFFFFC
FFFFFC
FFFFFC
FC0000
FC0000
FC0000
FC0000
FC0000
FC0000
FC0000
FC0000
FC0000
FC0000
FC0000
FFFFF0
FFFFF0
FFFFF0
FFFFF0
FC0000
FC0000
FC0000
FC0000
FC0000
FC0000
FC0000
FC0000
FC0000
FC0000
FC0000
FFFFFC
FFFFFC
FFFFFC
FFFFFC
ENDCHAR
STARTCHAR 0113
ENCODING 275
SWIDTH 562 0
DWIDTH 27 0
BBX 23 35 2 -1
BITMAP
07FFE0
07FFE0
07FFE0
07FFE0
000000
000000
000000
000000
00FE00
03FF80
0FFFE0
1FFFF0
3F83F8
3F01F8
7E00FC
7C007C
7C007C
FC007C
F8007E
FFFFFE
FFFFFE
FFFFFE
F80000
F80000
FC0000
FC0000
7C0020
7C0030
7E0078
3F00FC
3F81F8
1FFFF0
0FFFE0
03FFC0
00FE00
ENDCHAR
STARTCHAR 0114
ENCODING 276
SWIDTH 583 0
DWIDTH 28 0
BBX 22 45 4 0
BITMAP
040080
1C01E0
1E01E0
1F03C0
0F87C0
0FFF80
07FF00
03FE00
00FC00
000000
000000
FFFFFC
FFFFFC
FFFFFC
FFFFFC
FC0000
FC0000
FC0000
FC0000
FC0000
FC0000
FC0000
FC0000
FC0000
FC0000
FC0000
FFFFF0
FFFFF0
FFFFF0
FFFFF0
FC0000
FC0000
FC0000
FC0000
FC0000
FC0000
FC0000
FC0000
FC0000
FC0000
FC0000
FFFFFC
FFFFFC
FFFFFC
FFFFFC
ENDCHAR
STARTCHAR 0115
ENCODING 277
SWIDTH 562 0
DWIDTH 27 0
BBX 23 38 2 -1
BITMAP
0600C0
0E00F0
0F01E0
0F81E0
07C3E0
07FFC0
03FF80
01FF00
007C00
000000
000000
00FE00
03FF80
0FFFE0
1FFFF0
3F83F8
3F01F8
7E00FC
7C007C
7C007C
FC007C
F8007E
FFFFFE
FFFFFE
FFFFFE
F80000
F80000
FC0000
FC0000
7C0020
7C0030
7E0078
3F00FC
3F81F8
1FFFF0
0FFFE0
03FFC0
00FE00
ENDCHAR
STARTCHAR 0116
ENCODING 278
SWIDTH 583 0
DWIDTH 28 0
BBX 22 44 4 0
BITMAP
007800
00FC00
01FC00
01FC00
00FC00
00FC00
007800
000000
000000
000000
FFFFFC
FFFFFC
FFFFFC
FFFFFC
FC0000
FC0000
FC0000
FC0000
FC0000
FC0000
FC0000
FC0000
FC0000
FC0000
FC0000
FFFFF0
FFFFF0
FFFFF0
FFFFF0
FC0000
FC0000
FC0000
FC0000
FC0000
FC0000
FC0000
FC0000
FC0000
FC0000
FC0000
FFFFFC
FFFFFC
FFFFFC
FFFFFC
ENDCHAR
STARTCHAR 0117
ENCODING 279
SWIDTH 562 0
DWIDTH 27 0
BBX 23 36 2 -1
BITMAP
007C00
007E00
00FE00
00FE00
007E00
007C00
000000
000000
000000
00FE00
03FF80
0FFFE0
1FFFF0
3F83F8
3F01F8
7E00FC
7C007C
7C007C
FC007C
F8007E
FFFFFE
FFFFFE
FFFFFE
F80000
F80000
FC0000
FC0000
7C0020
7C0030
7E0078
3F00FC
3F81F8
1FFFF0
0FFFE0
03FFC0
00FE00
ENDCHAR
STARTCHAR 0118
ENCODING 280
SWIDTH 583 0
DWIDTH 28 0
BBX 23 44 4 -10
BITMAP
FFFFFC
FFFFFC
FFFFFC
FFFFFC
FC0000
FC0000
FC0000
FC0000
FC0000
FC0000
FC0000
FC0000
FC0000
FC0000
FC0000
FFFFF0
FFFFF0
FFFFF0
FFFFF0
FC0000
FC0000
FC0000
FC0000
FC0000
FC0000
FC0000
FC0000
FC0000
FC0000
FC0000
FFFFFC
FFFFFC
FFFFFC
FFFFFC
000038
0000F0
0001E0
0003C0
000780
000780
000788
0007FC
0003FE
0001F8
ENDCHAR
STARTCHAR 0119
ENCODING 281
SWIDTH 562 0
DWIDTH 27 0
BBX 23 36 2 -10
BITMAP
00FE00
03FF80
0FFFE0
1FFFF0
3F83F8
3E01F8
7E00FC
7C007C
7C007C
FC007C
F8007C
FFFFFE
FFFFFE
FFFFFE
F80000
F80000
FC0000
FC0000
7C0020
7C0030
7E0078
3F00F8
3F81FC
1FFFF0
0FFFE0
03FFC0
00FF80
000700
000E00
001C00
003C00
003800
003C40
003FE0
003FF0
000FC0
ENDCHAR
STARTCHAR 011A
ENCODING 282
SWIDTH 583 0
DWIDTH 28 0
BBX 22 46 4 0
BITMAP
0C0080
1E01C0
3F03E0
1F07C0
0F8FC0
07DF80
03FF00
03FE00
01FE00
00FC00
000000
000000
FFFFFC
FFFFFC
FFFFFC
FFFFFC
FC0000
FC0000
FC0000
FC0000
FC0000
FC0000
FC0000
FC0000
FC0000
FC0000
FC0000
FFFFF0
FFFFF0
FFFFF0
FFFFF0
FC0000
FC0000
FC0000
FC0000
FC0000
FC0000
FC0000
FC0000
FC0000
FC0000
FC0000
FFFFFC
FFFFFC
FFFFFC
FFFFFC
ENDCHAR
STARTCHAR 011B
ENCODING 283
SWIDTH 562 0
DWIDTH 27 0
BBX 23 40 2 -1
BITMAP
040040
0E00E0
1F01F0
0F83E0
07C7C0
03EFC0
03FF80
01FF00
00FE00
007E00
000000
000000
000000
00FE00
03FF80
0FFFE0
1FFFF0
3F83F8
3F01F8
7E00FC
7C007C
7C007C
FC007C
F8007E
FFFFFE
FFFFFE
FFFFFE
F80000
F80000
FC0000
FC0000
7C0020
7C0030
7E0078
3F00FC
3F81F8
1FFFF0
0FFFE0
03FFC0
00FE00
ENDCHAR
STARTCHAR 011C
ENCODING 284
SWIDTH 708 0
DWIDTH 34 0
BBX 27 47 3 -1
BITMAP
001F8000
003FC000
003FE000
007FE000
00FDF000
01F8F800
01F0FC00
03E07C00
01C03E00
00801000
00000000
00000000
003FC000
00FFF800
03FFFE00
07FFFF00
0FE07F80
1F801FC0
3F000FC0
3E0007E0
7E000380
7C000200
7C000000
FC000000
FC000000
F8000000
F8000000
F8000000
F8000000
F801FFE0
F801FFE0
F801FFE0
F801FFE0
F80003E0
FC0003E0
FC0003E0
FC0003E0
7C0003E0
7E0003E0
3E0007E0
3F0007E0
1F801FE0
0FE07DE0
0FFFFDE0
03FFF9E0
01FFF1E0
003F8000
ENDCHAR
STARTCHAR 011D
ENCODING 285
SWIDTH 541 0
DWIDTH 26 0
BBX 24 48 2 -10
BITMAP
00FC00
01FE00
03FE00
03FF00
07DF80
0FCFC0
1F87C0
1F03E0
1E01C0
040080
000000
000000
01FC00
07FFFE
0FFFFE
1FFFFE
3F07FE
3E01F0
7C01F0
7C00F8
7C00F8
7C00F8
7C00F8
7C01F8
7E01F0
3F03F0
1FFFE0
1FFFC0
07FF80
0FFE00
3C0000
780000
780000
7C0000
7FFFE0
3FFFF8
1FFFFC
0FFFFE
78007E
F0003F
F0001F
F0001F
F8003E
FC00FE
FFFFFC
7FFFFC
3FFFF0
07FF80
ENDCHAR
STARTCHAR 011E
ENCODING 286
SWIDTH 708 0
DWIDTH 34 0
BBX 27 46 3 -1
BITMAP
00801000
03C03C00
03C03C00
01E07800
01F0F800
00FFF000
00FFF000
007FE000
001F8000
00000000
00000000
003FC000
00FFF800
03FFFE00
07FFFF00
0FE07F80
1F801FC0
3F000FC0
3E0007E0
7E000380
7C000200
7C000000
FC000000
FC000000
F8000000
F8000000
F8000000
F8000000
F801FFE0
F801FFE0
F801FFE0
F801FFE0
F80003E0
FC0003E0
FC0003E0
FC0003E0
7C0003E0
7E0003E0
3E0007E0
3F0007E0
1F801FE0
0FE07DE0
0FFFFDE0
03FFF9E0
01FFF1E0
003F8000
ENDCHAR
STARTCHAR 011F
ENCODING 287
SWIDTH 541 0
DWIDTH 26 0
BBX 24 47 2 -10
BITMAP
040080
1E01E0
1E01E0
0F03C0
0F87C0
07FF80
07FF80
03FE00
00FC00
000000
000000
01FC00
07FFFE
0FFFFE
1FFFFE
3F07FE
3E01F0
7C01F0
7C00F8
7C00F8
7C00F8
7C00F8
7C01F8
7E01F0
3F03F0
1FFFE0
1FFFC0
07FF80
0FFE00
3C0000
780000
780000
7C0000
7FFFE0
3FFFF8
1FFFFC
0FFFFE
78007E
F0003F
F0001F
F0001F
F8003E
FC00FE
FFFFFC
7FFFFC
3FFFF0
07FF80
ENDCHAR
STARTCHAR 0120
ENCODING 288
SWIDTH 708 0
DWIDTH 34 0
BBX 27 45 3 -1
BITMAP
000F0000
001F8000
001F8000
001FC000
001F8000
001F8000
000F0000
00000000
00000000
00000000
003FC000
00FFF800
03FFFE00
07FFFF00
0FE07F80
1F801FC0
3F000FC0
3E0007E0
7E000380
7C000200
7C000000
FC000000
FC000000
F8000000
F8000000
F8000000
F8000000
F801FFE0
F801FFE0
F801FFE0
F801FFE0
F80003E0
FC0003E0
FC0003E0
FC0003E0
7C0003E0
7E0003E0
3E0007E0
3F0007E0
1F801FE0
0FE07DE0
0FFFFDE0
03FFF9E0
01FFF1E0
003F8000
ENDCHAR
STARTCHAR 0121
ENCODING 289
SWIDTH 541 0
DWIDTH 26 0
BBX 24 45 2 -10
BITMAP
007800
00FC00
00FC00
00FC00
00FC00
007800
000000
000000
000000
01FC00
07FFFE
0FFFFE
1FFFFE
3F07FE
3E01F0
7C01F0
7C00F8
7C00F8
7C00F8
7C00F8
7C01F8
7E01F0
3F03F0
1FFFE0
1FFFC0
07FF80
0FFE00
3C0000
780000
780000
7C0000
7FFFE0
3FFFF8
1FFFFC
0FFFFE
78007E
F0003F
F0001F
F0001F
F8003E
FC00FE
FFFFFC
7FFFFC
3FFFF0
07FF80
ENDCHAR
STARTCHAR 0122
ENCODING 290
SWIDTH 708 0
DWIDTH 34 0
BBX 27 47 3 -13
BITMAP
003FC000
00FFF800
03FFFE00
07FFFF00
0FE07F80
1F801FC0
3F000FC0
3E0007E0
7E000380
7C000200
7C000000
FC000000
FC000000
F8000000
F8000000
F8000000
F8000000
F801FFE0
F801FFE0
F801FFE0
F801FFE0
F80003E0
FC0003E0
FC0003E0
FC0003E0
7C0003E0
7E0003E0
3E0007E0
3F0007E0
1F801FE0
0FE07DE0
0FFFFDE0
03FFF9E0
01FFF1E0
003F8000
00000000
00000000
000F0000
001F0000
001F8000
001F8000
001F0000
000F0000
00070000
000E0000
000E0000
003C0000
ENDCHAR
STARTCHAR 0123
ENCODING 291
SWIDTH 541 0
DWIDTH 26 0
BBX 24 49 2 -10
BITMAP
001C00
003800
007000
007000
00F800
00FC00
00FC00
00FC00
00FC00
007800
000000
000000
000000
01FC00
07FFFE
0FFFFE
1FFFFE
3F07FE
3E01F0
7C01F0
7C00F8
7C00F8
7C00F8
7C00F8
7C01F8
7E01F0
3F03F0
1FFFE0
1FFFC0
07FF80
0FFE00
3C0000
780000
780000
7C0000
7FFFE0
3FFFF8
1FFFFC
0FFFFE
78007E
F0003F
F0001F
F0001F
F8003E
FC00FE
FFFFFC
7FFFFC
3FFFF0
07FF80
ENDCHAR
STARTCHAR 0124
ENCODING 292
SWIDTH 708 0
DWIDTH 34 0
BBX 26 46 4 0
BITMAP
003F0000
007F8000
007FC000
00FFC000
01FBE000
03F1F000
03E1F800
07C0F800
03807C00
01002000
00000000
00000000
FC0007C0
FC0007C0
FC0007C0
FC0007C0
FC0007C0
FC0007C0
FC0007C0
FC0007C0
FC0007C0
FC0007C0
FC0007C0
FC0007C0
FC0007C0
FC0007C0
FC0007C0
FFFFFFC0
FFFFFFC0
FFFFFFC0
FFFFFFC0
FC0007C0
FC0007C0
FC0007C0
FC0007C0
FC0007C0
FC0007C0
FC0007C0
FC0007C0
FC0007C0
FC0007C0
FC0007C0
FC0007C0
FC0007C0
FC0007C0
FC0007C0
ENDCHAR
STARTCHAR 0125
ENCODING 293
SWIDTH 583 0
DWIDTH 28 0
BBX 26 46 -2 0
BITMAP
07F00000
07F00000
0FF80000
1FFC0000
3F7C0000
3E3E0000
7C1F0000
F80F8000
70070000
20020000
03E00000
03E00000
03E00000
03E00000
03E00000
03E00000
03E00000
03E00000
03E00000
03E00000
03E1F800
03E7FE00
03EFFF00
03EFFF80
03FC1F80
03F00FC0
03E00FC0
03E007C0
03E007C0
03E007C0
03E007C0
03E007C0
03E007C0
03E007C0
03E007C0
03E007C0
03E007C0
03E007C0
03E007C0
03E007C0
03E007C0
03E007C0
03E007C0
03E007C0
03E007C0
03E007C0
ENDCHAR
STARTCHAR 0126
ENCODING 294
SWIDTH 729 0
DWIDTH 35 0
BBX 33 34 1 0
BITMAP
1F8000F800
1F8000F800
1F8000F800
1F8000F800
1F8000F800
FFFFFFFF80
FFFFFFFF80
FFFFFFFF80
FFFFFFFF80
1F8000F800
1F8000F800
1F8000F800
1F8000F800
1F8000F800
1F8000F800
1FFFFFF800
1FFFFFF800
1FFFFFF800
1FFFFFF800
1F8000F800
1F8000F800
1F8000F800
1F8000F800
1F8000F800
1F8000F800
1F8000F800
1F8000F800
1F8000F800
1F8000F800
1F8000F800
1F8000F800
1F8000F800
1F8000F800
1F8000F800
ENDCHAR
STARTCHAR 0127
ENCODING 295
SWIDTH 583 0
DWIDTH 28 0
BBX 23 36 1 0
BITMAP
1F0000
1F0000
1F0000
1F0000
FFFE00
FFFE00
FFFE00
1F0000
1F0000
1F0000
1F0FC0
1F3FF0
1F7FF8
1F7FFC
1FE0FC
1F807E
1F007E
1F003E
1F003E
1F003E
1F003E
1F003E
1F003E
1F003E
1F003E
1F003E
1F003E
1F003E
1F003E
1F003E
1F003E
1F003E
1F003E
1F003E
1F003E
1F003E
ENDCHAR
STARTCHAR 0128
ENCODING 296
SWIDTH 416 0
DWIDTH 20 0
BBX 17 43 1 0
BITMAP
1F0100
3FC380
7FFF80
FFFF80
71FF00
203E00
000000
000000
000000
3FFF00
3FFF00
3FFF00
3FFF00
03F000
03F000
03F000
03F000
03F000
03F000
03F000
03F000
03F000
03F000
03F000
03F000
03F000
03F000
03F000
03F000
03F000
03F000
03F000
03F000
03F000
03F000
03F000
03F000
03F000
03F000
3FFF00
3FFF00
3FFF00
3FFF00
ENDCHAR
STARTCHAR 0129
ENCODING 297
SWIDTH 270 0
DWIDTH 13 0
BBX 17 35 -2 0
BITMAP
1E0200
7FC300
FFFF80
FFFF00
61FF00
407C00
000000
000000
000000
000000
03E000
03E000
03E000
03E000
03E000
03E000
03E000
03E000
03E000
03E000
03E000
03E000
03E000
03E000
03E000
03E000
03E000
03E000
03E000
03E000
03E000
03E000
03E000
03E000
03E000
ENDCHAR
STARTCHAR 012A
ENCODING 298
SWIDTH 416 0
DWIDTH 20 0
BBX 14 42 3 0
BITMAP
FFFC
FFFC
FFFC
FFFC
0000
0000
0000
0000
FFFC
FFFC
FFFC
FFFC
0FC0
0FC0
0FC0
0FC0
0FC0
0FC0
0FC0
0FC0
0FC0
0FC0
0FC0
0FC0
0FC0
0FC0
0FC0
0FC0
0FC0
0FC0
0FC0
0FC0
0FC0
0FC0
0FC0
0FC0
0FC0
0FC0
FFFC
FFFC
FFFC
FFFC
ENDCHAR
STARTCHAR 012B
ENCODING 299
SWIDTH 270 0
DWIDTH 13 0
BBX 14 34 -1 0
BITMAP
FFFC
FFFC
FFFC
FFFC
0000
0000
0000
0000
0000
07C0
07C0
07C0
07C0
07C0
07C0
07C0
07C0
07C0
07C0
07C0
07C0
07C0
07C0
07C0
07C0
07C0
07C0
07C0
07C0
07C0
07C0
07C0
07C0
07C0
ENDCHAR
STARTCHAR 012C
ENCODING 300
SWIDTH 416 0
DWIDTH 20 0
BBX 16 45 2 0
BITMAP
2004
F00F
F00F
781E
7C3E
3FFC
3FFC
1FF8
07E0
0000
0000
7FFE
7FFE
7FFE
7FFE
07E0
07E0
07E0
07E0
07E0
07E0
07E0
07E0
07E0
07E0
07E0
07E0
07E0
07E0
07E0
07E0
07E0
07E0
07E0
07E0
07E0
07E0
07E0
07E0
07E0
07E0
7FFE
7FFE
7FFE
7FFE
ENDCHAR
STARTCHAR 012D
ENCODING 301
SWIDTH 270 0
DWIDTH 13 0
BBX 16 37 -2 0
BITMAP
2006
F007
780F
781F
7C3E
3FFE
1FFC
0FF8
07E0
0000
0000
0000
03E0
03E0
03E0
03E0
03E0
03E0
03E0
03E0
03E0
03E0
03E0
03E0
03E0
03E0
03E0
03E0
03E0
03E0
03E0
03E0
03E0
03E0
03E0
03E0
03E0
ENDCHAR
STARTCHAR 012E
ENCODING 302
SWIDTH 416 0
DWIDTH 20 0
BBX 16 44 3 -10
BITMAP
FFFC
FFFC
FFFC
FFFC
0FC0
0FC0
0FC0
0FC0
0FC0
0FC0
0FC0
0FC0
0FC0
0FC0
0FC0
0FC0
0FC0
0FC0
0FC0
0FC0
0FC0
0FC0
0FC0
0FC0
0FC0
0FC0
0FC0
0FC0
0FC0
0FC0
FFFC
FFFC
FFFC
FFFC
003C
0070
01E0
03C0
0380
0780
07C4
03FE
03FF
00FC
ENDCHAR
STARTCHAR 012F
ENCODING 303
SWIDTH 270 0
DWIDTH 13 0
BBX 10 46 0 -10
BITMAP
0F00
0F80
1F80
1F80
1F80
0F80
0F00
0000
0000
0000
0000
0F80
0F80
0F80
0F80
0F80
0F80
0F80
0F80
0F80
0F80
0F80
0F80
0F80
0F80
0F80
0F80
0F80
0F80
0F80
0F80
0F80
0F80
0F80
0F80
0F80
0700
1E00
3C00
7800
F000
F000
F180
FFC0
7FC0
3F00
ENDCHAR
STARTCHAR 0130
ENCODING 304
SWIDTH 416 0
DWIDTH 20 0
BBX 14 44 3 0
BITMAP
0780
0FC0
0FC0
0FC0
0FC0
0FC0
0780
0000
0000
0000
FFFC
FFFC
FFFC
FFFC
0FC0
0FC0
0FC0
0FC0
0FC0
0FC0
0FC0
0FC0
0FC0
0FC0
0FC0
0FC0
0FC0
0FC0
0FC0
0FC0
0FC0
0FC0
0FC0
0FC0
0FC0
0FC0
0FC0
0FC0
0FC0
0FC0
FFFC
FFFC
FFFC
FFFC
ENDCHAR
STARTCHAR 0131
ENCODING 305
SWIDTH 270 0
DWIDTH 13 0
BBX 5 25 4 0
BITMAP
F8
F8
F8
F8
F8
F8
F8
F8
F8
F8
F8
F8
F8
F8
F8
F8
F8
F8
F8
F8
F8
F8
F8
F8
F8
ENDCHAR
STARTCHAR 0132
ENCODING 306
SWIDTH 645 0
DWIDTH 31 0
BBX 23 35 4 -1
BITMAP
F80FFE
F80FFE
F80FFE
F80FFE
F8003E
F8003E
F8003E
F8003E
F8003E
F8003E
F8003E
F8003E
F8003E
F8003E
F8003E
F8003E
F8003E
F8003E
F8003E
F8003E
00003E
00003E
00003E
00003E
00003E
00003E
08003E
FC007E
7C007C
7E00FC
7F83F8
3FFFF8
1FFFE0
07FFC0
01FE00
ENDCHAR
STARTCHAR 0133
ENCODING 307
SWIDTH 520 0
DWIDTH 25 0
BBX 19 46 3 -10
BITMAP
7803C0
7C07E0
FC07E0
FC07E0
FC07E0
7C07E0
7803C0
000000
000000
000000
000000
7C07E0
7C07E0
7C07E0
7C07E0
7C07E0
7C07E0
7C07E0
7C07E0
7C07E0
7C07E0
7C07E0
7C07E0
7C07E0
7C07E0
7C07E0
7C07E0
7C07E0
7C07E0
7C07E0
7C07E0
7C07E0
7C07E0
7C07E0
7C07E0
7C07E0
0007E0
0007E0
0007E0
0007E0
0007C0
0007C0
007FC0
007FC0
007F80
007E00
ENDCHAR
STARTCHAR 0134
ENCODING 308
SWIDTH 520 0
DWIDTH 25 0
BBX 21 47 1 -1
BITMAP
007F00
007F00
00FF80
01FFC0
01F7C0
03E3E0
07C1F0
0F80F8
070070
020020
000000
000000
0FFFF8
0FFFF8
0FFFF8
0FFFF8
0001F8
0001F8
0001F8
0001F8
0001F8
0001F8
0001F8
0001F8
0001F8
0001F8
0001F8
0001F8
0001F8
0001F8
0001F8
0001F8
0001F8
0001F8
0001F8
0001F8
0001F8
0001F8
0801F0
FC01F0
7C03F0
7E03F0
7F07E0
3FFFC0
1FFFC0
0FFF00
03FC00
ENDCHAR
STARTCHAR 0135
ENCODING 309
SWIDTH 270 0
DWIDTH 13 0
BBX 17 48 -2 -10
BITMAP
07E000
07F000
0FF800
1FFC00
3F7C00
3E3E00
7C1F00
F80F80
700700
200200
000000
000000
000000
03E000
03E000
03E000
03E000
03E000
03E000
03E000
03E000
03E000
03E000
03E000
03E000
03E000
03E000
03E000
03E000
03E000
03E000
03E000
03E000
03E000
03E000
03E000
03E000
03E000
03E000
03E000
03E000
03E000
03E000
03E000
3FE000
3FC000
3F8000
3F0000
ENDCHAR
STARTCHAR 0136
ENCODING 310
SWIDTH 666 0
DWIDTH 32 0
BBX 27 47 4 -13
BITMAP
FC001FC0
FC003F80
FC003F00
FC007E00
FC00FC00
FC01F800
FC03F000
FC07F000
FC07E000
FC0FC000
FC1F8000
FC3F0000
FC7E0000
FC7E0000
FCFC0000
FDFE0000
FFFE0000
FFFF0000
FFFF8000
FF9F8000
FF0FC000
FE0FE000
FC07E000
FC03F000
FC03F800
FC01F800
FC00FC00
FC00FE00
FC007E00
FC007F00
FC003F80
FC001F80
FC001FC0
FC000FE0
00000000
00000000
00000000
001E0000
003E0000
003E0000
003E0000
003E0000
001E0000
000E0000
001C0000
001C0000
00780000
ENDCHAR
STARTCHAR 0137
ENCODING 311
SWIDTH 541 0
DWIDTH 26 0
BBX 22 49 4 -13
BITMAP
F80000
F80000
F80000
F80000
F80000
F80000
F80000
F80000
F80000
F80000
F80000
F803F8
F807E0
F80FE0
F80FC0
F81F80
F83F00
F87E00
F8FC00
F9F800
F9F000
FBF800
FFF800
FFFC00
FF7C00
FE7E00
FC3F00
F83F00
F81F80
F80FC0
F80FC0
F807E0
F807F0
F803F0
F801F8
F801FC
000000
000000
000000
007800
00F800
00F800
00F800
00F800
007800
003800
007000
007000
01E000
ENDCHAR
STARTCHAR 0138
ENCODING 312
SWIDTH 541 0
DWIDTH 26 0
BBX 22 25 4 0
BITMAP
F801F8
F803F0
F807E0
F80FC0
F81F80
F83F00
F87E00
F8FC00
F9F800
F9F000
FBF800
FFF800
FFFC00
FF7E00
FE7E00
FC3F00
F83F00
F81F80
F80FC0
F80FC0
F807E0
F803F0
F803F0
F801F8
F801FC
ENDCHAR
STARTCHAR 0139
ENCODING 313
SWIDTH 520 0
DWIDTH 25 0
BBX 19 46 4 0
BITMAP
0C0000
0F0000
1F8000
1F0000
3E0000
3E0000
7C0000
780000
F80000
300000
000000
000000
FC0000
FC0000
FC0000
FC0000
FC0000
FC0000
FC0000
FC0000
FC0000
FC0000
FC0000
FC0000
FC0000
FC0000
FC0000
FC0000
FC0000
FC0000
FC0000
FC0000
FC0000
FC0000
FC0000
FC0000
FC0000
FC0000
FC0000
FC0000
FC0000
FC0000
FFFFE0
FFFFE0
FFFFE0
FFFFE0
ENDCHAR
STARTCHAR 013A
ENCODING 314
SWIDTH 291 0
DWIDTH 14 0
BBX 9 48 4 0
BITMAP
0C00
1F00
1F80
3F00
3E00
7C00
7800
F800
F000
2000
0000
0000
F800
F800
F800
F800
F800
F800
F800
F800
F800
F800
F800
F800
F800
F800
F800
F800
F800
F800
F800
F800
F800
F800
F800
F800
F800
F800
F800
F800
F800
F800
F800
F800
FF00
FF00
7F00
3F00
ENDCHAR
STARTCHAR 013B
ENCODING 315
SWIDTH 520 0
DWIDTH 25 0
BBX 19 47 4 -13
BITMAP
FC0000
FC0000
FC0000
FC0000
FC0000
FC0000
FC0000
FC0000
FC0000
FC0000
FC0000
FC0000
FC0000
FC0000
FC0000
FC0000
FC0000
FC0000
FC0000
FC0000
FC0000
FC0000
FC0000
FC0000
FC0000
FC0000
FC0000
FC0000
FC0000
FC0000
FFFFE0
FFFFE0
FFFFE0
FFFFE0
000000
000000
000000
00F000
01F800
01F800
01F800
01F800
00F800
007000
007000
00E000
01C000
ENDCHAR
STARTCHAR 013C
ENCODING 316
SWIDTH 291 0
DWIDTH 14 0
BBX 8 49 4 -13
BITMAP
F8
F8
F8
F8
F8
F8
F8
F8
F8
F8
F8
F8
F8
F8
F8
F8
F8
F8
F8
F8
F8
F8
F8
F8
F8
F8
F8
F8
F8
F8
F8
F8
FF
FF
7F
3F
00
00
00
3C
7E
7E
7E
7E
3E
1C
1C
38
70
ENDCHAR
STARTCHAR 013D
ENCODING 317
SWIDTH 520 0
DWIDTH 25 0
BBX 19 36 4 0
BITMAP
003E00
003E00
FC3E00
FC7C00
FC7C00
FC7C00
FC7C00
FC7800
FC7800
FC7800
FC0000
FC0000
FC0000
FC0000
FC0000
FC0000
FC0000
FC0000
FC0000
FC0000
FC0000
FC0000
FC0000
FC0000
FC0000
FC0000
FC0000
FC0000
FC0000
FC0000
FC0000
FC0000
FFFFE0
FFFFE0
FFFFE0
FFFFE0
ENDCHAR
STARTCHAR 013E
ENCODING 318
SWIDTH 312 0
DWIDTH 15 0
BBX 14 36 4 0
BITMAP
F8FC
F8F8
F8F8
F8F8
F8F8
F8F0
F8F0
F8F0
F8E0
F8E0
F800
F800
F800
F800
F800
F800
F800
F800
F800
F800
F800
F800
F800
F800
F800
F800
F800
F800
F800
F800
F800
F800
FF00
FF00
7F00
3F00
ENDCHAR
STARTCHAR 013F
ENCODING 319
SWIDTH 520 0
DWIDTH 25 0
BBX 19 34 4 0
BITMAP
FC0000
FC0000
FC0000
FC0000
FC0000
FC0000
FC0000
FC0000
FC0000
FC0000
FC0000
FC0000
FC0000
FC0780
FC0FC0
FC0FC0
FC0FC0
FC0FC0
FC0780
FC0000
FC0000
FC0000
FC0000
FC0000
FC0000
FC0000
FC0000
FC0000
FC0000
FC0000
FFFFE0
FFFFE0
FFFFE0
FFFFE0
ENDCHAR
STARTCHAR 0140
ENCODING 320
SWIDTH 395 0
DWIDTH 19 0
BBX 15 36 4 0
BITMAP
F800
F800
F800
F800
F800
F800
F800
F800
F800
F800
F800
F800
F800
F800
F800
F800
F800
F83C
F87E
F87E
F87E
F87E
F83C
F800
F800
F800
F800
F800
F800
F800
F800
F800
FF00
FF00
7F00
3F00
ENDCHAR
STARTCHAR 0141
ENCODING 321
SWIDTH 520 0
DWIDTH 25 0
BBX 23 34 0 0
BITMAP
0FC000
0FC000
0FC000
0FC000
0FC000
0FC000
0FC000
0FC000
0FC000
0FC000
0FC000
0FC000
0FC000
0FC1C0
0FCFC0
0FFFC0
0FFFC0
1FFF00
FFF800
FFC000
FFC000
EFC000
8FC000
0FC000
0FC000
0FC000
0FC000
0FC000
0FC000
0FC000
0FFFFE
0FFFFE
0FFFFE
0FFFFE
ENDCHAR
STARTCHAR 0142
ENCODING 322
SWIDTH 291 0
DWIDTH 14 0
BBX 14 36 0 0
BITMAP
0F80
0F80
0F80
0F80
0F80
0F80
0F80
0F80
0F80
0F80
0F80
0F80
0F80
0F84
0FBC
0FFC
0FFC
7FFC
FFC0
FF80
FF80
8F80
0F80
0F80
0F80
0F80
0F80
0F80
0F80
0F80
0F80
0F80
0FF8
0FF8
07F8
03F8
ENDCHAR
STARTCHAR 0143
ENCODING 323
SWIDTH 708 0
DWIDTH 34 0
BBX 26 46 4 0
BITMAP
00030000
0003C000
0007E000
0007C000
000FC000
000F8000
001F0000
001E0000
003E0000
00040000
00000000
00000000
FC0007C0
FE0007C0
FF0007C0
FF0007C0
FF8007C0
FF8007C0
FFC007C0
FFE007C0
FBE007C0
FBF007C0
F9F007C0
F9F807C0
F8F807C0
F8FC07C0
F87E07C0
F87E07C0
F83F07C0
F81F07C0
F81F87C0
F80F87C0
F80FC7C0
F807C7C0
F807E7C0
F803E7C0
F801F7C0
F801FFC0
F800FFC0
F800FFC0
F8007FC0
F8007FC0
F8003FC0
F8001FC0
F8001FC0
F8000FC0
ENDCHAR
STARTCHAR 0144
ENCODING 324
SWIDTH 583 0
DWIDTH 28 0
BBX 20 38 4 0
BITMAP
001800
001E00
003F00
003E00
007E00
007C00
00F800
00F000
01F000
002000
000000
000000
007E00
F9FF80
FBFFC0
FBFFE0
FF07E0
FC03F0
F803F0
F801F0
F801F0
F801F0
F801F0
F801F0
F801F0
F801F0
F801F0
F801F0
F801F0
F801F0
F801F0
F801F0
F801F0
F801F0
F801F0
F801F0
F801F0
F801F0
ENDCHAR
STARTCHAR 0145
ENCODING 325
SWIDTH 708 0
DWIDTH 34 0
BBX 26 47 4 -13
BITMAP
FC0007C0
FE0007C0
FF0007C0
FF0007C0
FF8007C0
FF8007C0
FFC007C0
FFE007C0
FBE007C0
FBF007C0
F9F007C0
F9F807C0
F8F807C0
F8FC07C0
F87E07C0
F87E07C0
F83F07C0
F81F07C0
F81F87C0
F80F87C0
F80FC7C0
F807C7C0
F807E7C0
F803E7C0
F801F7C0
F801FFC0
F800FFC0
F800FFC0
F8007FC0
F8007FC0
F8003FC0
F8001FC0
F8001FC0
F8000FC0
00000000
00000000
00000000
001E0000
003F0000
003F0000
003F0000
003F0000
001F0000
000E0000
000E0000
001C0000
00380000
ENDCHAR
STARTCHAR 0146
ENCODING 326
SWIDTH 583 0
DWIDTH 28 0
BBX 20 39 4 -13
BITMAP
007E00
F9FF80
FBFFC0
FBFFE0
FF07E0
FC03F0
F803F0
F801F0
F801F0
F801F0
F801F0
F801F0
F801F0
F801F0
F801F0
F801F0
F801F0
F801F0
F801F0
F801F0
F801F0
F801F0
F801F0
F801F0
F801F0
F801F0
000000
000000
000000
00F000
01F800
01F800
01F800
01F800
00F800
007000
007000
00E000
01C000
ENDCHAR
STARTCHAR 0147
ENCODING 327
SWIDTH 708 0
DWIDTH 34 0
BBX 26 46 4 0
BITMAP
01002000
03807800
07C0FC00
03E1F800
03F1F000
01FBE000
00FFC000
007FC000
007F8000
003F0000
00000000
00000000
FC0007C0
FE0007C0
FF0007C0
FF0007C0
FF8007C0
FF8007C0
FFC007C0
FFE007C0
FBE007C0
FBF007C0
F9F007C0
F9F807C0
F8F807C0
F8FC07C0
F87E07C0
F87E07C0
F83F07C0
F81F07C0
F81F87C0
F80F87C0
F80FC7C0
F807C7C0
F807E7C0
F803E7C0
F801F7C0
F801FFC0
F800FFC0
F800FFC0
F8007FC0
F8007FC0
F8003FC0
F8001FC0
F8001FC0
F8000FC0
ENDCHAR
STARTCHAR 0148
ENCODING 328
SWIDTH 583 0
DWIDTH 28 0
BBX 20 39 4 0
BITMAP
080100
1C03C0
3E07E0
1F0FC0
1F8F80
0FDF00
07FE00
03FE00
03FC00
01F800
000000
000000
000000
007E00
F9FF80
FBFFC0
FBFFE0
FF07E0
FC03F0
F803F0
F801F0
F801F0
F801F0
F801F0
F801F0
F801F0
F801F0
F801F0
F801F0
F801F0
F801F0
F801F0
F801F0
F801F0
F801F0
F801F0
F801F0
F801F0
F801F0
ENDCHAR
STARTCHAR 0149
ENCODING 329
SWIDTH 854 0
DWIDTH 41 0
BBX 35 36 2 0
BITMAP
1E00000000
3F00000000
3F00000000
7F00000000
3F00000000
3F00000000
1F00000000
0F00000000
1E00000000
1E00000000
3C0000FC00
7803F3FF00
F003F7FF80
0003FFFFC0
0003FC1FC0
0003F807C0
0003F007E0
0003F007E0
0003F003E0
0003F003E0
0003F003E0
0003F003E0
0003F003E0
0003F003E0
0003F003E0
0003F003E0
0003F003E0
0003F003E0
0003F003E0
0003F003E0
0003F003E0
0003F003E0
0003F003E0
0003F003E0
0003F003E0
0003F003E0
ENDCHAR
STARTCHAR 014A
ENCODING 330
SWIDTH 708 0
DWIDTH 34 0
BBX 26 44 4 -10
BITMAP
FC0007C0
FE0007C0
FF0007C0
FF0007C0
FF8007C0
FF8007C0
FFC007C0
FFE007C0
FBE007C0
FBF007C0
F9F007C0
F9F807C0
F8F807C0
F8FC07C0
F87E07C0
F87E07C0
F83F07C0
F81F07C0
F81F87C0
F80F87C0
F80FC7C0
F807C7C0
F807E7C0
F803E7C0
F801F7C0
F801FFC0
F800FFC0
F800FFC0
F8007FC0
F8007FC0
F8003FC0
F8001FC0
F8001FC0
F8000FC0
000007C0
000007C0
000007C0
000007C0
000007C0
000007C0
00007FC0
00007F80
00007F00
00007E00
ENDCHAR
STARTCHAR 014B
ENCODING 331
SWIDTH 583 0
DWIDTH 28 0
BBX 20 36 4 -10
BITMAP
007E00
F9FF80
FBFFC0
FBFFE0
FF07E0
FC03F0
F803F0
F801F0
F801F0
F801F0
F801F0
F801F0
F801F0
F801F0
F801F0
F801F0
F801F0
F801F0
F801F0
F801F0
F801F0
F801F0
F801F0
F801F0
F801F0
F801F0
0001F0
0001F0
0001F0
0001F0
0001F0
0001F0
001FF0
001FE0
001FE0
001F80
ENDCHAR
STARTCHAR 014C
ENCODING 332
SWIDTH 708 0
DWIDTH 34 0
BBX 29 43 3 -1
BITMAP
01FFF800
01FFF800
01FFF800
01FFF800
00000000
00000000
00000000
00000000
003FC000
01FFF800
03FFFC00
07FFFF00
0FE07F80
1F801F80
3F000FC0
3E0007E0
7E0007E0
7C0003E0
FC0003F0
FC0003F0
FC0001F0
F80001F0
F80001F0
F80001F0
F80001F8
F80001F8
F80001F8
F80001F0
F80001F0
F80001F0
FC0001F0
FC0003F0
FC0003F0
7C0003E0
7E0007E0
3E0007E0
3F000FC0
1F801F80
0FE07F80
07FFFF00
03FFFC00
01FFF800
003FC000
ENDCHAR
STARTCHAR 014D
ENCODING 333
SWIDTH 562 0
DWIDTH 27 0
BBX 23 35 2 -1
BITMAP
07FFE0
07FFE0
07FFE0
07FFE0
000000
000000
000000
000000
00FE00
03FF80
0FFFE0
1FFFF0
1F83F8
3F00F8
7E00FC
7C007C
7C007C
FC007E
FC007E
FC007E
FC007E
FC007E
FC007E
FC007E
FC007E
FC007E
7C007C
7C007C
7E00FC
3F00F8
1F83F8
1FFFF0
0FFFE0
03FF80
00FE00
ENDCHAR
STARTCHAR 014E
ENCODING 334
SWIDTH 708 0
DWIDTH 34 0
BBX 29 46 3 -1
BITMAP
00801000
03C03C00
03C03C00
01E07800
01F0F800
00FFF000
00FFF000
007FE000
001F8000
00000000
00000000
003FC000
01FFF800
03FFFC00
07FFFF00
0FE07F80
1F801F80
3F000FC0
3E0007E0
7E0007E0
7C0003E0
FC0003F0
FC0003F0
FC0001F0
F80001F0
F80001F0
F80001F0
F80001F8
F80001F8
F80001F8
F80001F0
F80001F0
F80001F0
FC0001F0
FC0003F0
FC0003F0
7C0003E0
7E0007E0
3E0007E0
3F000FC0
1F801F80
0FE07F80
07FFFF00
03FFFC00
01FFF800
003FC000
ENDCHAR
STARTCHAR 014F
ENCODING 335
SWIDTH 562 0
DWIDTH 27 0
BBX 23 38 2 -1
BITMAP
0600C0
0E00F0
1F01E0
0F01E0
07C7C0
07FFC0
03FF80
01FF00
007C00
000000
000000
00FE00
03FF80
0FFFE0
1FFFF0
1F83F8
3F00F8
7E00FC
7C007C
7C007C
FC007E
FC007E
FC007E
FC007E
FC007E
FC007E
FC007E
FC007E
FC007E
7C007C
7C007C
7E00FC
3F00F8
1F83F8
1FFFF0
0FFFE0
03FF80
00FE00
ENDCHAR
STARTCHAR 0150
ENCODING 336
SWIDTH 708 0
DWIDTH 34 0
BBX 29 47 3 -1
BITMAP
00180800
001E1E00
003F1F80
003E3E00
007C3E00
00787C00
00F87800
00F0F800
01E0F000
00602000
00000000
00000000
003FC000
01FFF800
03FFFC00
07FFFF00
0FE07F80
1F801F80
3F000FC0
3E0007E0
7E0007E0
7C0003E0
FC0003F0
FC0003F0
FC0001F0
F80001F0
F80001F0
F80001F0
F80001F8
F80001F8
F80001F8
F80001F0
F80001F0
F80001F0
FC0001F0
FC0003F0
FC0003F0
7C0003E0
7E0007E0
3E0007E0
3F000FC0
1F801F80
0FE07F80
07FFFF00
03FFFC00
01FFF800
003FC000
ENDCHAR
STARTCHAR 0151
ENCODING 337
SWIDTH 562 0
DWIDTH 27 0
BBX 23 39 2 -1
BITMAP
004060
00F078
00F8FC
01F0F8
01F1F0
03E1F0
03C3E0
0783C0
078780
010180
000000
000000
00FE00
03FF80
0FFFE0
1FFFF0
1F83F8
3F00F8
7E00FC
7C007C
7C007C
FC007E
FC007E
FC007E
FC007E
FC007E
FC007E
FC007E
FC007E
FC007E
7C007C
7C007C
7E00FC
3F00F8
1F83F8
1FFFF0
0FFFE0
03FF80
00FE00
ENDCHAR
STARTCHAR 0152
ENCODING 338
SWIDTH 1000 0
DWIDTH 48 0
BBX 42 35 3 -1
BITMAP
003FFFFFFFC0
01FFFFFFFFC0
03FFFFFFFFC0
07FFFFFFFFC0
0FE00FC00000
1F800FC00000
3F000FC00000
3E000FC00000
7E000FC00000
7C000FC00000
FC000FC00000
FC000FC00000
FC000FC00000
F8000FC00000
F8000FC00000
F8000FFFFF00
F8000FFFFF00
F8000FFFFF00
F8000FFFFF00
F8000FC00000
F8000FC00000
F8000FC00000
FC000FC00000
FC000FC00000
FC000FC00000
7C000FC00000
7E000FC00000
3E000FC00000
3F000FC00000
1F800FC00000
0FE01FFFFFC0
07FFFFFFFFC0
03FFFFFFFFC0
01FFFFFFFFC0
003FC0000000
ENDCHAR
STARTCHAR 0153
ENCODING 339
SWIDTH 916 0
DWIDTH 44 0
BBX 40 27 2 -1
BITMAP
00FE007F80
03FF81FFE0
0FFFE3FFF0
1FFFF7FFF8
1F83FFE1FC
3F00FF807E
7E00FF003E
7C007F003E
7C007E003F
FC007E001F
FC007E001F
FC007FFFFF
FC007FFFFF
FC007FFFFF
FC007E0000
FC007E0000
FC007E0000
FC007E0000
7C007F0010
7C007F0008
7E00FF801C
3F00FF803E
1F83FFE0FE
1FFFF7FFFC
0FFFE3FFF8
03FF81FFE0
00FE003F80
ENDCHAR
STARTCHAR 0154
ENCODING 340
SWIDTH 645 0
DWIDTH 31 0
BBX 25 46 4 0
BITMAP
000C0000
000F0000
001F8000
001F0000
003F0000
003E0000
007C0000
00780000
00F80000
00100000
00000000
00000000
FFFFC000
FFFFF000
FFFFFC00
FFFFFC00
FC00FE00
FC003F00
FC003F00
FC003F00
FC001F00
FC001F00
FC001F00
FC003F00
FC003F00
FC003F00
FC007E00
FFFFFC00
FFFFFC00
FFFFF000
FFFFC000
FC0FC000
FC07E000
FC07E000
FC03F000
FC03F000
FC01F800
FC01F800
FC00F800
FC00FC00
FC00FC00
FC007E00
FC007E00
FC003F00
FC003F00
FC001F80
ENDCHAR
STARTCHAR 0155
ENCODING 341
SWIDTH 375 0
DWIDTH 18 0
BBX 13 38 4 0
BITMAP
00C0
01F0
01F8
03F0
03E0
07C0
07C0
0F80
0F00
0300
0000
0000
0000
F878
F9F8
FBF8
FFF8
FF00
FC00
F800
F800
F800
F800
F800
F800
F800
F800
F800
F800
F800
F800
F800
F800
F800
F800
F800
F800
F800
ENDCHAR
STARTCHAR 0156
ENCODING 342
SWIDTH 645 0
DWIDTH 31 0
BBX 25 47 4 -13
BITMAP
FFFFC000
FFFFF000
FFFFFC00
FFFFFC00
FC00FE00
FC003F00
FC003F00
FC003F00
FC001F00
FC001F00
FC001F00
FC003F00
FC003F00
FC003F00
FC007E00
FFFFFC00
FFFFFC00
FFFFF000
FFFFC000
FC0FC000
FC07E000
FC07E000
FC03F000
FC03F000
FC01F800
FC01F800
FC00F800
FC00FC00
FC00FC00
FC007E00
FC007E00
FC003F00
FC003F00
FC001F80
00000000
00000000
00000000
003C0000
007E0000
007E0000
007E0000
007E0000
003E0000
001C0000
001C0000
00380000
00700000
ENDCHAR
STARTCHAR 0157
ENCODING 343
SWIDTH 375 0
DWIDTH 18 0
BBX 14 38 3 -13
BITMAP
7C3C
7CFC
7DFC
7FFC
7F80
7E00
7C00
7C00
7C00
7C00
7C00
7C00
7C00
7C00
7C00
7C00
7C00
7C00
7C00
7C00
7C00
7C00
7C00
7C00
7C00
0000
0000
0000
3800
7C00
7C00
7C00
7C00
7C00
3C00
3800
7000
F000
ENDCHAR
STARTCHAR 0158
ENCODING 344
SWIDTH 645 0
DWIDTH 31 0
BBX 25 46 4 0
BITMAP
04008000
0E01E000
1F03E000
0F87E000
0FCFC000
07EF8000
03FF0000
01FF0000
01FE0000
00FC0000
00000000
00000000
FFFFC000
FFFFF000
FFFFFC00
FFFFFC00
FC00FE00
FC003F00
FC003F00
FC003F00
FC001F00
FC001F00
FC001F00
FC003F00
FC003F00
FC003F00
FC007E00
FFFFFC00
FFFFFC00
FFFFF000
FFFFC000
FC0FC000
FC07E000
FC07E000
FC03F000
FC03F000
FC01F800
FC01F800
FC00F800
FC00FC00
FC00FC00
FC007E00
FC007E00
FC003F00
FC003F00
FC001F80
ENDCHAR
STARTCHAR 0159
ENCODING 345
SWIDTH 375 0
DWIDTH 18 0
BBX 17 39 2 0
BITMAP
200200
700700
F80F80
7C1F00
3E3E00
1F7E00
1FFC00
0FF800
07F000
03F000
000000
000000
000000
000000
3E1E00
3E7E00
3EFE00
3FFE00
3FC000
3F0000
3E0000
3E0000
3E0000
3E0000
3E0000
3E0000
3E0000
3E0000
3E0000
3E0000
3E0000
3E0000
3E0000
3E0000
3E0000
3E0000
3E0000
3E0000
3E0000
ENDCHAR
STARTCHAR 015A
ENCODING 346
SWIDTH 604 0
DWIDTH 29 0
BBX 24 47 2 -1
BITMAP
000600
000780
000FC0
000F80
001F80
001F00
003E00
003E00
007C00
000800
000000
000000
00FF80
03FFF0
0FFFF8
1FFFFE
3F80FF
3F007E
7E001C
7C0008
7C0000
7C0000
7C0000
7E0000
7E0000
3F8000
3FE000
1FFF00
0FFFE0
03FFF8
007FFC
0003FE
0000FE
00003F
00003F
00001F
00001F
00001F
10001F
38003F
7C003F
FE007E
7F81FE
3FFFFC
1FFFF8
07FFE0
00FF80
ENDCHAR
STARTCHAR 015B
ENCODING 347
SWIDTH 500 0
DWIDTH 24 0
BBX 20 39 2 -1
BITMAP
001800
003E00
003F00
007E00
007C00
00F800
00F800
01F000
01E000
006000
000000
000000
03FC00
0FFF00
1FFF80
3FFFE0
7E0FE0
7C03C0
7C0180
F80000
FC0000
7C0000
7E0000
7FF000
3FFF00
1FFF80
07FFC0
007FE0
0007E0
0003E0
0003F0
2003F0
7003E0
F803E0
FE07E0
7FFFC0
3FFF80
1FFF00
03FC00
ENDCHAR
STARTCHAR 015C
ENCODING 348
SWIDTH 604 0
DWIDTH 29 0
BBX 24 47 2 -1
BITMAP
007E00
00FF00
00FF80
01FF80
03F7C0
03E3E0
07C1F0
0F80F0
070078
020060
000000
000000
00FF80
03FFF0
0FFFF8
1FFFFE
3F80FF
3F007E
7E001C
7C0008
7C0000
7C0000
7C0000
7E0000
7E0000
3F8000
3FE000
1FFF00
0FFFE0
03FFF8
007FFC
0003FE
0000FE
00003F
00003F
00001F
00001F
00001F
10001F
38003F
7C003F
FE007E
7F81FE
3FFFFC
1FFFF8
07FFE0
00FF80
ENDCHAR
STARTCHAR 015D
ENCODING 349
SWIDTH 500 0
DWIDTH 24 0
BBX 20 39 2 -1
BITMAP
01F800
03F800
07FC00
0FFE00
0FBF00
1F1F00
3E0F80
3C07C0
780380
100100
000000
000000
03FC00
0FFF00
1FFF80
3FFFE0
7E0FE0
7C03C0
7C0180
F80000
FC0000
7C0000
7E0000
7FF000
3FFF00
1FFF80
07FFC0
007FE0
0007E0
0003E0
0003F0
2003F0
7003E0
F803E0
FE07E0
7FFFC0
3FFF80
1FFF00
03FC00
ENDCHAR
STARTCHAR 015E
ENCODING 350
SWIDTH 604 0
DWIDTH 29 0
BBX 24 44 2 -10
BITMAP
00FF80
03FFF0
0FFFFC
1FFFFE
3F80FF
3F003E
7E001C
7C0010
7C0000
7C0000
7C0000
7E0000
7E0000
3F8000
3FE000
1FFF00
0FFFE0
03FFF8
007FFC
0003FE
0000FE
00003F
00003F
00001F
00001F
00001F
00001F
10003F
38003F
7E007E
FF81FE
7FFFFC
1FFFF8
0FFFE0
01FF80
003800
003800
003F80
0007C0
0001C0
0063E0
00FFC0
01FFC0
003F00
ENDCHAR
STARTCHAR 015F
ENCODING 351
SWIDTH 500 0
DWIDTH 24 0
BBX 20 36 2 -10
BITMAP
03FC00
0FFF00
1FFF80
3FFFE0
7E0FE0
7C03C0
7C0180
F80000
FC0000
7C0000
7E0000
7FF000
3FFF00
1FFF80
07FFC0
007FE0
0007E0
0003E0
0003F0
2003F0
7003E0
F803E0
FE07E0
7FFFC0
3FFF80
1FFF00
07FC00
00E000
00E000
00FE00
001F00
000F00
030F00
07FF00
03FE00
01F800
ENDCHAR
STARTCHAR 0160
ENCODING 352
SWIDTH 604 0
DWIDTH 29 0
BBX 24 47 2 -1
BITMAP
020060
0700F0
0F80F8
07C1F0
03E3E0
03F7C0
01FF80
00FF80
00FF00
007E00
000000
000000
00FF80
03FFF0
0FFFF8
1FFFFE
3F80FF
3F007E
7E001C
7C0008
7C0000
7C0000
7C0000
7E0000
7E0000
3F8000
3FE000
1FFF00
0FFFE0
03FFF8
007FFC
0003FE
0000FE
00003F
00003F
00001F
00001F
00001F
10001F
38003F
7C003F
FE007E
7F81FE
3FFFFC
1FFFF8
07FFE0
00FF80
ENDCHAR
STARTCHAR 0161
ENCODING 353
SWIDTH 500 0
DWIDTH 24 0
BBX 20 40 2 -1
BITMAP
100100
380380
7C07C0
3E0F80
1F1F00
0FBF00
0FFE00
07FC00
03F800
01F800
000000
000000
000000
03FC00
0FFF00
1FFF80
3FFFE0
7E0FE0
7C03C0
7C0180
F80000
FC0000
7C0000
7E0000
7FF000
3FFF00
1FFF80
07FFC0
007FE0
0007E0
0003E0
0003F0
2003F0
7003E0
F803E0
FE07E0
7FFFC0
3FFF80
1FFF00
03FC00
ENDCHAR
STARTCHAR 0162
ENCODING 354
SWIDTH 583 0
DWIDTH 28 0
BBX 26 44 1 -10
BITMAP
FFFFFFC0
FFFFFFC0
FFFFFFC0
FFFFFFC0
003F0000
003F0000
003F0000
003F0000
003F0000
003F0000
003F0000
003F0000
003F0000
003F0000
003F0000
003F0000
003F0000
003F0000
003F0000
003F0000
003F0000
003F0000
003F0000
003F0000
003F0000
003F0000
003F0000
003F0000
003F0000
003F0000
003F0000
003F0000
003F0000
003F0000
001C0000
001C0000
001C0000
001FC000
0003E000
0001E000
0061E000
007FE000
00FFC000
003F8000
ENDCHAR
STARTCHAR 0163
ENCODING 355
SWIDTH 375 0
DWIDTH 18 0
BBX 16 42 1 -10
BITMAP
0780
0780
0780
0780
0780
0780
0F80
FFFE
FFFE
FFFE
FFFE
0F80
0F80
0F80
0F80
0F80
0F80
0F80
0F80
0F80
0F80
0F80
0F80
0F80
0F80
0F80
0F80
0F80
0FFC
07FC
07FC
01FC
00E0
00E0
00C0
00FE
011F
000F
030F
07FF
07FE
01F8
ENDCHAR
STARTCHAR 0164
ENCODING 356
SWIDTH 583 0
DWIDTH 28 0
BBX 26 46 1 0
BITMAP
01002000
07807000
0FC0F800
07E1F000
03E3F000
01F7E000
00FFC000
00FF8000
007F8000
003F0000
00000000
00000000
FFFFFFC0
FFFFFFC0
FFFFFFC0
FFFFFFC0
003F0000
003F0000
003F0000
003F0000
003F0000
003F0000
003F0000
003F0000
003F0000
003F0000
003F0000
003F0000
003F0000
003F0000
003F0000
003F0000
003F0000
003F0000
003F0000
003F0000
003F0000
003F0000
003F0000
003F0000
003F0000
003F0000
003F0000
003F0000
003F0000
003F0000
ENDCHAR
STARTCHAR 0165
ENCODING 357
SWIDTH 375 0
DWIDTH 18 0
BBX 19 37 1 0
BITMAP
0007E0
0007C0
0007C0
0007C0
000780
078780
078780
078780
078700
078700
078000
0F8000
FFFE00
FFFE00
FFFE00
FFFE00
0F8000
0F8000
0F8000
0F8000
0F8000
0F8000
0F8000
0F8000
0F8000
0F8000
0F8000
0F8000
0F8000
0F8000
0F8000
0F8000
0F8000
0FFC00
07FC00
07FC00
01FC00
ENDCHAR
STARTCHAR 0166
ENCODING 358
SWIDTH 583 0
DWIDTH 28 0
BBX 26 34 1 0
BITMAP
FFFFFFC0
FFFFFFC0
FFFFFFC0
FFFFFFC0
003F0000
003F0000
003F0000
003F0000
003F0000
003F0000
003F0000
003F0000
003F0000
003F0000
1FFFFE00
1FFFFE00
1FFFFE00
1FFFFE00
003F0000
003F0000
003F0000
003F0000
003F0000
003F0000
003F0000
003F0000
003F0000
003F0000
003F0000
003F0000
003F0000
003F0000
003F0000
003F0000
ENDCHAR
STARTCHAR 0167
ENCODING 359
SWIDTH 375 0
DWIDTH 18 0
BBX 15 32 1 0
BITMAP
07C0
07C0
07C0
07C0
07C0
07C0
0FC0
FFFE
FFFE
FFFE
FFFE
0FC0
0FC0
0FC0
0FC0
0FC0
0FC0
7FFC
7FFC
7FFC
0FC0
0FC0
0FC0
0FC0
0FC0
0FC0
0FC0
0FC0
07FC
07FC
03FC
01FC
ENDCHAR
STARTCHAR 0168
ENCODING 360
SWIDTH 687 0
DWIDTH 33 0
BBX 25 44 4 -1
BITMAP
01E02000
07FC3000
0FFFF800
0FFFF800
061FF000
0407C000
00000000
00000000
00000000
F8000F80
F8000F80
F8000F80
F8000F80
F8000F80
F8000F80
F8000F80
F8000F80
F8000F80
F8000F80
F8000F80
F8000F80
F8000F80
F8000F80
F8000F80
F8000F80
F8000F80
F8000F80
F8000F80
F8000F80
F8000F80
F8000F80
F8000F80
F8000F80
F8001F80
FC001F80
7C001F00
7C001F00
7E003F00
3F007E00
3F80FE00
1FFFFC00
0FFFF800
07FFF000
00FF8000
ENDCHAR
STARTCHAR 0169
ENCODING 361
SWIDTH 583 0
DWIDTH 28 0
BBX 21 36 3 -1
BITMAP
07C040
0FF0C0
1FFFE0
3FFFE0
1C7FC0
080F80
000000
000000
000000
000000
FC00F8
FC00F8
FC00F8
FC00F8
FC00F8
FC00F8
FC00F8
FC00F8
FC00F8
FC00F8
FC00F8
FC00F8
FC00F8
FC00F8
FC00F8
FC00F8
FC00F8
7C00F8
7C00F8
7C01F8
7E01F8
7F07F8
3FFEF8
1FFEF8
0FFCF8
07F000
ENDCHAR
STARTCHAR 016A
ENCODING 362
SWIDTH 687 0
DWIDTH 33 0
BBX 25 43 4 -1
BITMAP
07FFE000
07FFE000
07FFE000
07FFE000
00000000
00000000
00000000
00000000
F8000F80
F8000F80
F8000F80
F8000F80
F8000F80
F8000F80
F8000F80
F8000F80
F8000F80
F8000F80
F8000F80
F8000F80
F8000F80
F8000F80
F8000F80
F8000F80
F8000F80
F8000F80
F8000F80
F8000F80
F8000F80
F8000F80
F8000F80
F8000F80
F8001F80
FC001F80
7C001F00
7C001F00
7E003F00
3F007E00
3F80FE00
1FFFFC00
0FFFF800
07FFF000
00FF8000
ENDCHAR
STARTCHAR 016B
ENCODING 363
SWIDTH 583 0
DWIDTH 28 0
BBX 21 35 3 -1
BITMAP
0FFFC0
0FFFC0
0FFFC0
0FFFC0
000000
000000
000000
000000
000000
FC00F8
FC00F8
FC00F8
FC00F8
FC00F8
FC00F8
FC00F8
FC00F8
FC00F8
FC00F8
FC00F8
FC00F8
FC00F8
FC00F8
FC00F8
FC00F8
FC00F8
7C00F8
7C00F8
7C01F8
7E01F8
7F07F8
3FFEF8
1FFEF8
0FFCF8
07F000
ENDCHAR
STARTCHAR 016C
ENCODING 364
SWIDTH 687 0
DWIDTH 33 0
BBX 25 46 4 -1
BITMAP
03006000
07007000
0F80F000
0781F000
07C3E000
03FFE000
01FFC000
00FF8000
003E0000
00000000
00000000
F8000F80
F8000F80
F8000F80
F8000F80
F8000F80
F8000F80
F8000F80
F8000F80
F8000F80
F8000F80
F8000F80
F8000F80
F8000F80
F8000F80
F8000F80
F8000F80
F8000F80
F8000F80
F8000F80
F8000F80
F8000F80
F8000F80
F8000F80
F8000F80
F8001F80
FC001F80
7C001F00
7C001F00
7E003F00
3F007E00
3F80FE00
1FFFFC00
0FFFF800
07FFF000
00FF8000
ENDCHAR
STARTCHAR 016D
ENCODING 365
SWIDTH 583 0
DWIDTH 28 0
BBX 21 38 3 -1
BITMAP
040080
1E01E0
1E01E0
1F03C0
0F87C0
0FFF80
07FF00
03FE00
00FC00
000000
000000
000000
FC00F8
FC00F8
FC00F8
FC00F8
FC00F8
FC00F8
FC00F8
FC00F8
FC00F8
FC00F8
FC00F8
FC00F8
FC00F8
FC00F8
FC00F8
FC00F8
FC00F8
7C00F8
7C00F8
7C01F8
7E01F8
7F07F8
3FFEF8
1FFEF8
0FFCF8
07F000
ENDCHAR
STARTCHAR 016E
ENCODING 366
SWIDTH 687 0
DWIDTH 33 0
BBX 25 48 4 -1
BITMAP
003E0000
00FF8000
01FFC000
01E3C000
03C1E000
03C1E000
03C1E000
03C1E000
01E3C000
01FFC000
00FF8000
003E0000
00000000
F8000F80
F8000F80
F8000F80
F8000F80
F8000F80
F8000F80
F8000F80
F8000F80
F8000F80
F8000F80
F8000F80
F8000F80
F8000F80
F8000F80
F8000F80
F8000F80
F8000F80
F8000F80
F8000F80
F8000F80
F8000F80
F8000F80
F8000F80
F8000F80
F8001F80
FC001F80
7C001F00
7C001F00
7E003F00
3F007E00
3F80FE00
1FFFFC00
0FFFF800
07FFF000
00FF8000
ENDCHAR
STARTCHAR 016F
ENCODING 367
SWIDTH 583 0
DWIDTH 28 0
BBX 21 40 3 -1
BITMAP
00F800
01FE00
03FF00
078780
070780
070380
070380
070780
078780
03FF00
01FE00
00F800
000000
000000
FC00F8
FC00F8
FC00F8
FC00F8
FC00F8
FC00F8
FC00F8
FC00F8
FC00F8
FC00F8
FC00F8
FC00F8
FC00F8
FC00F8
FC00F8
FC00F8
FC00F8
7C00F8
7C00F8
7C01F8
7E01F8
7F07F8
3FFEF8
1FFEF8
0FFCF8
07F000
ENDCHAR
STARTCHAR 0170
ENCODING 368
SWIDTH 687 0
DWIDTH 33 0
BBX 25 47 4 -1
BITMAP
00203000
00783C00
007C7E00
00F87C00
00F8F800
01F0F000
01E1F000
03C1E000
03C3C000
0080C000
00000000
00000000
F8000F80
F8000F80
F8000F80
F8000F80
F8000F80
F8000F80
F8000F80
F8000F80
F8000F80
F8000F80
F8000F80
F8000F80
F8000F80
F8000F80
F8000F80
F8000F80
F8000F80
F8000F80
F8000F80
F8000F80
F8000F80
F8000F80
F8000F80
F8000F80
F8001F80
FC001F80
7C001F00
7C001F00
7E003F00
3F007E00
3F80FE00
1FFFFC00
0FFFF800
07FFF000
00FF8000
ENDCHAR
STARTCHAR 0171
ENCODING 369
SWIDTH 583 0
DWIDTH 28 0
BBX 21 39 3 -1
BITMAP
00C040
00F0F0
01F8F8
01F1F0
03E1F0
03C3E0
07C3C0
078780
0F0780
020100
000000
000000
000000
FC00F8
FC00F8
FC00F8
FC00F8
FC00F8
FC00F8
FC00F8
FC00F8
FC00F8
FC00F8
FC00F8
FC00F8
FC00F8
FC00F8
FC00F8
FC00F8
FC00F8
7C00F8
7C00F8
7C01F8
7E01F8
7F07F8
3FFEF8
1FFEF8
0FFCF8
07F000
ENDCHAR
STARTCHAR 0172
ENCODING 370
SWIDTH 687 0
DWIDTH 33 0
BBX 25 44 4 -10
BITMAP
F8000F80
F8000F80
F8000F80
F8000F80
F8000F80
F8000F80
F8000F80
F8000F80
F8000F80
F8000F80
F8000F80
F8000F80
F8000F80
F8000F80
F8000F80
F8000F80
F8000F80
F8000F80
F8000F80
F8000F80
F8000F80
F8000F80
F8000F80
F8000F80
F8001F80
FC001F80
FC001F00
7C001F00
7E003F00
7F007E00
3F80FE00
1FFFFC00
0FFFF800
07FFF000
00FFE000
0001C000
00038000
000F0000
000E0000
001E0000
001E2000
001FF800
000FF800
0007E000
ENDCHAR
STARTCHAR 0173
ENCODING 371
SWIDTH 583 0
DWIDTH 28 0
BBX 22 35 3 -10
BITMAP
FC00F8
FC00F8
FC00F8
FC00F8
FC00F8
FC00F8
FC00F8
FC00F8
FC00F8
FC00F8
FC00F8
FC00F8
FC00F8
FC00F8
FC00F8
FC00F8
FC00F8
7C00F8
7C00F8
7C01F8
7E01F8
7F07F8
3FFEF8
1FFEF8
0FFCF8
07F070
0001E0
0003C0
000780
000700
000F00
000F18
000FFC
0007FC
0003F0
ENDCHAR
STARTCHAR 0174
ENCODING 372
SWIDTH 916 0
DWIDTH 44 0
BBX 42 46 1 0
BITMAP
00003F000000
00003F800000
00007FC00000
0000FFE00000
0001FBE00000
0001F1F00000
0003E0F80000
0007C0780000
0003803C0000
000100100000
000000000000
000000000000
FC003F0007C0
7C003F8007C0
7C003F800FC0
7C007F800F80
7E007F800F80
7E007FC00F80
3E007FC00F80
3E00FBC01F00
3E00F3C01F00
3F00F3E01F00
1F00F3E01F00
1F01F3E01F00
1F01E1E03E00
1F01E1F03E00
0F81E1F03E00
0F83E1F03E00
0F83E0F07C00
0F83C0F07C00
0FC3C0F87C00
07C3C0F87C00
07C7C0787800
07C78078F800
07C7807CF800
03E7807CF800
03EF803CF000
03EF003DF000
03EF003FF000
01EF003FF000
01FF001FE000
01FE001FE000
01FE001FE000
00FE001FE000
00FE000FC000
00FC000FC000
ENDCHAR
STARTCHAR 0175
ENCODING 373
SWIDTH 791 0
DWIDTH 38 0
BBX 36 38 1 0
BITMAP
0001F80000
0003FC0000
0003FE0000
0007FE0000
000FDF0000
001F8F8000
001F07C000
003E03C000
001C03E000
0008018000
0000000000
0000000000
0000000000
F800F801F0
7C01F801F0
7C01F801E0
7C01FC03E0
7C01FC03E0
3E03FC03E0
3E03FC03C0
3E03FE07C0
1E07DE07C0
1F079E07C0
1F079F0780
1F078F0F80
0F0F0F0F80
0F8F0F8F00
0F8F0F8F00
0F9F079F00
079E079F00
07DE07DE00
07DE03DE00
03FC03DE00
03FC03FE00
03FC03FC00
03FC01FC00
01F801FC00
01F801FC00
ENDCHAR
STARTCHAR 0176
ENCODING 374
SWIDTH 625 0
DWIDTH 30 0
BBX 28 46 1 0
BITMAP
001F8000
003FC000
007FC000
007FE000
00FBF000
01F1F800
03E0F800
03E07C00
07C03800
00801000
00000000
00000000
FC0003F0
FE0007E0
7E0007E0
3F000FC0
3F000FC0
1F801F80
1F801F00
0FC03F00
0FC03E00
07E07E00
07E0FC00
03F0FC00
01F9F800
01F9F000
00FFF000
00FFE000
007FE000
007FC000
003FC000
001F8000
001F0000
001F0000
001F0000
001F0000
001F0000
001F0000
001F0000
001F0000
001F0000
001F0000
001F0000
001F0000
001F0000
001F0000
ENDCHAR
STARTCHAR 0177
ENCODING 375
SWIDTH 520 0
DWIDTH 25 0
BBX 23 48 1 -10
BITMAP
00FE00
00FE00
01FF00
03FF80
07EF80
07C7C0
0F83E0
1F01F0
0E00E0
040040
000000
000000
000000
F8003E
F8003E
FC007C
7C007C
7C007C
7E00F8
3E00F8
3E00F8
3F01F0
1F01F0
1F01E0
1F83E0
0F83E0
0F83C0
0FC7C0
07C7C0
07C780
03CF80
03EF80
03EF00
01EF00
01FF00
01FE00
00FE00
00FE00
00FC00
007C00
00FC00
00F800
00F800
01F800
1FF000
1FF000
1FE000
1F8000
ENDCHAR
STARTCHAR 0178
ENCODING 376
SWIDTH 625 0
DWIDTH 30 0
BBX 28 43 1 0
BITMAP
01E07800
03F0F800
03F0FC00
03F0FC00
03F0F800
01E07800
00000000
00000000
00000000
FC0003F0
FE0007E0
7E0007E0
3F000FC0
3F000FC0
1F801F80
1F801F00
0FC03F00
0FC03E00
07E07E00
07E0FC00
03F0FC00
01F9F800
01F9F000
00FFF000
00FFE000
007FE000
007FC000
003FC000
001F8000
001F0000
001F0000
001F0000
001F0000
001F0000
001F0000
001F0000
001F0000
001F0000
001F0000
001F0000
001F0000
001F0000
001F0000
ENDCHAR
STARTCHAR 0179
ENCODING 377
SWIDTH 583 0
DWIDTH 28 0
BBX 25 46 2 0
BITMAP
00020000
00078000
0007E000
000FC000
000F8000
001F0000
001E0000
003E0000
003C0000
00080000
00000000
00000000
7FFFFF00
7FFFFF00
7FFFFF00
7FFFFF00
00003F00
00007E00
0000FC00
0001FC00
0001F800
0003F000
0007F000
0007E000
000FC000
001F8000
001F8000
003F0000
007E0000
00FE0000
00FC0000
01F80000
03F80000
03F00000
07E00000
0FC00000
0FC00000
1F800000
3F000000
7F000000
7E000000
FC000000
FFFFFF80
FFFFFF80
FFFFFF80
FFFFFF80
ENDCHAR
STARTCHAR 017A
ENCODING 378
SWIDTH 479 0
DWIDTH 23 0
BBX 20 38 2 0
BITMAP
001800
001E00
003F00
007E00
007C00
00F800
00F800
01F000
01E000
006000
000000
000000
000000
FFFFE0
FFFFE0
FFFFE0
FFFFE0
0007E0
000FC0
001F80
003F00
003F00
007E00
00FC00
01F800
03F000
03F000
07E000
0FC000
1F8000
3F8000
3F0000
7E0000
FC0000
FFFFF0
FFFFF0
FFFFF0
FFFFF0
ENDCHAR
STARTCHAR 017B
ENCODING 379
SWIDTH 583 0
DWIDTH 28 0
BBX 25 44 2 0
BITMAP
003E0000
007E0000
007F0000
007F0000
007F0000
007E0000
003E0000
00000000
00000000
00000000
7FFFFF00
7FFFFF00
7FFFFF00
7FFFFF00
00003F00
00007E00
0000FC00
0001FC00
0001F800
0003F000
0007F000
0007E000
000FC000
001F8000
001F8000
003F0000
007E0000
00FE0000
00FC0000
01F80000
03F80000
03F00000
07E00000
0FC00000
0FC00000
1F800000
3F000000
7F000000
7E000000
FC000000
FFFFFF80
FFFFFF80
FFFFFF80
FFFFFF80
ENDCHAR
STARTCHAR 017C
ENCODING 380
SWIDTH 479 0
DWIDTH 23 0
BBX 20 35 2 0
BITMAP
00F000
01F800
01F800
01F800
01F800
00F000
000000
000000
000000
000000
FFFFE0
FFFFE0
FFFFE0
FFFFE0
0007E0
000FC0
001F80
003F00
003F00
007E00
00FC00
01F800
03F000
03F000
07E000
0FC000
1F8000
3F8000
3F0000
7E0000
FC0000
FFFFF0
FFFFF0
FFFFF0
FFFFF0
ENDCHAR
STARTCHAR 017D
ENCODING 381
SWIDTH 583 0
DWIDTH 28 0
BBX 25 46 2 0
BITMAP
02002000
07007000
0F80F800
07C1F000
03E3E000
03F7C000
01FFC000
00FF8000
007F0000
007E0000
00000000
00000000
7FFFFF00
7FFFFF00
7FFFFF00
7FFFFF00
00003F00
00007E00
0000FC00
0001FC00
0001F800
0003F000
0007F000
0007E000
000FC000
001F8000
001F8000
003F0000
007E0000
00FE0000
00FC0000
01F80000
03F80000
03F00000
07E00000
0FC00000
0FC00000
1F800000
3F000000
7F000000
7E000000
FC000000
FFFFFF80
FFFFFF80
FFFFFF80
FFFFFF80
ENDCHAR
STARTCHAR 017E
ENCODING 382
SWIDTH 479 0
DWIDTH 23 0
BBX 20 39 2 0
BITMAP
180100
380380
7C07C0
3E0F80
1F1F00
0FBF00
07FE00
07FC00
03FC00
01F800
000000
000000
000000
000000
FFFFE0
FFFFE0
FFFFE0
FFFFE0
0007E0
000FC0
001F80
003F00
003F00
007E00
00FC00
01F800
03F000
03F000
07E000
0FC000
1F8000
3F8000
3F0000
7E0000
FC0000
FFFFF0
FFFFF0
FFFFF0
FFFFF0
ENDCHAR
STARTCHAR 017F
ENCODING 383
SWIDTH 291 0
DWIDTH 14 0
BBX 15 36 1 0
BITMAP
01FE
03FE
07FE
07FE
0F80
0F80
0F80
0F80
0F80
0F80
0F80
FF80
FF80
FF80
FF80
0F80
0F80
0F80
0F80
0F80
0F80
0F80
0F80
0F80
0F80
0F80
0F80
0F80
0F80
0F80
0F80
0F80
0F80
0F80
0F80
0F80
ENDCHAR
STARTCHAR 018F
ENCODING 399
SWIDTH 708 0
DWIDTH 34 0
BBX 29 35 3 -1
BITMAP
003FC000
01FFF800
03FFFC00
0FFFFF00
1FE07F80
1F801F80
3F000FC0
3E0007E0
7E0007E0
1C0003E0
040003F0
000003F0
000001F0
000001F0
000001F0
000001F0
FFFFFFF8
FFFFFFF8
FFFFFFF8
FFFFFFF0
F80001F0
F80001F0
FC0001F0
FC0003F0
FC0003F0
7C0003E0
7E0007E0
3E0007E0
3F000FC0
1F801F80
1FE07F80
0FFFFF00
03FFFC00
01FFF800
003FC000
ENDCHAR
STARTCHAR 0192
ENCODING 402
SWIDTH 479 0
DWIDTH 23 0
BBX 22 40 0 -6
BITMAP
0003FC
000FFC
001FFC
001FFC
003E00
003E00
003E00
003E00
003E00
007E00
007E00
007C00
007C00
007C00
007C00
007C00
1FFFF8
1FFFF8
3FFFF8
3FFFF8
00FC00
00F800
00F800
00F800
00F800
00F800
00F800
00F800
01F800
01F800
01F800
01F000
01F000
01F000
01F000
01F000
FFE000
FFE000
FFC000
FF0000
ENDCHAR
STARTCHAR 01A0
ENCODING 416
SWIDTH 708 0
DWIDTH 34 0
BBX 29 40 3 -1
BITMAP
00000078
00000078
00000078
00000078
00000078
003FFFF8
01FFFFF8
03FFFFF0
07FFFF00
0FE07F80
1F801FC0
3F000FC0
3E0007E0
7E0007E0
7C0003F0
FC0003F0
FC0003F0
FC0001F0
F80001F0
F80001F0
F80001F0
F80001F8
F80001F8
F80001F0
F80001F0
F80001F0
F80001F0
FC0001F0
FC0003F0
FC0003F0
7C0003E0
7E0007E0
3E0007C0
3F000FC0
1F801F80
0FE07F00
07FFFF00
03FFFC00
01FFF800
003FC000
ENDCHAR
STARTCHAR 01A1
ENCODING 417
SWIDTH 562 0
DWIDTH 27 0
BBX 24 31 2 -1
BITMAP
00001F
00001F
00001F
00001F
00FC1F
03FFFF
0FFFFE
1FFFFC
3F83F0
3F00F8
7E00FC
7C007C
7C007C
FC007E
FC007E
FC007E
FC007E
FC007E
FC007E
FC007E
FC007E
FC007E
7C007C
7C007C
7E00FC
3F01F8
1F83F0
1FFFF0
0FFFE0
03FF80
00FE00
ENDCHAR
STARTCHAR 01AF
ENCODING 431
SWIDTH 687 0
DWIDTH 33 0
BBX 28 40 4 -1
BITMAP
000000F0
000000F0
000000F0
000000F0
000000F0
F8000FF0
F8000FF0
F8000FE0
F8000F80
F8000F80
F8000F80
F8000F80
F8000F80
F8000F80
F8000F80
F8000F80
F8000F80
F8000F80
F8000F80
F8000F80
F8000F80
F8000F80
F8000F80
F8000F80
F8000F80
F8000F80
F8000F80
F8000F80
F8000F80
F8001F80
FC001F80
7C001F00
7C001F00
7E003F00
3F007E00
3F80FE00
1FFFFC00
0FFFF800
07FFF000
00FF8000
ENDCHAR
STARTCHAR 01B0
ENCODING 432
SWIDTH 583 0
DWIDTH 28 0
BBX 25 31 3 -1
BITMAP
00000F80
00000F80
00000F80
00000F80
00000F80
FC00FF80
FC00FF00
FC00FF00
FC00F800
FC00F800
FC00F800
FC00F800
FC00F800
FC00F800
FC00F800
FC00F800
FC00F800
FC00F800
FC00F800
FC00F800
FC00F800
FC00F800
7C00F800
7C00F800
7C01F800
7E01F800
7F07F800
3FFEF800
1FFEF800
0FFCF800
07F00000
ENDCHAR
STARTCHAR 01CD
ENCODING 461
SWIDTH 666 0
DWIDTH 32 0
BBX 30 46 1 0
BITMAP
00C00800
01E01C00
03E03E00
01F07C00
00F8F800
007DF800
003FF000
003FE000
001FE000
000FC000
00000000
00000000
001FC000
001FE000
001FE000
003FE000
003FF000
003DF000
007DF000
007CF800
007CF800
00F8F800
00F87C00
00F87C00
01F07E00
01F07E00
01F03E00
03E03F00
03E03F00
03E01F00
07E01F80
07C01F80
07C00F80
0FFFFFC0
0FFFFFC0
0FFFFFC0
1FFFFFE0
1F0007E0
1F0003E0
3F0003F0
3E0003F0
3E0001F0
7E0001F8
7C0001F8
7C0000F8
FC0000FC
ENDCHAR
STARTCHAR 01CE
ENCODING 462
SWIDTH 541 0
DWIDTH 26 0
BBX 23 40 2 -1
BITMAP
080080
1C01C0
3E03E0
1F07C0
0F8F80
07DF00
07FF00
03FE00
01FC00
01FC00
000000
000000
000000
01FC00
0FFF80
1FFFC0
3FFFE0
7E0FE0
7C03F0
3803F0
1001F0
0001F0
0001F0
0001F0
0001F0
03FFF0
1FFFF0
3FFFF0
7E01F0
FC01F0
F801F0
F801F0
F801F0
F801F0
FC03F0
FE0EFE
7FFEFE
3FFCFE
1FF83E
07E000
ENDCHAR
STARTCHAR 01CF
ENCODING 463
SWIDTH 416 0
DWIDTH 20 0
BBX 16 46 2 0
BITMAP
2004
F00F
F81F
7C3E
7E7E
3FFC
1FF8
1FF0
0FF0
07E0
0000
0000
7FFE
7FFE
7FFE
7FFE
07E0
07E0
07E0
07E0
07E0
07E0
07E0
07E0
07E0
07E0
07E0
07E0
07E0
07E0
07E0
07E0
07E0
07E0
07E0
07E0
07E0
07E0
07E0
07E0
07E0
07E0
7FFE
7FFE
7FFE
7FFE
ENDCHAR
STARTCHAR 01D0
ENCODING 464
SWIDTH 270 0
DWIDTH 13 0
BBX 17 39 -2 0
BITMAP
200200
700700
F80F80
7C1F00
3E3E00
3F7C00
1FFC00
0FF800
07F000
07E000
000000
000000
000000
000000
03E000
03E000
03E000
03E000
03E000
03E000
03E000
03E000
03E000
03E000
03E000
03E000
03E000
03E000
03E000
03E000
03E000
03E000
03E000
03E000
03E000
03E000
03E000
03E000
03E000
ENDCHAR
STARTCHAR 01D1
ENCODING 465
SWIDTH 708 0
DWIDTH 34 0
BBX 29 47 3 -1
BITMAP
00801000
03C03C00
03E07C00
01F0F800
01F9F800
00FDF000
007FE000
003FE000
003FC000
001F8000
00000000
00000000
003FC000
01FFF800
03FFFC00
07FFFF00
0FE07F80
1F801F80
3F000FC0
3E0007E0
7E0007E0
7C0003E0
FC0003F0
FC0003F0
FC0001F0
F80001F0
F80001F0
F80001F0
F80001F8
F80001F8
F80001F8
F80001F0
F80001F0
F80001F0
FC0001F0
FC0003F0
FC0003F0
7C0003E0
7E0007E0
3E0007E0
3F000FC0
1F801F80
0FE07F80
07FFFF00
03FFFC00
01FFF800
003FC000
ENDCHAR
STARTCHAR 01D2
ENCODING 466
SWIDTH 562 0
DWIDTH 27 0
BBX 23 40 2 -1
BITMAP
040040
0E00E0
1F01F0
0F83E0
07C7C0
03EF80
03FF80
01FF00
00FE00
00FE00
000000
000000
000000
00FE00
03FF80
0FFFE0
1FFFF0
1F83F8
3F00F8
7E00FC
7C007C
7C007C
FC007E
FC007E
FC007E
FC007E
FC007E
FC007E
FC007E
FC007E
FC007E
7C007C
7C007C
7E00FC
3F00F8
1F83F8
1FFFF0
0FFFE0
03FF80
00FE00
ENDCHAR
STARTCHAR 01D3
ENCODING 467
SWIDTH 687 0
DWIDTH 33 0
BBX 25 47 4 -1
BITMAP
02002000
07007000
0F80F800
07C1F000
03E3E000
03F7C000
01FFC000
00FF8000
007F0000
007E0000
00000000
00000000
F8000F80
F8000F80
F8000F80
F8000F80
F8000F80
F8000F80
F8000F80
F8000F80
F8000F80
F8000F80
F8000F80
F8000F80
F8000F80
F8000F80
F8000F80
F8000F80
F8000F80
F8000F80
F8000F80
F8000F80
F8000F80
F8000F80
F8000F80
F8000F80
F8001F80
FC001F80
7C001F00
7C001F00
7E003F00
3F007E00
3F80FE00
1FFFFC00
0FFFF800
07FFF000
00FF8000
ENDCHAR
STARTCHAR 01D4
ENCODING 468
SWIDTH 583 0
DWIDTH 28 0
BBX 21 40 3 -1
BITMAP
040080
1E01C0
3F03E0
1F87C0
0F8FC0
07DF80
03FF00
03FE00
01FE00
00FC00
000000
000000
000000
000000
FC00F8
FC00F8
FC00F8
FC00F8
FC00F8
FC00F8
FC00F8
FC00F8
FC00F8
FC00F8
FC00F8
FC00F8
FC00F8
FC00F8
FC00F8
FC00F8
FC00F8
7C00F8
7C00F8
7C01F8
7E01F8
7F07F8
3FFEF8
1FFEF8
0FFCF8
07F000
ENDCHAR
STARTCHAR 01D5
ENCODING 469
SWIDTH 687 0
DWIDTH 33 0
BBX 25 49 4 -1
BITMAP
07FFE000
07FFE000
07FFE000
07FFE000
00000000
00000000
0781E000
07C1F000
0FC3F000
0FC3F000
07C1F000
0781E000
00000000
00000000
F8000F80
F8000F80
F8000F80
F8000F80
F8000F80
F8000F80
F8000F80
F8000F80
F8000F80
F8000F80
F8000F80
F8000F80
F8000F80
F8000F80
F8000F80
F8000F80
F8000F80
F8000F80
F8000F80
F8000F80
F8000F80
F8000F80
F8000F80
F8000F80
F8001F80
FC001F80
7C001F00
7C001F00
7E003F00
3F007E00
3F80FE00
1FFFFC00
0FFFF800
07FFF000
00FF8000
ENDCHAR
STARTCHAR 01D6
ENCODING 470
SWIDTH 583 0
DWIDTH 28 0
BBX 21 41 3 -1
BITMAP
0FFFC0
0FFFC0
0FFFC0
0FFFC0
000000
000000
0F03C0
1F87E0
1F87E0
1F87E0
1F87E0
0F03C0
000000
000000
000000
FC00F8
FC00F8
FC00F8
FC00F8
FC00F8
FC00F8
FC00F8
FC00F8
FC00F8
FC00F8
FC00F8
FC00F8
FC00F8
FC00F8
FC00F8
FC00F8
FC00F8
7C00F8
7C00F8
7C01F8
7E01F8
7F07F8
3FFEF8
1FFEF8
0FFCF8
07F000
ENDCHAR
STARTCHAR 01D7
ENCODING 471
SWIDTH 687 0
DWIDTH 33 0
BBX 25 53 4 -1
BITMAP
00020000
00038000
0007E000
0007C000
000F8000
000F0000
001F0000
001E0000
003C0000
001C0000
0781E000
07C1F000
0FC3F000
0FC3F000
07C1F000
0781E000
00000000
00000000
F8000F80
F8000F80
F8000F80
F8000F80
F8000F80
F8000F80
F8000F80
F8000F80
F8000F80
F8000F80
F8000F80
F8000F80
F8000F80
F8000F80
F8000F80
F8000F80
F8000F80
F8000F80
F8000F80
F8000F80
F8000F80
F8000F80
F8000F80
F8000F80
F8001F80
FC001F80
7C001F00
7C001F00
7E003F00
3F007E00
3F80FE00
1FFFFC00
0FFFF800
07FFF000
00FF8000
ENDCHAR
STARTCHAR 01D8
ENCODING 472
SWIDTH 583 0
DWIDTH 28 0
BBX 21 45 3 -1
BITMAP
000800
000E00
000F80
001F00
001F00
003E00
003C00
007800
007800
00F000
0F03C0
1F87E0
1F87E0
1F87E0
1F87E0
0F03C0
000000
000000
000000
FC00F8
FC00F8
FC00F8
FC00F8
FC00F8
FC00F8
FC00F8
FC00F8
FC00F8
FC00F8
FC00F8
FC00F8
FC00F8
FC00F8
FC00F8
FC00F8
FC00F8
7C00F8
7C00F8
7C01F8
7E01F8
7F07F8
3FFEF8
1FFEF8
0FFCF8
07F000
ENDCHAR
STARTCHAR 01D9
ENCODING 473
SWIDTH 687 0
DWIDTH 33 0
BBX 25 53 4 -1
BITMAP
02002000
0700F000
0F81F800
07E3F000
03F7E000
01FFC000
00FF8000
007F0000
003E0000
00000000
0781E000
07C1F000
0FC3F000
0FC3F000
07C1F000
0781E000
00000000
00000000
F8000F80
F8000F80
F8000F80
F8000F80
F8000F80
F8000F80
F8000F80
F8000F80
F8000F80
F8000F80
F8000F80
F8000F80
F8000F80
F8000F80
F8000F80
F8000F80
F8000F80
F8000F80
F8000F80
F8000F80
F8000F80
F8000F80
F8000F80
F8000F80
F8001F80
FC001F80
7C001F00
7C001F00
7E003F00
3F007E00
3F80FE00
1FFFFC00
0FFFF800
07FFF000
00FF8000
ENDCHAR
STARTCHAR 01DA
ENCODING 474
SWIDTH 583 0
DWIDTH 28 0
BBX 21 45 3 -1
BITMAP
0C0080
1E01C0
3F03E0
0F87C0
07DF80
07FF00
03FE00
01FE00
00FC00
000000
0F03C0
1F87E0
1F87E0
1F87E0
1F87E0
0F03C0
000000
000000
000000
FC00F8
FC00F8
FC00F8
FC00F8
FC00F8
FC00F8
FC00F8
FC00F8
FC00F8
FC00F8
FC00F8
FC00F8
FC00F8
FC00F8
FC00F8
FC00F8
FC00F8
7C00F8
7C00F8
7C01F8
7E01F8
7F07F8
3FFEF8
1FFEF8
0FFCF8
07F000
ENDCHAR
STARTCHAR 01DB
ENCODING 475
SWIDTH 687 0
DWIDTH 33 0
BBX 25 53 4 -1
BITMAP
00200000
00E00000
03F00000
01F00000
00F80000
00F80000
007C0000
003C0000
003E0000
001C0000
0781E000
07C1F000
0FC3F000
0FC3F000
07C1F000
0781E000
00000000
00000000
F8000F80
F8000F80
F8000F80
F8000F80
F8000F80
F8000F80
F8000F80
F8000F80
F8000F80
F8000F80
F8000F80
F8000F80
F8000F80
F8000F80
F8000F80
F8000F80
F8000F80
F8000F80
F8000F80
F8000F80
F8000F80
F8000F80
F8000F80
F8000F80
F8001F80
FC001F80
7C001F00
7C001F00
7E003F00
3F007E00
3F80FE00
1FFFFC00
0FFFF800
07FFF000
00FF8000
ENDCHAR
STARTCHAR 01DC
ENCODING 476
SWIDTH 583 0
DWIDTH 28 0
BBX 21 45 3 -1
BITMAP
008000
018000
07C000
07C000
03E000
01F000
01F000
00F800
007800
003000
0F03C0
1F87E0
1F87E0
1F87E0
1F87E0
0F03C0
000000
000000
000000
FC00F8
FC00F8
FC00F8
FC00F8
FC00F8
FC00F8
FC00F8
FC00F8
FC00F8
FC00F8
FC00F8
FC00F8
FC00F8
FC00F8
FC00F8
FC00F8
FC00F8
7C00F8
7C00F8
7C01F8
7E01F8
7F07F8
3FFEF8
1FFEF8
0FFCF8
07F000
ENDCHAR
STARTCHAR 01FA
ENCODING 506
SWIDTH 666 0
DWIDTH 32 0
BBX 30 54 1 0
BITMAP
00004000
0000F000
0001F800
0003E000
0007C000
00078000
00030000
00000000
000FC000
003FE000
007FF000
00787800
00707800
00703800
00707800
00787800
007FF000
003FE000
000FC000
00000000
001FC000
001FE000
001FE000
003FE000
003FF000
003DF000
007DF000
007CF800
007CF800
00F8F800
00F87C00
00F87C00
01F07E00
01F07E00
01F03E00
03E03F00
03E03F00
03E01F00
07E01F80
07C01F80
07C00F80
0FFFFFC0
0FFFFFC0
0FFFFFC0
1FFFFFE0
1F0007E0
1F0003E0
3F0003F0
3E0003F0
3E0001F0
7E0001F8
7C0001F8
7C0000F8
FC0000FC
ENDCHAR
STARTCHAR 01FB
ENCODING 507
SWIDTH 541 0
DWIDTH 26 0
BBX 23 47 2 -1
BITMAP
000C00
001E00
001F00
003E00
007C00
00F000
002000
000000
00F800
03FE00
07FF00
078F00
0F0780
0F0780
0F0780
078F00
07FF00
03FE00
00F800
000000
01FC00
0FFF80
1FFFC0
3FFFE0
7E0FE0
7C03F0
3803F0
1001F0
0001F0
0001F0
0001F0
0001F0
03FFF0
1FFFF0
3FFFF0
7E01F0
FC01F0
F801F0
F801F0
F801F0
F801F0
FC03F0
FE0EFE
7FFEFE
3FFCFE
1FF83E
07E000
ENDCHAR
STARTCHAR 01FC
ENCODING 508
SWIDTH 937 0
DWIDTH 45 0
BBX 42 46 0 0
BITMAP
000000030000
00000003C000
00000007E000
00000007C000
0000000F8000
0000000F8000
0000001F0000
0000001E0000
0000003E0000
0000000C0000
000000000000
000000000000
00007FFFFFC0
0000FFFFFFC0
0000FFFFFFC0
0001FFFFFFC0
0001EFC00000
0003EFC00000
0003EFC00000
0007CFC00000
0007CFC00000
000F8FC00000
000F8FC00000
001F0FC00000
001F0FC00000
003E0FC00000
003E0FC00000
007E0FFFFF00
007C0FFFFF00
00FC0FFFFF00
00F80FFFFF00
01F80FC00000
01F00FC00000
03FFFFC00000
03FFFFC00000
07FFFFC00000
07FFFFC00000
0FC00FC00000
0F800FC00000
1F800FC00000
1F000FC00000
3F000FC00000
3E000FFFFFC0
7E000FFFFFC0
7C000FFFFFC0
FC000FFFFFC0
ENDCHAR
STARTCHAR 01FD
ENCODING 509
SWIDTH 875 0
DWIDTH 42 0
BBX 37 39 2 -1
BITMAP
0000080000
00001E0000
00001F0000
00003E0000
00007E0000
00007C0000
0000F80000
0000F80000
0000F00000
0000200000
0000000000
0000000000
01FC01FC00
0FFE07FF00
1FFF8FFFC0
3FFF9FFFE0
7E0FFF07E0
7C03FE03F0
3803FC01F0
1001F801F8
0001F800F8
0001F800F8
0001F000F8
0001F000F8
03FFFFFFF8
1FFFFFFFF8
3FFFFFFFF8
7E01F00000
7C01F00000
F801F00000
F801F80000
F801F80040
F801FC00E0
FC03FE01F0
FE0FBF03F8
7FFF3FFFE0
3FFE1FFFC0
1FFC07FF80
07F001FC00
ENDCHAR
STARTCHAR 01FE
ENCODING 510
SWIDTH 708 0
DWIDTH 34 0
BBX 29 49 3 -3
BITMAP
00018000
0001E000
0003F000
0003E000
0007E000
0007C000
000F8000
000F0000
001F0000
00020000
00000080
000000E0
003FC1F0
01FFFBE0
03FFFFE0
07FFFFC0
0FE07F80
1F801F80
3F001FC0
3E003FE0
7E003FE0
7C007BE0
7C00FBF0
FC00F1F0
F801E1F0
F803E1F0
F803C1F0
F807C1F0
F80781F8
F80F01F8
F81F01F8
F81E01F0
F83C01F0
F87C01F0
F87801F0
FCF001F0
FDF003F0
7DE003E0
7FE003E0
3FC007C0
3F800FC0
1FC01F80
1FE07F80
3FFFFF00
3FFFFC00
7DFFF800
F83FC000
30000000
10000000
ENDCHAR
STARTCHAR 01FF
ENCODING 511
SWIDTH 562 0
DWIDTH 27 0
BBX 25 40 1 -2
BITMAP
00030000
0007C000
0007E000
000FC000
000F8000
001F0000
001F0000
003E0000
003C0000
00080000
00000000
00000700
007F0780
01FFCF00
07FFFF00
0FFFFE00
0FC1FC00
1F80FC00
1F00FE00
3E01FE00
3E03FF00
3E03DF00
7E079F00
7E0F1F00
7E1F1F00
7E1E1F00
7E3C1F00
7E781F00
7EF01F00
3EF01F00
3FE03F00
3FC03E00
3F803E00
1F807C00
1FC1FC00
3FFFF800
3FFFF000
7DFFC000
F87F0000
30000000
ENDCHAR
STARTCHAR 0218
ENCODING 536
SWIDTH 604 0
DWIDTH 29 0
BBX 24 47 2 -13
BITMAP
00FF80
03FFF0
0FFFF8
1FFFFE
3F80FF
3F007E
7E001C
7C0008
7C0000
7C0000
7C0000
7E0000
7E0000
3F8000
3FE000
1FFF00
0FFFE0
03FFF8
007FFC
0003FE
0000FE
00003F
00003F
00001F
00001F
00001F
10001F
38003F
7C003F
FE007E
7F81FE
3FFFFC
1FFFF8
07FFE0
00FF80
000000
000000
003C00
007E00
007E00
007E00
007E00
003E00
001C00
001C00
003800
007000
ENDCHAR
STARTCHAR 0219
ENCODING 537
SWIDTH 500 0
DWIDTH 24 0
BBX 20 39 2 -13
BITMAP
03FC00
0FFF00
1FFF80
3FFFE0
7E0FE0
7C03C0
7C0180
F80000
FC0000
7C0000
7E0000
7FF000
3FFF00
1FFF80
07FFC0
007FE0
0007E0
0003E0
0003F0
2003F0
7003E0
F803E0
FE07E0
7FFFC0
3FFF80
1FFF00
03FC00
000000
000000
00F000
01F000
01F000
01F800
01F000
00F000
007000
00E000
00E000
03C000
ENDCHAR
STARTCHAR 021A
ENCODING 538
SWIDTH 583 0
DWIDTH 28 0
BBX 26 47 1 -13
BITMAP
FFFFFFC0
FFFFFFC0
FFFFFFC0
FFFFFFC0
003F0000
003F0000
003F0000
003F0000
003F0000
003F0000
003F0000
003F0000
003F0000
003F0000
003F0000
003F0000
003F0000
003F0000
003F0000
003F0000
003F0000
003F0000
003F0000
003F0000
003F0000
003F0000
003F0000
003F0000
003F0000
003F0000
003F0000
003F0000
003F0000
003F0000
00000000
00000000
00000000
001E0000
003E0000
003F0000
003F0000
003F0000
001E0000
000E0000
001C0000
001C0000
00780000
ENDCHAR
STARTCHAR 021B
ENCODING 539
SWIDTH 375 0
DWIDTH 18 0
BBX 15 45 1 -13
BITMAP
0780
0780
0780
0780
0780
0780
0F80
FFFE
FFFE
FFFE
FFFE
0F80
0F80
0F80
0F80
0F80
0F80
0F80
0F80
0F80
0F80
0F80
0F80
0F80
0F80
0F80
0F80
0F80
0FFC
07FC
07FC
01FC
0000
0000
0000
00E0
01F0
01F0
01F0
01F0
01F0
00F0
00E0
01E0
03C0
ENDCHAR
STARTCHAR 0237
ENCODING 567
SWIDTH 270 0
DWIDTH 13 0
BBX 9 35 0 -10
BITMAP
0F80
0F80
0F80
0F80
0F80
0F80
0F80
0F80
0F80
0F80
0F80
0F80
0F80
0F80
0F80
0F80
0F80
0F80
0F80
0F80
0F80
0F80
0F80
0F80
0F80
0F80
0F80
0F80
0F80
0F80
0F80
FF80
FF00
FE00
FC00
ENDCHAR
STARTCHAR 0259
ENCODING 601
SWIDTH 562 0
DWIDTH 27 0
BBX 23 27 2 -1
BITMAP
00FE00
07FF80
0FFFC0
3FFFE0
3F07F0
7E01F8
3C00F8
1800FC
10007C
00007C
00007C
00007E
00007E
FFFFFE
FFFFFE
FFFFFE
FC007C
FC007C
FC007C
7C007C
7E00F8
3E01F8
3F83F0
1FFFE0
0FFFC0
07FF80
01FE00
ENDCHAR
STARTCHAR 02BB
ENCODING 699
SWIDTH 604 0
DWIDTH 29 0
BBX 6 10 12 29
BITMAP
3C
78
70
E0
F0
F8
F8
F8
F8
70
ENDCHAR
STARTCHAR 02BC
ENCODING 700
SWIDTH 604 0
DWIDTH 29 0
BBX 6 10 11 26
BITMAP
FC
FC
FC
F8
F8
F8
F0
F0
F0
F0
ENDCHAR
STARTCHAR 02C6
ENCODING 710
SWIDTH 604 0
DWIDTH 29 0
BBX 17 10 6 28
BITMAP
07E000
07F000
0FF800
1FFC00
3F7C00
3E3E00
7C1F00
F80F80
700700
200200
ENDCHAR
STARTCHAR 02C7
ENCODING 711
SWIDTH 604 0
DWIDTH 29 0
BBX 17 10 6 29
BITMAP
200200
700700
F80F80
7C1F00
3E3E00
3F7C00
1FFC00
0FF800
07F000
07E000
ENDCHAR
STARTCHAR 02D8
ENCODING 728
SWIDTH 604 0
DWIDTH 29 0
BBX 16 9 6 28
BITMAP
3006
F007
780F
781F
7C3E
3FFE
1FFC
0FF8
07E0
ENDCHAR
STARTCHAR 02D9
ENCODING 729
SWIDTH 604 0
DWIDTH 29 0
BBX 7 6 11 29
BITMAP
7C
FC
FE
FE
FC
7C
ENDCHAR
STARTCHAR 02DA
ENCODING 730
SWIDTH 604 0
DWIDTH 29 0
BBX 13 12 8 27
BITMAP
0F80
3FE0
7FF0
78F0
F070
F078
F078
F070
78F0
7FF0
3FE0
0F80
ENDCHAR
STARTCHAR 02DB
ENCODING 731
SWIDTH 604 0
DWIDTH 29 0
BBX 10 11 6 -10
BITMAP
0780
0700
1E00
3C00
7800
7000
F000
F180
7FC0
7FC0
1F00
ENDCHAR
STARTCHAR 02DC
ENCODING 732
SWIDTH 604 0
DWIDTH 29 0
BBX 17 6 6 29
BITMAP
1E0200
7FC300
FFFF80
FFFF00
61FF00
407C00
ENDCHAR
STARTCHAR 02DD
ENCODING 733
SWIDTH 604 0
DWIDTH 29 0
BBX 17 10 8 28
BITMAP
080C00
1E0F00
1F1F80
3E1F00
3C3E00
7C3C00
787C00
F07800
F0F000
603000
ENDCHAR
STARTCHAR 0300
ENCODING 768
SWIDTH 0 0
DWIDTH 0 0
BBX 9 10 -6 28
BITMAP
1800
7800
FC00
7C00
3E00
3E00
1F00
0F00
0F80
0600
ENDCHAR
STARTCHAR 0301
ENCODING 769
SWIDTH 0 0
DWIDTH 0 0
BBX 9 10 -3 28
BITMAP
0C00
0F00
1F80
1F00
3E00
3E00
7C00
7800
F800
3000
ENDCHAR
STARTCHAR 0302
ENCODING 770
SWIDTH 0 0
DWIDTH 0 0
BBX 16 10 -8 28
BITMAP
07E0
0FF0
0FF8
1FF8
3F7C
7E7E
7C3F
F81F
700F
2004
ENDCHAR
STARTCHAR 0303
ENCODING 771
SWIDTH 0 0
DWIDTH 0 0
BBX 17 6 -8 29
BITMAP
3E0200
7FC700
FFFF00
FFFF80
E3FE00
407C00
ENDCHAR
STARTCHAR 0304
ENCODING 772
SWIDTH 0 0
DWIDTH 0 0
BBX 14 4 -7 30
BITMAP
FFFC
FFFC
FFFC
FFFC
ENDCHAR
STARTCHAR 0306
ENCODING 774
SWIDTH 0 0
DWIDTH 0 0
BBX 16 9 -8 28
BITMAP
2004
F00F
F00F
781E
7C3E
3FFC
3FFC
1FF8
07E0
ENDCHAR
STARTCHAR 0307
ENCODING 775
SWIDTH 0 0
DWIDTH 0 0
BBX 6 6 -3 29
BITMAP
78
FC
FC
FC
FC
78
ENDCHAR
STARTCHAR 0308
ENCODING 776
SWIDTH 0 0
DWIDTH 0 0
BBX 16 6 -8 29
BITMAP
781E
FC3F
FC3F
FC3F
FC3F
781E
ENDCHAR
STARTCHAR 0309
ENCODING 777
SWIDTH 0 0
DWIDTH 0 0
BBX 10 10 -5 28
BITMAP
FF80
FFC0
FFC0
FFC0
03C0
0780
0780
0F00
0F00
0600
ENDCHAR
STARTCHAR 030A
ENCODING 778
SWIDTH 0 0
DWIDTH 0 0
BBX 12 12 -6 27
BITMAP
1F80
3FC0
7FE0
F0F0
F070
E070
E070
F070
F0F0
7FE0
3FC0
1F80
ENDCHAR
STARTCHAR 030B
ENCODING 779
SWIDTH 0 0
DWIDTH 0 0
BBX 17 10 -7 28
BITMAP
0C0400
0F0F00
1F8F80
1F1F00
3E1F00
3C3E00
7C3C00
787C00
F07800
301000
ENDCHAR
STARTCHAR 030C
ENCODING 780
SWIDTH 0 0
DWIDTH 0 0
BBX 16 10 -8 29
BITMAP
2004
F00F
F81F
7C3E
7E7E
3F7C
1FF8
0FF8
0FF0
07E0
ENDCHAR
STARTCHAR 0312
ENCODING 786
SWIDTH 0 0
DWIDTH 0 0
BBX 7 10 -3 29
BITMAP
1E
38
78
70
F8
FC
FC
FC
FC
78
ENDCHAR
STARTCHAR 0315
ENCODING 789
SWIDTH 0 0
DWIDTH 0 0
BBX 6 10 0 26
BITMAP
FC
FC
FC
F8
F8
F8
F0
F0
F0
F0
ENDCHAR
STARTCHAR 031B
ENCODING 795
SWIDTH 0 0
DWIDTH 0 0
BBX 10 8 -5 22
BITMAP
07C0
07C0
07C0
07C0
07C0
FFC0
FF80
FF00
ENDCHAR
STARTCHAR 0323
ENCODING 803
SWIDTH 0 0
DWIDTH 0 0
BBX 6 6 -3 -9
BITMAP
78
FC
FC
FC
FC
78
ENDCHAR
STARTCHAR 0326
ENCODING 806
SWIDTH 0 0
DWIDTH 0 0
BBX 7 10 -4 -13
BITMAP
3C
7E
7E
7E
7E
3C
1C
3C
38
F0
ENDCHAR
STARTCHAR 0327
ENCODING 807
SWIDTH 0 0
DWIDTH 0 0
BBX 11 11 -5 -10
BITMAP
0E00
0C00
1C00
1C00
1FC0
03E0
01E0
21E0
7FE0
FFC0
1F80
ENDCHAR
STARTCHAR 0328
ENCODING 808
SWIDTH 0 0
DWIDTH 0 0
BBX 10 11 -9 -10
BITMAP
0780
0700
1E00
3C00
7800
7000
F000
F180
FFC0
7FC0
3F00
ENDCHAR
STARTCHAR 037E
ENCODING 894
SWIDTH 312 0
DWIDTH 15 0
BBX 9 31 2 -6
BITMAP
1F00
3F80
3F80
3F80
3F80
3F80
1F00
0000
0000
0000
0000
0000
0000
0000
0000
0000
0000
0000
1F00
3F80
3F80
3F80
3F80
3F80
1F80
0F00
0F00
1E00
1E00
3C00
F800
ENDCHAR
STARTCHAR 0384
ENCODING 900
SWIDTH 604 0
DWIDTH 29 0
BBX 6 10 13 28
BITMAP
78
7C
7C
7C
78
78
F8
F0
F0
F0
ENDCHAR
STARTCHAR 0385
ENCODING 901
SWIDTH 604 0
DWIDTH 29 0
BBX 18 10 6 28
BITMAP
00F000
00F000
00F000
70E380
F9E7C0
F9E7C0
F9C7C0
F9C7C0
71C380
018000
ENDCHAR
STARTCHAR 0386
ENCODING 902
SWIDTH 666 0
DWIDTH 32 0
BBX 30 38 1 0
BITMAP
3C000000
3E000000
3E000000
3C000000
3C1FC000
7C1FE000
781FE000
783FE000
783FF000
703DF000
007DF000
007CF800
007CF800
00F8F800
00F87C00
00F87C00
01F07E00
01F07E00
01F03E00
03E03F00
03E03F00
03E01F00
07E01F80
07C01F80
07C00F80
0FFFFFC0
0FFFFFC0
0FFFFFC0
1FFFFFE0
1F0007E0
1F0003E0
3F0003F0
3E0003F0
3E0001F0
7E0001F8
7C0001F8
7C0000F8
FC0000FC
ENDCHAR
STARTCHAR 0387
ENCODING 903
SWIDTH 312 0
DWIDTH 15 0
BBX 7 7 4 18
BITMAP
7C
FE
FE
FE
FE
FE
7C
ENDCHAR
STARTCHAR 0388
ENCODING 904
SWIDTH 645 0
DWIDTH 31 0
BBX 29 38 -1 0
BITMAP
78000000
7E000000
7C000000
7C000000
78FFFFF8
78FFFFF8
78FFFFF8
F0FFFFF8
F0F80000
F0F80000
00F80000
00F80000
00F80000
00F80000
00F80000
00F80000
00F80000
00F80000
00F80000
00FFFFF0
00FFFFF0
00FFFFF0
00FFFFF0
00F80000
00F80000
00F80000
00F80000
00F80000
00F80000
00F80000
00F80000
00F80000
00F80000
00F80000
00FFFFF8
00FFFFF8
00FFFFF8
00FFFFF8
ENDCHAR
STARTCHAR 0389
ENCODING 905
SWIDTH 770 0
DWIDTH 37 0
BBX 34 38 -1 0
BITMAP
7800000000
7E00000000
7C00000000
7C00000000
78F8000FC0
78F8000FC0
78F8000FC0
F0F8000FC0
F0F8000FC0
F0F8000FC0
00F8000FC0
00F8000FC0
00F8000FC0
00F8000FC0
00F8000FC0
00F8000FC0
00F8000FC0
00F8000FC0
00F8000FC0
00FFFFFFC0
00FFFFFFC0
00FFFFFFC0
00FFFFFFC0
00F8000FC0
00F8000FC0
00F8000FC0
00F8000FC0
00F8000FC0
00F8000FC0
00F8000FC0
00F8000FC0
00F8000FC0
00F8000FC0
00F8000FC0
00F8000FC0
00F8000FC0
00F8000FC0
00F8000FC0
ENDCHAR
STARTCHAR 038A
ENCODING 906
SWIDTH 500 0
DWIDTH 24 0
BBX 22 38 -1 0
BITMAP
780000
7E0000
7C0000
7C0000
78FFFC
78FFFC
78FFFC
F0FFFC
F00FC0
F00FC0
000FC0
000FC0
000FC0
000FC0
000FC0
000FC0
000FC0
000FC0
000FC0
000FC0
000FC0
000FC0
000FC0
000FC0
000FC0
000FC0
000FC0
000FC0
000FC0
000FC0
000FC0
000FC0
000FC0
000FC0
00FFFC
00FFFC
00FFFC
00FFFC
ENDCHAR
STARTCHAR 038C
ENCODING 908
SWIDTH 729 0
DWIDTH 35 0
BBX 33 39 -1 -1
BITMAP
7800000000
7E00000000
7C00000000
7C00000000
7801FE0000
780FFFC000
781FFFE000
F07FFFF800
F07F03FC00
F0FC00FC00
01F8007E00
01F0003E00
03F0003F00
03E0001F00
07E0001F80
07E0001F80
07E0000F80
07C0000F80
07C0000F80
07C0000F80
07C0000F80
07C0000F80
07C0000F80
07C0000F80
07C0000F80
07C0000F80
07E0000F80
07E0001F80
07E0001F80
03E0001F00
03F0003F00
01F0003F00
01F8007E00
00FC00FC00
007F03FC00
007FFFF800
001FFFE000
000FFFC000
0001FE0000
ENDCHAR
STARTCHAR 038E
ENCODING 910
SWIDTH 729 0
DWIDTH 35 0
BBX 35 38 -1 0
BITMAP
7800000000
7E00000000
7C00000000
7C00000000
79F80007E0
78FC0007C0
78FC000FC0
F07E001F80
F07E001F80
F03F003F00
003F003F00
001F807E00
000FC07C00
000FC0FC00
0007E0F800
0007E1F800
0003F1F000
0003F3F000
0001FBE000
0000FFC000
0000FFC000
00007F8000
00007F8000
00003F0000
00003F0000
00003F0000
00003F0000
00003F0000
00003F0000
00003F0000
00003F0000
00003F0000
00003F0000
00003F0000
00003F0000
00003F0000
00003F0000
00003F0000
ENDCHAR
STARTCHAR 038F
ENCODING 911
SWIDTH 729 0
DWIDTH 35 0
BBX 34 39 -1 -1
BITMAP
7800000000
7E00000000
7C00000000
7C00000000
7801FE0000
780FFFC000
781FFFF000
F03FFFF800
F07F03FC00
F0FC00FE00
01F8007E00
01F0003F00
03F0001F00
03E0001F80
07E0001F80
07E0000F80
07C0000F80
07C0000F80
07C0000FC0
07C0000FC0
07C0000FC0
07C0000FC0
07C0000F80
07E0000F80
07E0000F80
07E0001F80
03E0001F00
03F0003F00
01F0003E00
01F8007E00
00FC00FC00
007E01F800
003F03F000
000F03C000
0FFF03FFC0
0FFF03FFC0
0FFF03FFC0
0FFF03FFC0
000003FFC0
ENDCHAR
STARTCHAR 0390
ENCODING 912
SWIDTH 312 0
DWIDTH 15 0
BBX 18 38 -2 0
BITMAP
00F000
00F000
00F000
70E380
F9E7C0
F9E7C0
F9C7C0
F9C7C0
71C380
018000
000000
000000
000000
03E000
03E000
03E000
03E000
03E000
03E000
03E000
03E000
03E000
03E000
03E000
03E000
03E000
03E000
03E000
03E000
03E000
03E000
03E000
03E000
03E000
03FF00
03FF00
01FF00
007F00
ENDCHAR
STARTCHAR 0391
ENCODING 913
SWIDTH 666 0
DWIDTH 32 0
BBX 30 34 1 0
BITMAP
001FC000
001FE000
001FE000
003FE000
003FF000
003DF000
007DF000
007CF800
007CF800
00F8F800
00F87C00
00F87C00
01F07E00
01F07E00
01F03E00
03E03F00
03E03F00
03E01F00
07E01F80
07C01F80
07C00F80
0FFFFFC0
0FFFFFC0
0FFFFFC0
1FFFFFE0
1F0007E0
1F0003E0
3F0003F0
3E0003F0
3E0001F0
7E0001F8
7C0001F8
7C0000F8
FC0000FC
ENDCHAR
STARTCHAR 0392
ENCODING 914
SWIDTH 666 0
DWIDTH 32 0
BBX 25 34 4 0
BITMAP
FFFFC000
FFFFF000
FFFFFC00
FFFFFC00
FC00FE00
FC007E00
FC003F00
FC003F00
FC003F00
FC003F00
FC003F00
FC003F00
FC003E00
FC007E00
FC00FC00
FFFFF800
FFFFC000
FFFFF800
FFFFFE00
FC007E00
FC003F00
FC001F80
FC001F80
FC001F80
FC001F80
FC001F80
FC001F80
FC001F80
FC003F00
FC007F00
FFFFFE00
FFFFFC00
FFFFF800
FFFFE000
ENDCHAR
STARTCHAR 0393
ENCODING 915
SWIDTH 500 0
DWIDTH 24 0
BBX 19 34 4 0
BITMAP
FFFFE0
FFFFE0
FFFFE0
FFFFE0
FC0000
FC0000
FC0000
FC0000
FC0000
FC0000
FC0000
FC0000
FC0000
FC0000
FC0000
FC0000
FC0000
FC0000
FC0000
FC0000
FC0000
FC0000
FC0000
FC0000
FC0000
FC0000
FC0000
FC0000
FC0000
FC0000
FC0000
FC0000
FC0000
FC0000
ENDCHAR
STARTCHAR 0394
ENCODING 916
SWIDTH 666 0
DWIDTH 32 0
BBX 27 34 2 0
BITMAP
003F8000
003FC000
003FC000
007FC000
007FE000
007BE000
00FBF000
00F9F000
01F9F000
01F1F800
01F0F800
03F0F800
03E0FC00
03E07C00
07E07C00
07C07E00
07C03E00
0FC03E00
0F803F00
0F803F00
1F801F00
1F001F80
1F001F80
3F000F80
3E000FC0
3E000FC0
7E0007C0
7E0007E0
7C0007E0
FC0003E0
FFFFFFE0
FFFFFFE0
FFFFFFE0
FFFFFFE0
ENDCHAR
STARTCHAR 0395
ENCODING 917
SWIDTH 583 0
DWIDTH 28 0
BBX 22 34 4 0
BITMAP
FFFFFC
FFFFFC
FFFFFC
FFFFFC
FC0000
FC0000
FC0000
FC0000
FC0000
FC0000
FC0000
FC0000
FC0000
FC0000
FC0000
FFFFF0
FFFFF0
FFFFF0
FFFFF0
FC0000
FC0000
FC0000
FC0000
FC0000
FC0000
FC0000
FC0000
FC0000
FC0000
FC0000
FFFFFC
FFFFFC
FFFFFC
FFFFFC
ENDCHAR
STARTCHAR 0396
ENCODING 918
SWIDTH 583 0
DWIDTH 28 0
BBX 25 34 2 0
BITMAP
7FFFFF00
7FFFFF00
7FFFFF00
7FFFFF00
00003F00
00007E00
0000FC00
0001FC00
0001F800
0003F000
0007F000
0007E000
000FC000
001F8000
001F8000
003F0000
007E0000
00FE0000
00FC0000
01F80000
03F80000
03F00000
07E00000
0FC00000
0FC00000
1F800000
3F000000
7F000000
7E000000
FC000000
FFFFFF80
FFFFFF80
FFFFFF80
FFFFFF80
ENDCHAR
STARTCHAR 0397
ENCODING 919
SWIDTH 708 0
DWIDTH 34 0
BBX 26 34 4 0
BITMAP
FC0007C0
FC0007C0
FC0007C0
FC0007C0
FC0007C0
FC0007C0
FC0007C0
FC0007C0
FC0007C0
FC0007C0
FC0007C0
FC0007C0
FC0007C0
FC0007C0
FC0007C0
FFFFFFC0
FFFFFFC0
FFFFFFC0
FFFFFFC0
FC0007C0
FC0007C0
FC0007C0
FC0007C0
FC0007C0
FC0007C0
FC0007C0
FC0007C0
FC0007C0
FC0007C0
FC0007C0
FC0007C0
FC0007C0
FC0007C0
FC0007C0
ENDCHAR
STARTCHAR 0398
ENCODING 920
SWIDTH 708 0
DWIDTH 34 0
BBX 29 35 3 -1
BITMAP
003FC000
01FFF800
03FFFE00
0FFFFF00
0FE07F80
1F801F80
3F000FC0
3E0007E0
7E0003E0
7C0003E0
FC0003F0
FC0001F0
FC0001F0
F80001F0
F80001F8
F80001F8
F8FFF1F8
F8FFF1F8
F8FFF1F8
F8FFF1F8
F80001F8
F80001F0
FC0001F0
FC0001F0
FC0003F0
7C0003E0
7E0003E0
3E0007E0
3F000FC0
1F801F80
0FE07F80
0FFFFF00
03FFFE00
01FFF800
003FC000
ENDCHAR
STARTCHAR 0399
ENCODING 921
SWIDTH 416 0
DWIDTH 20 0
BBX 14 34 3 0
BITMAP
FFFC
FFFC
FFFC
FFFC
0FC0
0FC0
0FC0
0FC0
0FC0
0FC0
0FC0
0FC0
0FC0
0FC0
0FC0
0FC0
0FC0
0FC0
0FC0
0FC0
0FC0
0FC0
0FC0
0FC0
0FC0
0FC0
0FC0
0FC0
0FC0
0FC0
FFFC
FFFC
FFFC
FFFC
ENDCHAR
STARTCHAR 039A
ENCODING 922
SWIDTH 666 0
DWIDTH 32 0
BBX 27 34 4 0
BITMAP
FC001FC0
FC003F80
FC003F00
FC007E00
FC00FC00
FC01F800
FC03F000
FC07F000
FC07E000
FC0FC000
FC1F8000
FC3F0000
FC7E0000
FC7E0000
FCFC0000
FDFE0000
FFFE0000
FFFF0000
FFFF8000
FF9F8000
FF0FC000
FE0FE000
FC07E000
FC03F000
FC03F800
FC01F800
FC00FC00
FC00FE00
FC007E00
FC007F00
FC003F80
FC001F80
FC001FC0
FC000FE0
ENDCHAR
STARTCHAR 039B
ENCODING 923
SWIDTH 645 0
DWIDTH 31 0
BBX 29 34 1 0
BITMAP
001FC000
001FC000
003FE000
003FE000
003FE000
007DF000
007DF000
007DF000
00F8F800
00F8F800
00F8F800
01F0FC00
01F07C00
01F07C00
03F07E00
03E03E00
03E03E00
07E03F00
07C03F00
07C01F00
0FC01F80
0F801F80
0F800F80
0F800FC0
1F800FC0
1F0007C0
1F0007E0
3F0007E0
3E0003E0
3E0003F0
7E0003F0
7C0001F0
7C0001F8
FC0001F8
ENDCHAR
STARTCHAR 039C
ENCODING 924
SWIDTH 812 0
DWIDTH 39 0
BBX 31 34 4 0
BITMAP
FE00007E
FE0000FE
FF0001FE
FF0001FE
FF8003FE
FF8003FE
FFC007FE
FFC007FE
FBE00FBE
FBE00FBE
F9F01F3E
F9F81F3E
F8F83E3E
F8FC3E3E
F87C7C3E
F87E7C3E
F83EF83E
F83FF83E
F81FF03E
F81FF03E
F80FE03E
F807E03E
F807C03E
F803803E
F803803E
F801003E
F801003E
F800003E
F800003E
F800003E
F800003E
F800003E
F800003E
F800003E
ENDCHAR
STARTCHAR 039D
ENCODING 925
SWIDTH 708 0
DWIDTH 34 0
BBX 26 34 4 0
BITMAP
FC0007C0
FE0007C0
FF0007C0
FF0007C0
FF8007C0
FF8007C0
FFC007C0
FFE007C0
FBE007C0
FBF007C0
F9F007C0
F9F807C0
F8F807C0
F8FC07C0
F87E07C0
F87E07C0
F83F07C0
F81F07C0
F81F87C0
F80F87C0
F80FC7C0
F807C7C0
F807E7C0
F803E7C0
F801F7C0
F801FFC0
F800FFC0
F800FFC0
F8007FC0
F8007FC0
F8003FC0
F8001FC0
F8001FC0
F8000FC0
ENDCHAR
STARTCHAR 039E
ENCODING 926
SWIDTH 583 0
DWIDTH 28 0
BBX 23 34 3 0
BITMAP
FFFFFE
FFFFFE
FFFFFE
FFFFFE
000000
000000
000000
000000
000000
000000
000000
000000
000000
000000
000000
3FFFF0
3FFFF0
3FFFF0
3FFFF0
000000
000000
000000
000000
000000
000000
000000
000000
000000
000000
000000
FFFFFE
FFFFFE
FFFFFE
FFFFFE
ENDCHAR
STARTCHAR 039F
ENCODING 927
SWIDTH 708 0
DWIDTH 34 0
BBX 29 35 3 -1
BITMAP
003FC000
01FFF800
03FFFC00
07FFFF00
0FE07F80
1F801F80
3F000FC0
3E0007E0
7E0007E0
7C0003E0
FC0003F0
FC0003F0
FC0001F0
F80001F0
F80001F0
F80001F0
F80001F8
F80001F8
F80001F8
F80001F0
F80001F0
F80001F0
FC0001F0
FC0003F0
FC0003F0
7C0003E0
7E0007E0
3E0007E0
3F000FC0
1F801F80
0FE07F80
07FFFF00
03FFFC00
01FFF800
003FC000
ENDCHAR
STARTCHAR 03A0
ENCODING 928
SWIDTH 708 0
DWIDTH 34 0
BBX 25 34 4 0
BITMAP
FFFFFF80
FFFFFF80
FFFFFF80
FFFFFF80
FC000F80
FC000F80
FC000F80
FC000F80
FC000F80
FC000F80
FC000F80
FC000F80
FC000F80
FC000F80
FC000F80
FC000F80
FC000F80
FC000F80
FC000F80
FC000F80
FC000F80
FC000F80
FC000F80
FC000F80
FC000F80
FC000F80
FC000F80
FC000F80
FC000F80
FC000F80
FC000F80
FC000F80
FC000F80
FC000F80
ENDCHAR
STARTCHAR 03A1
ENCODING 929
SWIDTH 625 0
DWIDTH 30 0
BBX 24 34 4 0
BITMAP
FFFFC0
FFFFF0
FFFFFC
FFFFFC
FC00FE
FC003E
FC003F
FC003F
FC001F
FC001F
FC001F
FC001F
FC003F
FC003F
FC003E
FC00FE
FFFFFC
FFFFFC
FFFFF0
FFFFC0
FC0000
FC0000
FC0000
FC0000
FC0000
FC0000
FC0000
FC0000
FC0000
FC0000
FC0000
FC0000
FC0000
FC0000
ENDCHAR
STARTCHAR 03A3
ENCODING 931
SWIDTH 583 0
DWIDTH 28 0
BBX 23 34 2 0
BITMAP
FFFFFE
FFFFFE
FFFFFE
FFFFFE
7E0000
3F0000
1F8000
1FC000
0FE000
07F000
03F800
01F800
00FC00
00FE00
007F00
003F80
001FC0
001F80
003F00
007E00
00FE00
01FC00
03F800
03F000
07E000
0FC000
1F8000
3F0000
7F0000
FE0000
FFFFFE
FFFFFE
FFFFFE
FFFFFE
ENDCHAR
STARTCHAR 03A4
ENCODING 932
SWIDTH 583 0
DWIDTH 28 0
BBX 26 34 1 0
BITMAP
FFFFFFC0
FFFFFFC0
FFFFFFC0
FFFFFFC0
003F0000
003F0000
003F0000
003F0000
003F0000
003F0000
003F0000
003F0000
003F0000
003F0000
003F0000
003F0000
003F0000
003F0000
003F0000
003F0000
003F0000
003F0000
003F0000
003F0000
003F0000
003F0000
003F0000
003F0000
003F0000
003F0000
003F0000
003F0000
003F0000
003F0000
ENDCHAR
STARTCHAR 03A5
ENCODING 933
SWIDTH 625 0
DWIDTH 30 0
BBX 28 34 1 0
BITMAP
FC0003F0
FE0007E0
7E0007E0
3F000FC0
3F000FC0
1F801F80
1F801F00
0FC03F00
0FC03E00
07E07E00
07E0FC00
03F0FC00
01F9F800
01F9F000
00FFF000
00FFE000
007FE000
007FC000
003FC000
001F8000
001F0000
001F0000
001F0000
001F0000
001F0000
001F0000
001F0000
001F0000
001F0000
001F0000
001F0000
001F0000
001F0000
001F0000
ENDCHAR
STARTCHAR 03A6
ENCODING 934
SWIDTH 854 0
DWIDTH 41 0
BBX 37 38 2 -2
BITMAP
0000F80000
0000F80000
0000F80000
001FFFC000
00FFFFF800
03FFFFFC00
07FFFFFF00
0FF0F87F80
1FC0F81FC0
1F80F80FC0
3F00F807E0
3E00F807E0
7E00F803F0
7E00F803F0
7C00F801F0
7C00F801F0
FC00F801F0
FC00F801F0
FC00F801F8
FC00F801F8
FC00F801F8
FC00F801F0
7C00F801F0
7C00F801F0
7E00F803F0
7E00F803F0
3E00F807E0
3F00F807E0
1F80F80FC0
1FC0F81FC0
0FF0F87F80
07FFFFFF00
03FFFFFE00
00FFFFF800
001FFFC000
0000F80000
0000F80000
0000F80000
ENDCHAR
STARTCHAR 03A7
ENCODING 935
SWIDTH 645 0
DWIDTH 31 0
BBX 29 34 1 0
BITMAP
FE0003F0
7F0007E0
3F0007E0
1F800FC0
1FC01F80
0FC01F80
0FE03F00
07E03E00
03F07E00
03F0FC00
01F8FC00
00FDF800
00FDF000
007FF000
003FE000
003FC000
001FC000
003FC000
003FE000
007FF000
00FFF000
00F9F800
01F9F800
01F0FC00
03F07E00
07E07E00
07C03F00
0FC03F80
1F801F80
1F800FC0
3F000FC0
3F0007E0
7E0007F0
FC0003F8
ENDCHAR
STARTCHAR 03A8
ENCODING 936
SWIDTH 812 0
DWIDTH 39 0
BBX 33 34 3 0
BITMAP
FC03E01F80
FC03E01F80
FC03E01F80
FC03E01F80
FC03E01F80
FC03E01F80
FC03E01F80
FC03E01F80
FC03E01F80
FC03E01F80
FC03E01F80
FC03E01F80
FC03E01F80
FC03E01F80
FC03E01F00
7C03E01F00
7C03E01F00
7E03E03F00
3F03E07E00
3F83E0FE00
1FC3E3FC00
0FFFFFF800
07FFFFF000
03FFFFC000
007FFF0000
0003E00000
0003E00000
0003E00000
0003E00000
0003E00000
0003E00000
0003E00000
0003E00000
0003E00000
ENDCHAR
STARTCHAR 03A9
ENCODING 937
SWIDTH 729 0
DWIDTH 35 0
BBX 29 35 3 -1
BITMAP
003FC000
00FFF800
03FFFE00
07FFFF00
0FE07F80
1F801FC0
3F000FC0
3E0007E0
7E0003E0
7C0003F0
7C0001F0
FC0001F0
FC0001F0
FC0001F8
FC0001F8
FC0001F8
FC0001F8
FC0001F8
FC0001F8
FC0001F0
FC0001F0
7C0003F0
7E0003F0
7E0003E0
3F0007E0
1F000FC0
1F801F80
0FC03F00
03E07E00
01E07800
FFE07FF8
FFE07FF8
FFE07FF8
FFE07FF8
00007FF8
ENDCHAR
STARTCHAR 03AA
ENCODING 938
SWIDTH 416 0
DWIDTH 20 0
BBX 16 43 2 0
BITMAP
781E
FC3F
FC3F
FC3F
FC3F
781E
0000
0000
0000
7FFE
7FFE
7FFE
7FFE
07E0
07E0
07E0
07E0
07E0
07E0
07E0
07E0
07E0
07E0
07E0
07E0
07E0
07E0
07E0
07E0
07E0
07E0
07E0
07E0
07E0
07E0
07E0
07E0
07E0
07E0
7FFE
7FFE
7FFE
7FFE
ENDCHAR
STARTCHAR 03AB
ENCODING 939
SWIDTH 625 0
DWIDTH 30 0
BBX 28 43 1 0
BITMAP
01E07800
03F0F800
03F0FC00
03F0FC00
03F0F800
01E07800
00000000
00000000
00000000
FC0003F0
FE0007E0
7E0007E0
3F000FC0
3F000FC0
1F801F80
1F801F00
0FC03F00
0FC03E00
07E07E00
07E0FC00
03F0FC00
01F9F800
01F9F000
00FFF000
00FFE000
007FE000
007FC000
003FC000
001F8000
001F0000
001F0000
001F0000
001F0000
001F0000
001F0000
001F0000
001F0000
001F0000
001F0000
001F0000
001F0000
001F0000
001F0000
ENDCHAR
STARTCHAR 03AC
ENCODING 940
SWIDTH 645 0
DWIDTH 31 0
BBX 28 39 2 -1
BITMAP
001E0000
001F0000
001E0000
003E0000
003E0000
003C0000
003C0000
003C0000
00380000
00780000
00000000
00000000
01FC0000
07FF03E0
0FFF87E0
1FFFC7C0
3F8FC7C0
3E03EFC0
7E03EF80
7C01EF80
7C01FF00
7C00FF00
FC00FE00
FC00FE00
FC007E00
FC007C00
FC007C00
FC00FE00
FC00FE00
7C00FF00
7C01FF00
7C01EF00
7E03EF80
3E03CF80
3F8FCFF0
1FFF8FF0
0FFF87F0
07FE03F0
01FC0000
ENDCHAR
STARTCHAR 03AD
ENCODING 941
SWIDTH 520 0
DWIDTH 25 0
BBX 22 39 2 -1
BITMAP
001E00
001F00
003E00
003E00
003E00
003C00
003C00
003C00
007800
007800
000000
000000
01FF00
0FFFC0
1FFFF0
3FFFF8
3F03FC
7E00F0
7E0020
7C0000
7E0000
3E0000
3F0000
0FFF00
03FF00
1FFF00
3F0000
7C0000
7C0000
7C0000
FC0000
FC0020
7C0030
7E0078
7F01FC
3FFFF8
1FFFF0
0FFFC0
01FF00
ENDCHAR
STARTCHAR 03AE
ENCODING 942
SWIDTH 583 0
DWIDTH 28 0
BBX 23 48 2 -10
BITMAP
000F00
000F80
000F80
000F00
001F00
001F00
001E00
001E00
001E00
001C00
000000
000000
001FC0
F83FF0
FE7FF8
FEFFF8
FFC1FC
3F80FC
3F007C
3F007E
3E007E
3E003E
3E003E
3E003E
3E003E
3E003E
3E003E
3E003E
3E003E
3E003E
3E003E
3E003E
3E003E
3E003E
3E003E
3E003E
3E003E
3E003E
00003E
00003E
00003E
00003E
00003E
00003E
00003E
00003E
00003E
00003E
ENDCHAR
STARTCHAR 03AF
ENCODING 943
SWIDTH 312 0
DWIDTH 15 0
BBX 10 38 4 0
BITMAP
3C00
3E00
3E00
3C00
3C00
7C00
7800
7800
7800
7000
0000
0000
0000
F800
F800
F800
F800
F800
F800
F800
F800
F800
F800
F800
F800
F800
F800
F800
F800
F800
F800
F800
F800
F800
FFC0
FFC0
7FC0
1FC0
ENDCHAR
STARTCHAR 03B0
ENCODING 944
SWIDTH 583 0
DWIDTH 28 0
BBX 21 39 3 -1
BITMAP
003C00
003C00
003C00
1E3CE0
1E39F0
3F39F0
3F79F0
1E71F0
1E70E0
007000
000000
000000
000000
FC00F8
FC00F8
FC00F8
FC00F8
FC00F8
FC00F8
FC00F8
FC00F8
FC00F8
FC00F8
FC00F8
FC00F8
FC00F8
FC00F8
FC00F8
FC00F8
7C00F8
7C00F8
7C01F8
7C01F0
7E01F0
3F07F0
1FFFE0
1FFFC0
07FF80
01FC00
ENDCHAR
STARTCHAR 03B1
ENCODING 945
SWIDTH 645 0
DWIDTH 31 0
BBX 28 27 2 -1
BITMAP
01FC0000
07FF03E0
0FFF87E0
1FFFC7C0
3F8FC7C0
3E03EFC0
7E03EF80
7C01EF80
7C01FF00
7C00FF00
FC00FE00
FC00FE00
FC007E00
FC007C00
FC007C00
FC00FE00
FC00FE00
7C00FF00
7C01FF00
7C01EF00
7E03EF80
3E03CF80
3F8FCFF0
1FFF8FF0
0FFF87F0
07FE03F0
01FC0000
ENDCHAR
STARTCHAR 03B2
ENCODING 946
SWIDTH 604 0
DWIDTH 29 0
BBX 22 46 4 -10
BITMAP
01FC00
0FFF80
1FFFC0
3FFFE0
7F07F0
7C03F0
7C01F0
F801F0
F801F8
F801F8
F801F0
F801F0
F801F0
F803E0
F807C0
F8FF80
F8FE00
F8FF80
F8FFE0
F807F0
F801F8
F800F8
F800FC
F8007C
F8007C
F8007C
F8007C
F8007C
F8007C
F800FC
F800F8
FC01F8
FF07F0
FFFFF0
FBFFE0
F9FFC0
F87E00
F80000
F80000
F80000
F80000
F80000
F80000
F80000
F80000
F80000
ENDCHAR
STARTCHAR 03B3
ENCODING 947
SWIDTH 520 0
DWIDTH 25 0
BBX 24 35 0 -10
BITMAP
F8001F
FE001F
FE003E
FF003E
1F003E
1F007C
0F807C
0F8078
0F80F8
07C0F8
07C1F0
07C1F0
03E1F0
03E1E0
03E3E0
01E3E0
01F3C0
01F7C0
00F780
00FF80
00FF80
007F00
007F00
007F00
003E00
003E00
003E00
003E00
003E00
003E00
003E00
003E00
003E00
003E00
003E00
ENDCHAR
STARTCHAR 03B4
ENCODING 948
SWIDTH 562 0
DWIDTH 27 0
BBX 23 37 2 -1
BITMAP
1FFFF8
1FFFF8
1FFFF8
1FFFF8
1F8000
1FC000
0FE000
07F000
01FC00
00FE00
007F00
003F80
03FFC0
0FE7E0
1F83F0
3F01F8
3E01F8
7C00FC
7C00FC
7C007C
FC007E
FC007E
FC007E
FC007E
FC007E
FC007E
FC007E
FC007E
7C007C
7C007C
7E00FC
3E00F8
3F83F8
1FFFF0
0FFFE0
03FF80
00FE00
ENDCHAR
STARTCHAR 03B5
ENCODING 949
SWIDTH 520 0
DWIDTH 25 0
BBX 22 27 2 -1
BITMAP
01FF00
0FFFC0
1FFFF0
3FFFF8
3F03FC
7E00F0
7E0020
7C0000
7E0000
3E0000
3F0000
0FFF00
03FF00
1FFF00
3F0000
7C0000
7C0000
7C0000
FC0000
FC0020
7C0030
7E0078
7F01FC
3FFFF8
1FFFF0
0FFFC0
01FF00
ENDCHAR
STARTCHAR 03B6
ENCODING 950
SWIDTH 437 0
DWIDTH 21 0
BBX 18 44 2 -8
BITMAP
7FFFC0
7FFFC0
7FFFC0
7FFFC0
000FC0
001F80
001F00
003F00
007E00
00FC00
00F800
01F800
03F000
07E000
0FC000
0FC000
1F8000
3F0000
3F0000
7E0000
7E0000
7C0000
FC0000
FC0000
FC0000
FC0000
FC0000
FC0000
FC0000
7C0000
7E0000
7F8000
3FF000
1FFE00
07FF80
01FF80
001FC0
0007C0
000F80
000F80
000F80
001F00
001F00
000300
ENDCHAR
STARTCHAR 03B7
ENCODING 951
SWIDTH 583 0
DWIDTH 28 0
BBX 23 36 2 -10
BITMAP
001FC0
F83FF0
FE7FF8
FEFFF8
FFC1FC
3F80FC
3F007C
3F007E
3E007E
3E003E
3E003E
3E003E
3E003E
3E003E
3E003E
3E003E
3E003E
3E003E
3E003E
3E003E
3E003E
3E003E
3E003E
3E003E
3E003E
3E003E
00003E
00003E
00003E
00003E
00003E
00003E
00003E
00003E
00003E
00003E
ENDCHAR
STARTCHAR 03B8
ENCODING 952
SWIDTH 562 0
DWIDTH 27 0
BBX 23 37 2 -1
BITMAP
00FE00
03FF80
07FFE0
0FFFF0
1F83F0
1F01F8
3E00F8
3E00F8
7C007C
7C007C
7C007C
7C007C
7C007E
7C007E
7C007E
FC007E
FC007E
FFFFFE
FFFFFE
FFFFFE
FFFFFE
FC007E
7C007E
7C007E
7C007E
7C007C
7C007C
7C007C
7C007C
3E0078
3E00F8
1F01F8
1F83F0
0FFFF0
07FFE0
03FF80
00FE00
ENDCHAR
STARTCHAR 03B9
ENCODING 953
SWIDTH 312 0
DWIDTH 15 0
BBX 10 25 4 0
BITMAP
F800
F800
F800
F800
F800
F800
F800
F800
F800
F800
F800
F800
F800
F800
F800
F800
F800
F800
F800
F800
F800
FFC0
FFC0
7FC0
1FC0
ENDCHAR
STARTCHAR 03BA
ENCODING 954
SWIDTH 541 0
DWIDTH 26 0
BBX 22 25 4 0
BITMAP
F801F0
F803F0
F807F0
F80FF0
F81F80
F83F00
F87E00
F87C00
F8F800
F9F000
FBF000
FFF800
FFF800
FFFC00
FE7E00
FC7E00
FC3F00
F81F80
F81F80
F80FC0
F80FE0
F807E0
F803F0
F803F8
F801FC
ENDCHAR
STARTCHAR 03BB
ENCODING 955
SWIDTH 520 0
DWIDTH 25 0
BBX 25 36 0 0
BITMAP
1FC00000
1FE00000
1FF00000
1FF80000
00F80000
00F80000
00F80000
007C0000
007C0000
007C0000
003E0000
003E0000
007E0000
007F0000
00FF0000
00FF0000
00FF8000
01FF8000
01E78000
03E7C000
03E7C000
03C7C000
07C3E000
07C3E000
07C3E000
0F83F000
0F81F000
1F01F000
1F01F000
1F00F800
3E00F800
3E00F800
3E007F80
7C007F80
7C003F80
F8001F80
ENDCHAR
STARTCHAR 03BC
ENCODING 956
SWIDTH 604 0
DWIDTH 29 0
BBX 23 35 4 -10
BITMAP
F801F0
F801F0
F801F0
F801F0
F801F0
F801F0
F801F0
F801F0
F801F0
F801F0
F801F0
F801F0
F801F0
F801F0
F801F0
F801F0
F801F0
F801F0
F801F0
FC01F0
FC03F0
FE0FFE
FFFFFE
F7FCFE
F7F87E
F1F000
F80000
F80000
F80000
F80000
F80000
F80000
F80000
F80000
F80000
ENDCHAR
STARTCHAR 03BD
ENCODING 957
SWIDTH 520 0
DWIDTH 25 0
BBX 24 25 0 0
BITMAP
F8001F
FE001F
FE001F
FF003E
1F003E
1F003E
0F807C
0F807C
0F8078
07C0F8
07C0F8
07C0F0
03E1F0
03E1F0
03E1E0
01E3E0
01F3E0
01F3C0
01F7C0
00F7C0
00FF80
00FF80
007F80
007F00
007F00
ENDCHAR
STARTCHAR 03BE
ENCODING 958
SWIDTH 458 0
DWIDTH 22 0
BBX 19 44 2 -8
BITMAP
FFFFE0
FFFFE0
FFFFE0
FFFFE0
03C000
0F8000
1F0000
1F0000
3E0000
3E0000
3E0000
3E0000
3E0000
3F0000
1F0000
0FC000
07FF00
01FF00
07FF00
1FFF00
3F8000
3E0000
7C0000
7C0000
7C0000
FC0000
FC0000
FC0000
7C0000
7E0000
7F0000
3F8000
3FF800
0FFF00
07FF80
00FFC0
001FC0
0007C0
0007C0
000F80
000F80
001F80
001F00
000300
ENDCHAR
STARTCHAR 03BF
ENCODING 959
SWIDTH 562 0
DWIDTH 27 0
BBX 23 27 2 -1
BITMAP
00FE00
03FF80
0FFFE0
1FFFF0
1F83F8
3F00F8
7E00FC
7C007C
7C007C
FC007E
FC007E
FC007E
FC007E
FC007E
FC007E
FC007E
FC007E
FC007E
7C007C
7C007C
7E00FC
3F00F8
1F83F8
1FFFF0
0FFFE0
03FF80
00FE00
ENDCHAR
STARTCHAR 03C0
ENCODING 960
SWIDTH 645 0
DWIDTH 31 0
BBX 28 25 1 0
BITMAP
FFFFFFF0
FFFFFFF0
FFFFFFF0
FFFFFFF0
0FC03E00
0FC03E00
0FC03E00
0FC03E00
0FC03E00
0FC03E00
0FC03E00
0FC03E00
0FC03E00
0FC03E00
0FC03E00
0FC03E00
0FC03E00
0FC03E00
0FC03E00
0FC03E00
0FC03E00
0FC03FC0
0FC01FC0
0FC01FC0
0FC007C0
ENDCHAR
STARTCHAR 03C1
ENCODING 961
SWIDTH 562 0
DWIDTH 27 0
BBX 22 36 3 -10
BITMAP
01FE00
07FF80
1FFFC0
3FFFE0
7F07F0
7E03F0
7C01F8
F800F8
F800F8
F800F8
F800FC
F800FC
F800FC
F800FC
F800FC
F800FC
F800FC
F800F8
F800F8
F800F8
F801F8
FC03F0
FF07F0
FFFFE0
FBFFC0
F9FF80
F87E00
F80000
F80000
F80000
F80000
F80000
F80000
F80000
F80000
F80000
ENDCHAR
STARTCHAR 03C2
ENCODING 962
SWIDTH 500 0
DWIDTH 24 0
BBX 21 34 2 -8
BITMAP
00FE00
07FF80
0FFFC0
1FFFE0
3F87F0
3E01F0
7E00E8
7C0080
7C0000
FC0000
FC0000
FC0000
FC0000
FC0000
FC0000
FC0000
FC0000
FC0000
7C0000
7E0000
3F0000
3FC000
1FFC00
0FFF80
03FFC0
007FC0
000FE0
0003E0
0007C0
0007C0
0007C0
000F80
000F80
000180
ENDCHAR
STARTCHAR 03C3
ENCODING 963
SWIDTH 583 0
DWIDTH 28 0
BBX 25 26 2 -1
BITMAP
00FFFF80
03FFFF80
0FFFFF80
1FFFFF80
3F81E000
3F00F000
7E007800
7C007C00
7C007C00
FC007E00
FC007E00
FC007E00
FC007E00
FC007E00
FC007E00
FC007E00
FC007E00
7C007C00
7C007C00
7E00FC00
3E00F800
3F83F800
1FFFF000
0FFFE000
03FF8000
00FE0000
ENDCHAR
STARTCHAR 03C4
ENCODING 964
SWIDTH 479 0
DWIDTH 23 0
BBX 21 25 1 0
BITMAP
FFFFF8
FFFFF8
FFFFF8
FFFFF8
01F800
01F800
01F800
01F800
01F800
01F800
01F800
01F800
01F800
01F800
01F800
01F800
01F800
01F800
01F800
01F800
00F800
00FFC0
00FFC0
007FC0
003FC0
ENDCHAR
STARTCHAR 03C5
ENCODING 965
SWIDTH 583 0
DWIDTH 28 0
BBX 21 26 3 -1
BITMAP
FC00F8
FC00F8
FC00F8
FC00F8
FC00F8
FC00F8
FC00F8
FC00F8
FC00F8
FC00F8
FC00F8
FC00F8
FC00F8
FC00F8
FC00F8
FC00F8
7C00F8
7C00F8
7C01F8
7C01F0
7E01F0
3F07F0
1FFFE0
1FFFC0
07FF80
01FC00
ENDCHAR
STARTCHAR 03C6
ENCODING 966
SWIDTH 750 0
DWIDTH 36 0
BBX 31 36 2 -10
BITMAP
02001F80
07007FE0
0F80FFF0
1FC1FFF8
3F03F0FC
3F03E07C
7E07E07E
7E07C07E
7C07C03E
7C07C03E
FC07C03E
FC07C03E
FC07C03E
FC07C03E
FC07C03E
FC07C03E
FC07C03E
7C07C07E
7C07C07C
7E07C07C
3E07C0FC
3F07C1F8
1FC7C7F0
0FFFFFF0
07FFFFC0
03FFFF80
007FFC00
0007C000
0007C000
0007C000
0007C000
0007C000
0007C000
0007C000
0007C000
0007C000
ENDCHAR
STARTCHAR 03C7
ENCODING 967
SWIDTH 520 0
DWIDTH 25 0
BBX 24 35 1 -10
BITMAP
FC007E
FE007C
FE00FC
FF00F8
1F01F8
0F81F0
0F81F0
0F83E0
07C3E0
07C7C0
03E7C0
03EF80
01EF80
01FF00
01FF00
00FE00
00FE00
00FE00
00FE00
01FF00
01FF00
03EF00
03EF80
07CF80
07C7C0
0F87C0
0F83C0
1F83E0
1F03E0
3F01F0
3E01F0
7E01FF
7C00FF
FC007F
FC003F
ENDCHAR
STARTCHAR 03C8
ENCODING 968
SWIDTH 729 0
DWIDTH 35 0
BBX 29 44 3 -10
BITMAP
000F8000
000F8000
000F8000
000F8000
000F8000
000F8000
000F8000
000F8000
000F8000
FC0F80F8
FC0F80F8
FC0F80F8
FC0F80F8
FC0F80F8
FC0F80F8
FC0F80F8
FC0F80F8
FC0F80F8
FC0F80F8
FC0F80F8
FC0F80F8
FC0F80F8
FC0F80F8
FC0F80F8
7C0F80F8
7C0F80F8
7C0F81F8
7C0F81F0
7E0F81F0
3F0F83E0
1F8F8FE0
1FFFFFC0
0FFFFF80
03FFFF00
00FFF800
000F8000
000F8000
000F8000
000F8000
000F8000
000F8000
000F8000
000F8000
000F8000
ENDCHAR
STARTCHAR 03C9
ENCODING 969
SWIDTH 750 0
DWIDTH 36 0
BBX 32 27 2 -1
BITMAP
02000040
070000E0
0F8001F0
1FC003F8
3F8001FC
3F0000FC
7E0000FE
7E00007E
7C00007E
7C07E03E
FC07E03F
FC07E03F
FC07E03F
FC07E03F
FC07E03F
FC07E03F
FC07E03F
FC07E03F
7C07E03E
7C07E03E
7C07E03E
7E0FF07E
3F1E78FC
3FFE7FFC
1FFC3FF8
0FF81FF0
03F00FC0
ENDCHAR
STARTCHAR 03CA
ENCODING 970
SWIDTH 312 0
DWIDTH 15 0
BBX 16 35 -1 0
BITMAP
781E
FC3E
FC3F
FC3F
FC3E
781E
0000
0000
0000
0000
07C0
07C0
07C0
07C0
07C0
07C0
07C0
07C0
07C0
07C0
07C0
07C0
07C0
07C0
07C0
07C0
07C0
07C0
07C0
07C0
07C0
07FE
07FE
03FE
00FE
ENDCHAR
STARTCHAR 03CB
ENCODING 971
SWIDTH 583 0
DWIDTH 28 0
BBX 21 36 3 -1
BITMAP
0F03C0
1F87E0
1F87E0
1F87E0
1F87E0
0F03C0
000000
000000
000000
000000
FC00F8
FC00F8
FC00F8
FC00F8
FC00F8
FC00F8
FC00F8
FC00F8
FC00F8
FC00F8
FC00F8
FC00F8
FC00F8
FC00F8
FC00F8
FC00F8
7C00F8
7C00F8
7C01F8
7C01F0
7E01F0
3F07F0
1FFFE0
1FFFC0
07FF80
01FC00
ENDCHAR
STARTCHAR 03CC
ENCODING 972
SWIDTH 562 0
DWIDTH 27 0
BBX 23 39 2 -1
BITMAP
001E00
001F00
001E00
001E00
003E00
003E00
003C00
003C00
003C00
003800
000000
000000
00FE00
03FF80
0FFFE0
1FFFF0
1F83F8
3F00F8
7E00FC
7C007C
7C007C
FC007E
FC007E
FC007E
FC007E
FC007E
FC007E
FC007E
FC007E
FC007E
7C007C
7C007C
7E00FC
3F00F8
1F83F8
1FFFF0
0FFFE0
03FF80
00FE00
ENDCHAR
STARTCHAR 03CD
ENCODING 973
SWIDTH 583 0
DWIDTH 28 0
BBX 21 39 3 -1
BITMAP
003C00
003E00
003E00
003E00
003C00
003C00
003C00
007800
007800
007800
000000
000000
000000
FC00F8
FC00F8
FC00F8
FC00F8
FC00F8
FC00F8
FC00F8
FC00F8
FC00F8
FC00F8
FC00F8
FC00F8
FC00F8
FC00F8
FC00F8
FC00F8
7C00F8
7C00F8
7C01F8
7C01F0
7E01F0
3F07F0
1FFFE0
1FFFC0
07FF80
01FC00
ENDCHAR
STARTCHAR 03CE
ENCODING 974
SWIDTH 750 0
DWIDTH 36 0
BBX 32 39 2 -1
BITMAP
0001E000
0001F800
0001F000
0001F000
0001E000
0001E000
0001E000
0003C000
0003C000
0003C000
00000000
00000000
02000040
070000E0
0F8001F0
1FC003F8
3F8001FC
3F0000FC
7E0000FE
7E00007E
7C00007E
7C07E03E
FC07E03F
FC07E03F
FC07E03F
FC07E03F
FC07E03F
FC07E03F
FC07E03F
FC07E03F
7C07E03E
7C07E03E
7C07E03E
7E0FF07E
3F1E78FC
3FFE7FFC
1FFC3FF8
0FF81FF0
03F00FC0
ENDCHAR
STARTCHAR 0400
ENCODING 1024
SWIDTH 583 0
DWIDTH 28 0
BBX 22 46 4 0
BITMAP
00C000
03C000
07E000
03E000
03F000
01F000
00F800
007800
007C00
002000
000000
000000
FFFFFC
FFFFFC
FFFFFC
FFFFFC
FC0000
FC0000
FC0000
FC0000
FC0000
FC0000
FC0000
FC0000
FC0000
FC0000
FC0000
FFFFF0
FFFFF0
FFFFF0
FFFFF0
FC0000
FC0000
FC0000
FC0000
FC0000
FC0000
FC0000
FC0000
FC0000
FC0000
FC0000
FFFFFC
FFFFFC
FFFFFC
FFFFFC
ENDCHAR
STARTCHAR 0401
ENCODING 1025
SWIDTH 583 0
DWIDTH 28 0
BBX 22 43 4 0
BITMAP
0F03C0
1F87C0
1F87E0
1F87E0
1F87C0
0F03C0
000000
000000
000000
FFFFFC
FFFFFC
FFFFFC
FFFFFC
FC0000
FC0000
FC0000
FC0000
FC0000
FC0000
FC0000
FC0000
FC0000
FC0000
FC0000
FFFFF0
FFFFF0
FFFFF0
FFFFF0
FC0000
FC0000
FC0000
FC0000
FC0000
FC0000
FC0000
FC0000
FC0000
FC0000
FC0000
FFFFFC
FFFFFC
FFFFFC
FFFFFC
ENDCHAR
STARTCHAR 0402
ENCODING 1026
SWIDTH 791 0
DWIDTH 38 0
BBX 34 42 1 -8
BITMAP
FFFFFFC000
FFFFFFC000
FFFFFFC000
FFFFFFC000
003F000000
003F000000
003F000000
003F000000
003F000000
003F000000
003F000000
003F000000
003F000000
003F7FE000
003FFFFC00
003FFFFE00
003FFFFF00
003F807F80
003F001F80
003F000FC0
003F000FC0
003F0007C0
003F0007C0
003F0007C0
003F0007C0
003F0007C0
003F0007C0
003F0007C0
003F0007C0
003F0007C0
003F0007C0
003F0007C0
003F0007C0
003F0007C0
00000007C0
0000000FC0
0000000FC0
0000001F80
000001FF80
000001FF00
000001FE00
000001F000
ENDCHAR
STARTCHAR 0403
ENCODING 1027
SWIDTH 500 0
DWIDTH 24 0
BBX 19 46 4 0
BITMAP
001800
003E00
003F00
007E00
007C00
00F800
00F800
01F000
01E000
004000
000000
000000
FFFFE0
FFFFE0
FFFFE0
FFFFE0
FC0000
FC0000
FC0000
FC0000
FC0000
FC0000
FC0000
FC0000
FC0000
FC0000
FC0000
FC0000
FC0000
FC0000
FC0000
FC0000
FC0000
FC0000
FC0000
FC0000
FC0000
FC0000
FC0000
FC0000
FC0000
FC0000
FC0000
FC0000
FC0000
FC0000
ENDCHAR
STARTCHAR 0404
ENCODING 1028
SWIDTH 645 0
DWIDTH 31 0
BBX 26 35 3 -1
BITMAP
003FE000
01FFF800
03FFFE00
0FFFFF00
1FE07F80
1F801FC0
3F000FC0
3E000780
7E000600
7C000000
FC000000
FC000000
FC000000
F8000000
F8000000
FFFFC000
FFFFC000
FFFFC000
FFFFC000
F8000000
F8000000
F8000000
FC000000
FC000000
FC000000
7C000400
7E000300
7E000780
3F000FC0
3F801FC0
1FE07F80
0FFFFF00
07FFFE00
01FFF800
003FE000
ENDCHAR
STARTCHAR 0405
ENCODING 1029
SWIDTH 604 0
DWIDTH 29 0
BBX 24 35 2 -1
BITMAP
00FF80
03FFF0
0FFFF8
1FFFFE
3F80FF
3F007E
7E001C
7C0008
7C0000
7C0000
7C0000
7E0000
7E0000
3F8000
3FE000
1FFF00
0FFFE0
03FFF8
007FFC
0003FE
0000FE
00003F
00003F
00001F
00001F
00001F
10001F
38003F
7C003F
FE007E
7F81FE
3FFFFC
1FFFF8
07FFE0
00FF80
ENDCHAR
STARTCHAR 0406
ENCODING 1030
SWIDTH 416 0
DWIDTH 20 0
BBX 14 34 3 0
BITMAP
FFFC
FFFC
FFFC
FFFC
0FC0
0FC0
0FC0
0FC0
0FC0
0FC0
0FC0
0FC0
0FC0
0FC0
0FC0
0FC0
0FC0
0FC0
0FC0
0FC0
0FC0
0FC0
0FC0
0FC0
0FC0
0FC0
0FC0
0FC0
0FC0
0FC0
FFFC
FFFC
FFFC
FFFC
ENDCHAR
STARTCHAR 0407
ENCODING 1031
SWIDTH 416 0
DWIDTH 20 0
BBX 16 43 2 0
BITMAP
781E
FC3F
FC3F
FC3F
FC3F
781E
0000
0000
0000
7FFE
7FFE
7FFE
7FFE
07E0
07E0
07E0
07E0
07E0
07E0
07E0
07E0
07E0
07E0
07E0
07E0
07E0
07E0
07E0
07E0
07E0
07E0
07E0
07E0
07E0
07E0
07E0
07E0
07E0
07E0
7FFE
7FFE
7FFE
7FFE
ENDCHAR
STARTCHAR 0408
ENCODING 1032
SWIDTH 520 0
DWIDTH 25 0
BBX 21 35 1 -1
BITMAP
0FFFF8
0FFFF8
0FFFF8
0FFFF8
0001F8
0001F8
0001F8
0001F8
0001F8
0001F8
0001F8
0001F8
0001F8
0001F8
0001F8
0001F8
0001F8
0001F8
0001F8
0001F8
0001F8
0001F8
0001F8
0001F8
0001F8
0001F8
0801F0
FC01F0
7C03F0
7E03F0
7F07E0
3FFFC0
1FFFC0
0FFF00
03FC00
ENDCHAR
STARTCHAR 0409
ENCODING 1033
SWIDTH 1020 0
DWIDTH 49 0
BBX 47 34 1 0
BITMAP
01FFFFF00000
01FFFFF00000
01FFFFF00000
01FFFFF00000
01F003F00000
01F003F00000
01F003F00000
01F003F00000
01F003F00000
01F003F00000
01F003F00000
01F003F00000
01F003F00000
01F003FFFF00
01F003FFFFC0
01F003FFFFF0
01F003FFFFF8
01F003F001F8
01F003F000FC
01F003F000FC
01F003F0007C
01F003F0007C
03F003F0007E
03E003F0007E
03E003F0007E
03E003F0007C
07E003F0007C
07C003F000FC
07C003F000FC
0F8003F001F8
FF8003FFFFF8
FF0003FFFFF0
FE0003FFFFC0
F80003FFFF00
ENDCHAR
STARTCHAR 040A
ENCODING 1034
SWIDTH 1041 0
DWIDTH 50 0
BBX 44 34 4 0
BITMAP
FC000F800000
FC000F800000
FC000F800000
FC000F800000
FC000F800000
FC000F800000
FC000F800000
FC000F800000
FC000F800000
FC000F800000
FC000F800000
FC000F800000
FC000F800000
FC000FFFFC00
FC000FFFFF00
FFFFFFFFFF80
FFFFFFFFFFC0
FFFFFF800FE0
FFFFFF8007E0
FC000F8003F0
FC000F8003F0
FC000F8003F0
FC000F8003F0
FC000F8003F0
FC000F8003F0
FC000F8003F0
FC000F8003F0
FC000F8003F0
FC000F8007E0
FC000F800FE0
FC000FFFFFC0
FC000FFFFF80
FC000FFFFF00
FC000FFFFC00
ENDCHAR
STARTCHAR 040B
ENCODING 1035
SWIDTH 812 0
DWIDTH 39 0
BBX 35 34 1 0
BITMAP
FFFFFFC000
FFFFFFC000
FFFFFFC000
FFFFFFC000
003F000000
003F000000
003F000000
003F000000
003F000000
003F000000
003F000000
003F000000
003F000000
003F7FE000
003FFFFC00
003FFFFF00
003FFFFF00
003F803F80
003F001FC0
003F000FC0
003F0007C0
003F0007E0
003F0007E0
003F0007E0
003F0003E0
003F0003E0
003F0003E0
003F0003E0
003F0003E0
003F0003E0
003F0003E0
003F0003E0
003F0003E0
003F0003E0
ENDCHAR
STARTCHAR 040C
ENCODING 1036
SWIDTH 666 0
DWIDTH 32 0
BBX 26 46 4 0
BITMAP
00060000
00078000
000FC000
000F8000
001F8000
001F0000
003E0000
003C0000
007C0000
00080000
00000000
00000000
FC000F80
FC001F80
FC003F80
FC007F80
FC007C00
FC00F800
FC00F800
FC01F000
FC01F000
FC03E000
FC03E000
FC07C000
FC07C000
FC0F8000
FC0F8000
FFFF0000
FFFE0000
FFFE0000
FFFF8000
FC0F8000
FC0FC000
FC07E000
FC07E000
FC03F000
FC03F000
FC01F800
FC00F800
FC00FC00
FC007C00
FC007E00
FC003FC0
FC003FC0
FC001FC0
FC000FC0
ENDCHAR
STARTCHAR 040D
ENCODING 1037
SWIDTH 708 0
DWIDTH 34 0
BBX 26 46 4 0
BITMAP
00300000
00F00000
01F80000
00F80000
007C0000
007C0000
003E0000
001E0000
000F0000
000C0000
00000000
00000000
F80007C0
F8000FC0
F8000FC0
F8001FC0
F8003FC0
F8003FC0
F8007FC0
F800FFC0
F800FFC0
F801F7C0
F801F7C0
F803E7C0
F807E7C0
F807C7C0
F80F87C0
F81F87C0
F81F07C0
F83F07C0
F87E07C0
F87C07C0
F8FC07C0
F8F807C0
F9F007C0
F9F007C0
FBE007C0
FBC007C0
FFC007C0
FF8007C0
FF8007C0
FF0007C0
FE0007C0
FE0007C0
FC0007C0
F80007C0
ENDCHAR
STARTCHAR 040E
ENCODING 1038
SWIDTH 604 0
DWIDTH 29 0
BBX 27 45 1 0
BITMAP
00402000
01C07800
03E07C00
03E07C00
01F0F800
01FFF800
00FFF000
007FE000
001F8000
00000000
00000000
FC0003E0
7C0007E0
7E0007C0
7E0007C0
3F000FC0
3F000F80
1F801F80
1F801F00
0F801F00
0FC03F00
07C03E00
07E03E00
03E07C00
03F07C00
01F0FC00
01F8F800
01F8F800
00F9F000
00FDF000
007DF000
007FE000
003FE000
003FC000
001FC000
001FC000
000F8000
000F8000
001F8000
001F0000
001F0000
07FE0000
07FE0000
07FC0000
07F00000
ENDCHAR
STARTCHAR 040F
ENCODING 1039
SWIDTH 708 0
DWIDTH 34 0
BBX 25 41 4 -7
BITMAP
FC000F80
FC000F80
FC000F80
FC000F80
FC000F80
FC000F80
FC000F80
FC000F80
FC000F80
FC000F80
FC000F80
FC000F80
FC000F80
FC000F80
FC000F80
FC000F80
FC000F80
FC000F80
FC000F80
FC000F80
FC000F80
FC000F80
FC000F80
FC000F80
FC000F80
FC000F80
FC000F80
FC000F80
FC000F80
FC000F80
FFFFFF80
FFFFFF80
FFFFFF80
FFFFFF80
003E0000
003E0000
003E0000
003E0000
003E0000
003E0000
003E0000
ENDCHAR
STARTCHAR 0410
ENCODING 1040
SWIDTH 666 0
DWIDTH 32 0
BBX 30 34 1 0
BITMAP
001FC000
001FE000
001FE000
003FE000
003FF000
003DF000
007DF000
007CF800
007CF800
00F8F800
00F87C00
00F87C00
01F07E00
01F07E00
01F03E00
03E03F00
03E03F00
03E01F00
07E01F80
07C01F80
07C00F80
0FFFFFC0
0FFFFFC0
0FFFFFC0
1FFFFFE0
1F0007E0
1F0003E0
3F0003F0
3E0003F0
3E0001F0
7E0001F8
7C0001F8
7C0000F8
FC0000FC
ENDCHAR
STARTCHAR 0411
ENCODING 1041
SWIDTH 645 0
DWIDTH 31 0
BBX 25 34 4 0
BITMAP
FFFFFC00
FFFFFC00
FFFFFC00
FFFFFC00
FC000000
FC000000
FC000000
FC000000
FC000000
FC000000
FC000000
FC000000
FC000000
FC000000
FFFFE000
FFFFF800
FFFFFC00
FFFFFE00
FC007E00
FC003F00
FC001F00
FC001F00
FC001F80
FC001F80
FC001F80
FC001F80
FC001F00
FC001F00
FC003F00
FC007E00
FFFFFE00
FFFFFC00
FFFFF800
FFFFC000
ENDCHAR
STARTCHAR 0412
ENCODING 1042
SWIDTH 666 0
DWIDTH 32 0
BBX 25 34 4 0
BITMAP
FFFFC000
FFFFF000
FFFFFC00
FFFFFC00
FC00FE00
FC007E00
FC003F00
FC003F00
FC003F00
FC003F00
FC003F00
FC003F00
FC003E00
FC007E00
FC00FC00
FFFFF800
FFFFC000
FFFFF800
FFFFFE00
FC007E00
FC003F00
FC001F80
FC001F80
FC001F80
FC001F80
FC001F80
FC001F80
FC001F80
FC003F00
FC007F00
FFFFFE00
FFFFFC00
FFFFF800
FFFFE000
ENDCHAR
STARTCHAR 0413
ENCODING 1043
SWIDTH 500 0
DWIDTH 24 0
BBX 19 34 4 0
BITMAP
FFFFE0
FFFFE0
FFFFE0
FFFFE0
FC0000
FC0000
FC0000
FC0000
FC0000
FC0000
FC0000
FC0000
FC0000
FC0000
FC0000
FC0000
FC0000
FC0000
FC0000
FC0000
FC0000
FC0000
FC0000
FC0000
FC0000
FC0000
FC0000
FC0000
FC0000
FC0000
FC0000
FC0000
FC0000
FC0000
ENDCHAR
STARTCHAR 0414
ENCODING 1044
SWIDTH 770 0
DWIDTH 37 0
BBX 34 41 1 -7
BITMAP
01FFFFF800
01FFFFF800
01FFFFF800
01FFFFF800
01F800F800
01F800F800
01F800F800
01F800F800
01F800F800
01F800F800
01F800F800
01F800F800
01F800F800
01F800F800
01F800F800
01F800F800
01F000F800
01F000F800
01F000F800
01F000F800
01F000F800
01F000F800
03F000F800
03F000F800
03E000F800
03E000F800
07E000F800
07E000F800
0FC000F800
0FC000F800
FFFFFFFFC0
FFFFFFFFC0
FFFFFFFFC0
FFFFFFFFC0
F8000007C0
F8000007C0
F8000007C0
F8000007C0
F8000007C0
F8000007C0
F8000007C0
ENDCHAR
STARTCHAR 0415
ENCODING 1045
SWIDTH 583 0
DWIDTH 28 0
BBX 22 34 4 0
BITMAP
FFFFFC
FFFFFC
FFFFFC
FFFFFC
FC0000
FC0000
FC0000
FC0000
FC0000
FC0000
FC0000
FC0000
FC0000
FC0000
FC0000
FFFFF0
FFFFF0
FFFFF0
FFFFF0
FC0000
FC0000
FC0000
FC0000
FC0000
FC0000
FC0000
FC0000
FC0000
FC0000
FC0000
FFFFFC
FFFFFC
FFFFFC
FFFFFC
ENDCHAR
STARTCHAR 0416
ENCODING 1046
SWIDTH 1000 0
DWIDTH 48 0
BBX 44 34 2 0
BITMAP
7C001F8003E0
7E001F800FE0
7F001F801FE0
7F801F801FE0
0F801F803F00
0FC01F803E00
07C01F803E00
07C01F807C00
03E01F807C00
03E01F80F800
01F01F80F800
01F01F81F800
01F81F81F000
00F81F83F000
00FC1F83E000
007FFFFFC000
003FFFFF8000
003FFFFFC000
007FFFFFE000
00FC1F83F000
01F81F81F000
01F81F81F800
01F01F81F800
03F01F80F800
03E01F80FC00
07E01F807C00
07C01F807E00
0FC01F803E00
0F801F803F00
1F801F801F00
FF001F801FF0
FF001F800FF0
FE001F8007F0
FC001F8003F0
ENDCHAR
STARTCHAR 0417
ENCODING 1047
SWIDTH 604 0
DWIDTH 29 0
BBX 24 35 2 -1
BITMAP
00FF00
07FFE0
1FFFF8
3FFFFC
7F81FC
7E007E
3C007E
18003E
00003F
00003F
00003E
00003E
00007E
0000FC
0001FC
01FFF0
01FF80
01FFE0
01FFF8
0001FC
00007E
00003F
00003F
00003F
00003F
00003F
10003F
78003F
FC003F
FE007E
7F81FC
3FFFFC
1FFFF0
07FFE0
01FF00
ENDCHAR
STARTCHAR 0418
ENCODING 1048
SWIDTH 708 0
DWIDTH 34 0
BBX 26 34 4 0
BITMAP
F80007C0
F8000FC0
F8000FC0
F8001FC0
F8003FC0
F8003FC0
F8007FC0
F800FFC0
F800FFC0
F801F7C0
F801F7C0
F803E7C0
F807E7C0
F807C7C0
F80F87C0
F81F87C0
F81F07C0
F83F07C0
F87E07C0
F87C07C0
F8FC07C0
F8F807C0
F9F007C0
F9F007C0
FBE007C0
FBC007C0
FFC007C0
FF8007C0
FF8007C0
FF0007C0
FE0007C0
FE0007C0
FC0007C0
F80007C0
ENDCHAR
STARTCHAR 0419
ENCODING 1049
SWIDTH 708 0
DWIDTH 34 0
BBX 26 45 4 0
BITMAP
00804000
03C07000
07C0F800
07C0F800
03E1F000
03FFF000
01FFE000
00FFC000
003F0000
00000000
00000000
F80007C0
F8000FC0
F8000FC0
F8001FC0
F8003FC0
F8003FC0
F8007FC0
F800FFC0
F800FFC0
F801F7C0
F801F7C0
F803E7C0
F807E7C0
F807C7C0
F80F87C0
F81F87C0
F81F07C0
F83F07C0
F87E07C0
F87C07C0
F8FC07C0
F8F807C0
F9F007C0
F9F007C0
FBE007C0
FBC007C0
FFC007C0
FF8007C0
FF8007C0
FF0007C0
FE0007C0
FE0007C0
FC0007C0
F80007C0
ENDCHAR
STARTCHAR 041A
ENCODING 1050
SWIDTH 666 0
DWIDTH 32 0
BBX 26 34 4 0
BITMAP
FC000F80
FC001F80
FC003F80
FC007F80
FC007C00
FC00F800
FC00F800
FC01F000
FC01F000
FC03E000
FC03E000
FC07C000
FC07C000
FC0F8000
FC0F8000
FFFF0000
FFFE0000
FFFE0000
FFFF8000
FC0F8000
FC0FC000
FC07E000
FC07E000
FC03F000
FC03F000
FC01F800
FC00F800
FC00FC00
FC007C00
FC007E00
FC003FC0
FC003FC0
FC001FC0
FC000FC0
ENDCHAR
STARTCHAR 041B
ENCODING 1051
SWIDTH 708 0
DWIDTH 34 0
BBX 29 34 1 0
BITMAP
01FFFFF8
01FFFFF8
01FFFFF8
01FFFFF8
01F001F8
01F001F8
01F001F8
01F001F8
01F001F8
01F001F8
01F001F8
01F001F8
01F001F8
01F001F8
01F001F8
01F001F8
01F001F8
01F001F8
01F001F8
01F001F8
01F001F8
01F001F8
03F001F8
03E001F8
03E001F8
03E001F8
07E001F8
07C001F8
07C001F8
0F8001F8
FF8001F8
FF0001F8
FE0001F8
F80001F8
ENDCHAR
STARTCHAR 041C
ENCODING 1052
SWIDTH 812 0
DWIDTH 39 0
BBX 31 34 4 0
BITMAP
FE00007E
FE0000FE
FF0001FE
FF0001FE
FF8003FE
FF8003FE
FFC007FE
FFC007FE
FBE00FBE
FBE00FBE
F9F01F3E
F9F81F3E
F8F83E3E
F8FC3E3E
F87C7C3E
F87E7C3E
F83EF83E
F83FF83E
F81FF03E
F81FF03E
F80FE03E
F807E03E
F807C03E
F803803E
F803803E
F801003E
F801003E
F800003E
F800003E
F800003E
F800003E
F800003E
F800003E
F800003E
ENDCHAR
STARTCHAR 041D
ENCODING 1053
SWIDTH 708 0
DWIDTH 34 0
BBX 26 34 4 0
BITMAP
FC0007C0
FC0007C0
FC0007C0
FC0007C0
FC0007C0
FC0007C0
FC0007C0
FC0007C0
FC0007C0
FC0007C0
FC0007C0
FC0007C0
FC0007C0
FC0007C0
FC0007C0
FFFFFFC0
FFFFFFC0
FFFFFFC0
FFFFFFC0
FC0007C0
FC0007C0
FC0007C0
FC0007C0
FC0007C0
FC0007C0
FC0007C0
FC0007C0
FC0007C0
FC0007C0
FC0007C0
FC0007C0
FC0007C0
FC0007C0
FC0007C0
ENDCHAR
STARTCHAR 041E
ENCODING 1054
SWIDTH 708 0
DWIDTH 34 0
BBX 29 35 3 -1
BITMAP
003FC000
01FFF800
03FFFC00
07FFFF00
0FE07F80
1F801F80
3F000FC0
3E0007E0
7E0007E0
7C0003E0
FC0003F0
FC0003F0
FC0001F0
F80001F0
F80001F0
F80001F0
F80001F8
F80001F8
F80001F8
F80001F0
F80001F0
F80001F0
FC0001F0
FC0003F0
FC0003F0
7C0003E0
7E0007E0
3E0007E0
3F000FC0
1F801F80
0FE07F80
07FFFF00
03FFFC00
01FFF800
003FC000
ENDCHAR
STARTCHAR 041F
ENCODING 1055
SWIDTH 708 0
DWIDTH 34 0
BBX 25 34 4 0
BITMAP
FFFFFF80
FFFFFF80
FFFFFF80
FFFFFF80
FC000F80
FC000F80
FC000F80
FC000F80
FC000F80
FC000F80
FC000F80
FC000F80
FC000F80
FC000F80
FC000F80
FC000F80
FC000F80
FC000F80
FC000F80
FC000F80
FC000F80
FC000F80
FC000F80
FC000F80
FC000F80
FC000F80
FC000F80
FC000F80
FC000F80
FC000F80
FC000F80
FC000F80
FC000F80
FC000F80
ENDCHAR
STARTCHAR 0420
ENCODING 1056
SWIDTH 625 0
DWIDTH 30 0
BBX 24 34 4 0
BITMAP
FFFFC0
FFFFF0
FFFFFC
FFFFFC
FC00FE
FC003E
FC003F
FC003F
FC001F
FC001F
FC001F
FC001F
FC003F
FC003F
FC003E
FC00FE
FFFFFC
FFFFFC
FFFFF0
FFFFC0
FC0000
FC0000
FC0000
FC0000
FC0000
FC0000
FC0000
FC0000
FC0000
FC0000
FC0000
FC0000
FC0000
FC0000
ENDCHAR
STARTCHAR 0421
ENCODING 1057
SWIDTH 625 0
DWIDTH 30 0
BBX 26 35 3 -1
BITMAP
003FC000
01FFF800
07FFFC00
0FFFFE00
1FE07F00
1F803F80
3F000FC0
3E000F00
7E000400
7C000000
FC000000
FC000000
FC000000
F8000000
F8000000
F8000000
F8000000
F8000000
F8000000
F8000000
F8000000
F8000000
FC000000
FC000000
FC000000
7C000400
7E000600
7E000F80
3F000FC0
1F801F80
1FE07F00
0FFFFE00
07FFFC00
01FFF800
007FC000
ENDCHAR
STARTCHAR 0422
ENCODING 1058
SWIDTH 583 0
DWIDTH 28 0
BBX 26 34 1 0
BITMAP
FFFFFFC0
FFFFFFC0
FFFFFFC0
FFFFFFC0
003F0000
003F0000
003F0000
003F0000
003F0000
003F0000
003F0000
003F0000
003F0000
003F0000
003F0000
003F0000
003F0000
003F0000
003F0000
003F0000
003F0000
003F0000
003F0000
003F0000
003F0000
003F0000
003F0000
003F0000
003F0000
003F0000
003F0000
003F0000
003F0000
003F0000
ENDCHAR
STARTCHAR 0423
ENCODING 1059
SWIDTH 604 0
DWIDTH 29 0
BBX 27 34 1 0
BITMAP
FC0003E0
7C0007E0
7E0007C0
7E0007C0
3F000FC0
3F000F80
1F801F80
1F801F00
0F801F00
0FC03F00
07C03E00
07E03E00
03E07C00
03F07C00
01F0FC00
01F8F800
01F8F800
00F9F000
00FDF000
007DF000
007FE000
003FE000
003FC000
001FC000
001FC000
000F8000
000F8000
001F8000
001F0000
001F0000
07FE0000
07FE0000
07FC0000
07F00000
ENDCHAR
STARTCHAR 0424
ENCODING 1060
SWIDTH 875 0
DWIDTH 42 0
BBX 38 36 2 -1
BITMAP
0000FC0000
0000FC0000
0000FC0000
0000FC0000
003FFFE000
00FFFFFC00
03FFFFFF00
07FFFFFF80
1FE0FC3FC0
1F80FC07E0
3F00FC03F0
7E00FC01F0
7E00FC01F8
7C00FC01F8
FC00FC00F8
FC00FC00F8
FC00FC00FC
FC00FC00FC
FC00FC00FC
FC00FC00FC
FC00FC00F8
FC00FC00F8
7C00FC01F8
7E00FC01F8
7E00FC01F0
3F00FC03F0
1F80FC07E0
0FE0FC3FC0
0FFFFFFF80
03FFFFFF00
00FFFFFC00
003FFFE000
0000FC0000
0000FC0000
0000FC0000
0000FC0000
ENDCHAR
STARTCHAR 0425
ENCODING 1061
SWIDTH 645 0
DWIDTH 31 0
BBX 29 34 1 0
BITMAP
FE0003F0
7F0007E0
3F0007E0
1F800FC0
1FC01F80
0FC01F80
0FE03F00
07E03E00
03F07E00
03F0FC00
01F8FC00
00FDF800
00FDF000
007FF000
003FE000
003FC000
001FC000
003FC000
003FE000
007FF000
00FFF000
00F9F800
01F9F800
01F0FC00
03F07E00
07E07E00
07C03F00
0FC03F80
1F801F80
1F800FC0
3F000FC0
3F0007E0
7E0007F0
FC0003F8
ENDCHAR
STARTCHAR 0426
ENCODING 1062
SWIDTH 750 0
DWIDTH 36 0
BBX 30 41 4 -7
BITMAP
FC000F80
FC000F80
FC000F80
FC000F80
FC000F80
FC000F80
FC000F80
FC000F80
FC000F80
FC000F80
FC000F80
FC000F80
FC000F80
FC000F80
FC000F80
FC000F80
FC000F80
FC000F80
FC000F80
FC000F80
FC000F80
FC000F80
FC000F80
FC000F80
FC000F80
FC000F80
FC000F80
FC000F80
FC000F80
FC000F80
FFFFFFFC
FFFFFFFC
FFFFFFFC
FFFFFFFC
0000007C
0000007C
0000007C
0000007C
0000007C
0000007C
0000007C
ENDCHAR
STARTCHAR 0427
ENCODING 1063
SWIDTH 666 0
DWIDTH 32 0
BBX 25 34 3 0
BITMAP
F8001F80
F8001F80
F8001F80
F8001F80
F8001F80
F8001F80
F8001F80
F8001F80
F8001F80
F8001F80
F8001F80
F8001F80
F8001F80
FC001F80
FC001F80
7E001F80
7F807F80
3FFFFF80
1FFFFF80
0FFFFF80
01FF9F80
00001F80
00001F80
00001F80
00001F80
00001F80
00001F80
00001F80
00001F80
00001F80
00001F80
00001F80
00001F80
00001F80
ENDCHAR
STARTCHAR 0428
ENCODING 1064
SWIDTH 979 0
DWIDTH 47 0
BBX 39 34 4 0
BITMAP
FC007C003E
FC007C003E
FC007C003E
FC007C003E
FC007C003E
FC007C003E
FC007C003E
FC007C003E
FC007C003E
FC007C003E
FC007C003E
FC007C003E
FC007C003E
FC007C003E
FC007C003E
FC007C003E
FC007C003E
FC007C003E
FC007C003E
FC007C003E
FC007C003E
FC007C003E
FC007C003E
FC007C003E
FC007C003E
FC007C003E
FC007C003E
FC007C003E
FC007C003E
FC007C003E
FFFFFFFFFE
FFFFFFFFFE
FFFFFFFFFE
FFFFFFFFFE
ENDCHAR
STARTCHAR 0429
ENCODING 1065
SWIDTH 1041 0
DWIDTH 50 0
BBX 44 41 4 -7
BITMAP
FC007C003E00
FC007C003E00
FC007C003E00
FC007C003E00
FC007C003E00
FC007C003E00
FC007C003E00
FC007C003E00
FC007C003E00
FC007C003E00
FC007C003E00
FC007C003E00
FC007C003E00
FC007C003E00
FC007C003E00
FC007C003E00
FC007C003E00
FC007C003E00
FC007C003E00
FC007C003E00
FC007C003E00
FC007C003E00
FC007C003E00
FC007C003E00
FC007C003E00
FC007C003E00
FC007C003E00
FC007C003E00
FC007C003E00
FC007C003E00
FFFFFFFFFFF0
FFFFFFFFFFF0
FFFFFFFFFFF0
FFFFFFFFFFF0
0000000001F0
0000000001F0
0000000001F0
0000000001F0
0000000001F0
0000000001F0
0000000001F0
ENDCHAR
STARTCHAR 042A
ENCODING 1066
SWIDTH 750 0
DWIDTH 36 0
BBX 33 34 1 0
BITMAP
FFFC000000
FFFC000000
FFFC000000
FFFC000000
00FC000000
00FC000000
00FC000000
00FC000000
00FC000000
00FC000000
00FC000000
00FC000000
00FC000000
00FFFFE000
00FFFFF800
00FFFFFC00
00FFFFFE00
00FC007F00
00FC003F00
00FC001F80
00FC001F80
00FC001F80
00FC001F80
00FC001F80
00FC001F80
00FC001F80
00FC001F80
00FC001F80
00FC003F00
00FC007F00
00FFFFFE00
00FFFFFC00
00FFFFF800
00FFFFE000
ENDCHAR
STARTCHAR 042B
ENCODING 1067
SWIDTH 895 0
DWIDTH 43 0
BBX 35 34 4 0
BITMAP
FC000003E0
FC000003E0
FC000003E0
FC000003E0
FC000003E0
FC000003E0
FC000003E0
FC000003E0
FC000003E0
FC000003E0
FC000003E0
FC000003E0
FC000003E0
FFFFC003E0
FFFFF803E0
FFFFFC03E0
FFFFFE03E0
FC007E03E0
FC003F03E0
FC003F03E0
FC001F03E0
FC001F83E0
FC001F83E0
FC001F83E0
FC001F83E0
FC001F83E0
FC001F03E0
FC003F03E0
FC003F03E0
FC007E03E0
FFFFFE03E0
FFFFFC03E0
FFFFF803E0
FFFFE003E0
ENDCHAR
STARTCHAR 042C
ENCODING 1068
SWIDTH 645 0
DWIDTH 31 0
BBX 25 34 4 0
BITMAP
FC000000
FC000000
FC000000
FC000000
FC000000
FC000000
FC000000
FC000000
FC000000
FC000000
FC000000
FC000000
FC000000
FFFFE000
FFFFF800
FFFFFC00
FFFFFE00
FC007F00
FC003F00
FC001F80
FC001F80
FC001F80
FC001F80
FC001F80
FC001F80
FC001F80
FC001F80
FC001F80
FC003F00
FC007F00
FFFFFE00
FFFFFC00
FFFFF800
FFFFE000
ENDCHAR
STARTCHAR 042D
ENCODING 1069
SWIDTH 645 0
DWIDTH 31 0
BBX 26 35 2 -1
BITMAP
01FF0000
07FFE000
1FFFF800
3FFFFC00
7F81FE00
FE007F00
FC003F00
78001F80
18000F80
00000F80
00000FC0
00000FC0
000007C0
000007C0
000007C0
00FFFFC0
00FFFFC0
00FFFFC0
00FFFFC0
000007C0
000007C0
000007C0
00000FC0
00000FC0
00000FC0
10000F80
30001F80
78001F80
FC003F00
FE007E00
7F81FE00
3FFFFC00
1FFFF800
07FFE000
01FF0000
ENDCHAR
STARTCHAR 042E
ENCODING 1070
SWIDTH 979 0
DWIDTH 47 0
BBX 41 35 4 -1
BITMAP
FC0003FC0000
FC000FFF8000
FC003FFFE000
FC007FFFF000
FC00FF07F800
FC01FC01FC00
FC01F800FC00
FC03F0007E00
FC03E0003E00
FC07E0003E00
FC07E0003F00
FC07C0001F00
FC07C0001F00
FC07C0001F00
FC0FC0001F00
FFFFC0001F00
FFFFC0001F80
FFFFC0001F80
FFFFC0001F80
FC0FC0001F00
FC0FC0001F00
FC07C0001F00
FC07C0001F00
FC07C0001F00
FC07E0003F00
FC07E0003E00
FC03E0003E00
FC03F0007E00
FC01F800FC00
FC01FC01FC00
FC00FE07F800
FC007FFFF000
FC003FFFE000
FC000FFF8000
000003FC0000
ENDCHAR
STARTCHAR 042F
ENCODING 1071
SWIDTH 645 0
DWIDTH 31 0
BBX 25 34 2 0
BITMAP
01FFFF80
07FFFF80
0FFFFF80
1FFFFF80
3F800F80
3F000F80
3E000F80
7E000F80
7E000F80
7E000F80
7E000F80
7E000F80
7E000F80
3E000F80
3F000F80
1F800F80
1FFFFF80
0FFFFF80
03FFFF80
003FFF80
00FC0F80
01F80F80
01F80F80
03F00F80
03E00F80
07E00F80
07C00F80
0FC00F80
0F800F80
1F800F80
FF000F80
FF000F80
FE000F80
FC000F80
ENDCHAR
STARTCHAR 0430
ENCODING 1072
SWIDTH 541 0
DWIDTH 26 0
BBX 23 27 2 -1
BITMAP
01FC00
0FFF80
1FFFC0
3FFFE0
7E0FE0
7C03F0
3803F0
1001F0
0001F0
0001F0
0001F0
0001F0
03FFF0
1FFFF0
3FFFF0
7E01F0
FC01F0
F801F0
F801F0
F801F0
F801F0
FC03F0
FE0EFE
7FFEFE
3FFCFE
1FF83E
07E000
ENDCHAR
STARTCHAR 0431
ENCODING 1073
SWIDTH 562 0
DWIDTH 27 0
BBX 23 37 2 -1
BITMAP
0000F8
007FF8
01FFF8
03FFF8
07FFF8
0FFF00
1FC000
1F0000
3F0000
3E0000
7E0000
7C0000
7C3F00
7CFFC0
7DFFF0
FDFFF8
FF83F8
FE00FC
FE007C
FC007E
FC007E
FC003E
FC003E
FC003E
FC003E
FC003E
7C003E
7C003E
7C007E
7C007C
3E007C
3F00F8
1F83F8
0FFFF0
0FFFE0
03FFC0
00FE00
ENDCHAR
STARTCHAR 0432
ENCODING 1074
SWIDTH 562 0
DWIDTH 27 0
BBX 21 25 4 0
BITMAP
FFFF00
FFFFC0
FFFFE0
FFFFE0
F807F0
F803F0
F803F0
F803F0
F803E0
F807E0
FFFF80
FFFF00
FFFFC0
F803E0
F801F0
F801F0
F801F8
F801F8
F801F8
F801F0
F803F0
FFFFF0
FFFFE0
FFFFC0
FFFF00
ENDCHAR
STARTCHAR 0433
ENCODING 1075
SWIDTH 437 0
DWIDTH 21 0
BBX 16 25 4 0
BITMAP
FFFF
FFFF
FFFF
FFFF
F800
F800
F800
F800
F800
F800
F800
F800
F800
F800
F800
F800
F800
F800
F800
F800
F800
F800
F800
F800
F800
ENDCHAR
STARTCHAR 0434
ENCODING 1076
SWIDTH 625 0
DWIDTH 30 0
BBX 29 32 0 -7
BITMAP
03FFFF80
03FFFF80
03FFFF80
03FFFF80
03E01F80
03E01F80
03E01F80
03E01F80
03E01F80
03E01F80
03E01F80
03E01F80
03E01F80
03E01F80
03E01F80
03E01F80
07E01F80
07C01F80
07C01F80
0FC01F80
0F801F80
FFFFFFF8
FFFFFFF8
FFFFFFF8
FFFFFFF8
F80000F8
F80000F8
F80000F8
F80000F8
F80000F8
F80000F8
F80000F8
ENDCHAR
STARTCHAR 0435
ENCODING 1077
SWIDTH 562 0
DWIDTH 27 0
BBX 23 27 2 -1
BITMAP
00FE00
03FF80
0FFFE0
1FFFF0
3F83F8
3F01F8
7E00FC
7C007C
7C007C
FC007C
F8007E
FFFFFE
FFFFFE
FFFFFE
F80000
F80000
FC0000
FC0000
7C0020
7C0030
7E0078
3F00FC
3F81F8
1FFFF0
0FFFE0
03FFC0
00FE00
ENDCHAR
STARTCHAR 0436
ENCODING 1078
SWIDTH 812 0
DWIDTH 39 0
BBX 35 25 2 0
BITMAP
F801F003E0
FE01F00FE0
FE01F00FE0
FF01F01FE0
1F01F01F00
0F81F03E00
0F81F03E00
07C1F07C00
07C1F07C00
03E1F0F800
03FFFFF800
00FFFFE000
01FFFFF000
03FFFFF800
07E1F0F800
07C1F07C00
07C1F07C00
0F81F07E00
0F81F03E00
1F81F03F00
1F01F01F00
FF01F01FE0
FE01F00FE0
FC01F00FE0
F801F003E0
ENDCHAR
STARTCHAR 0437
ENCODING 1079
SWIDTH 520 0
DWIDTH 25 0
BBX 21 27 1 -1
BITMAP
01FE00
0FFFC0
1FFFE0
3FFFF0
7F07F0
7C01F0
3801F8
1001F8
0001F0
0001F0
0003E0
03FFC0
03FF00
03FFE0
0003F0
0001F8
0000F8
0000F8
0000F8
1000F8
3801F8
7C01F8
FF07F0
3FFFF0
1FFFE0
0FFF80
03FE00
ENDCHAR
STARTCHAR 0438
ENCODING 1080
SWIDTH 604 0
DWIDTH 29 0
BBX 21 25 4 0
BITMAP
F800F8
F801F8
F801F8
F803F8
F807F8
F80FF8
F80FF8
F81FF8
F83EF8
F83EF8
F87CF8
F8FCF8
F8F8F8
F9F0F8
F9F0F8
FBE0F8
FFC0F8
F7C0F8
FF80F8
FF00F8
FF00F8
FE00F8
FC00F8
FC00F8
F800F8
ENDCHAR
STARTCHAR 0439
ENCODING 1081
SWIDTH 604 0
DWIDTH 29 0
BBX 21 37 4 0
BITMAP
060300
1E03C0
3E07E0
1F07C0
1F07C0
0FFF80
07FF00
03FE00
01F800
000000
000000
000000
F800F8
F801F8
F801F8
F803F8
F807F8
F80FF8
F80FF8
F81FF8
F83EF8
F83EF8
F87CF8
F8FCF8
F8F8F8
F9F0F8
F9F0F8
FBE0F8
FFC0F8
F7C0F8
FF80F8
FF00F8
FF00F8
FE00F8
FC00F8
FC00F8
F800F8
ENDCHAR
STARTCHAR 043A
ENCODING 1082
SWIDTH 562 0
DWIDTH 27 0
BBX 21 25 4 0
BITMAP
F800F8
F801F8
F803F8
F807F8
F807C0
F80F80
F81F80
F81F00
F83E00
F83E00
FFFC00
FFF800
FFF800
FFFE00
F83E00
F83F00
F81F00
F81F80
F80F80
F80FC0
F807C0
F807F8
F803F8
F801F8
F800F8
ENDCHAR
STARTCHAR 043B
ENCODING 1083
SWIDTH 583 0
DWIDTH 28 0
BBX 23 25 1 0
BITMAP
07FFFE
07FFFE
07FFFE
07FFFE
07C03E
07C03E
07C03E
07C03E
07C03E
07C03E
07C03E
07C03E
07C03E
07C03E
07C03E
07C03E
0FC03E
0F803E
0F803E
0F803E
1F003E
FF003E
FE003E
FC003E
F8003E
ENDCHAR
STARTCHAR 043C
ENCODING 1084
SWIDTH 708 0
DWIDTH 34 0
BBX 26 25 4 0
BITMAP
FC000FC0
FE001FC0
FF001FC0
FF003FC0
FF803FC0
FF807FC0
FFC0FFC0
FBE0F7C0
FBE1F7C0
F9F1E7C0
F9F3E7C0
F8FFC7C0
F87FC7C0
F87F87C0
F83F07C0
F83F07C0
F81E07C0
F80E07C0
F80C07C0
F80807C0
F80007C0
F80007C0
F80007C0
F80007C0
F80007C0
ENDCHAR
STARTCHAR 043D
ENCODING 1085
SWIDTH 604 0
DWIDTH 29 0
BBX 21 25 4 0
BITMAP
F800F8
F800F8
F800F8
F800F8
F800F8
F800F8
F800F8
F800F8
F800F8
F800F8
FFFFF8
FFFFF8
FFFFF8
FFFFF8
F800F8
F800F8
F800F8
F800F8
F800F8
F800F8
F800F8
F800F8
F800F8
F800F8
F800F8
ENDCHAR
STARTCHAR 043E
ENCODING 1086
SWIDTH 562 0
DWIDTH 27 0
BBX 23 27 2 -1
BITMAP
00FE00
03FF80
0FFFE0
1FFFF0
1F83F8
3F00F8
7E00FC
7C007C
7C007C
FC007E
FC007E
FC007E
FC007E
FC007E
FC007E
FC007E
FC007E
FC007E
7C007C
7C007C
7E00FC
3F00F8
1F83F8
1FFFF0
0FFFE0
03FF80
00FE00
ENDCHAR
STARTCHAR 043F
ENCODING 1087
SWIDTH 583 0
DWIDTH 28 0
BBX 20 25 4 0
BITMAP
FFFFF0
FFFFF0
FFFFF0
FFFFF0
F801F0
F801F0
F801F0
F801F0
F801F0
F801F0
F801F0
F801F0
F801F0
F801F0
F801F0
F801F0
F801F0
F801F0
F801F0
F801F0
F801F0
F801F0
F801F0
F801F0
F801F0
ENDCHAR
STARTCHAR 0440
ENCODING 1088
SWIDTH 583 0
DWIDTH 28 0
BBX 22 36 4 -10
BITMAP
007F00
F9FF80
FBFFE0
FBFFF0
FF07F0
FC01F8
FC01F8
F800F8
F800FC
F8007C
F8007C
F8007C
F8007C
F8007C
F8007C
F8007C
F8007C
F8007C
F800FC
F800F8
FC01F8
FC01F8
FF07F0
FBFFF0
FBFFE0
F9FF80
F87F00
F80000
F80000
F80000
F80000
F80000
F80000
F80000
F80000
F80000
ENDCHAR
STARTCHAR 0441
ENCODING 1089
SWIDTH 500 0
DWIDTH 24 0
BBX 21 27 2 -1
BITMAP
00FE00
03FF80
0FFFE0
1FFFF0
3F83F0
3E01F8
7E00F0
7C0080
7C0000
FC0000
FC0000
FC0000
FC0000
FC0000
FC0000
FC0000
FC0000
FC0000
7C0000
7C0040
7E00F0
3E01F8
3F83F0
1FFFF0
0FFFE0
07FF80
00FE00
ENDCHAR
STARTCHAR 0442
ENCODING 1090
SWIDTH 479 0
DWIDTH 23 0
BBX 21 25 1 0
BITMAP
FFFFF8
FFFFF8
FFFFF8
FFFFF8
00F800
00F800
00F800
00F800
00F800
00F800
00F800
00F800
00F800
00F800
00F800
00F800
00F800
00F800
00F800
00F800
00F800
00F800
00F800
00F800
00F800
ENDCHAR
STARTCHAR 0443
ENCODING 1091
SWIDTH 520 0
DWIDTH 25 0
BBX 23 35 1 -10
BITMAP
F8003E
F8003E
FC007C
7C007C
7C007C
7E00F8
3E00F8
3E00F8
3F01F0
1F01F0
1F01E0
1F83E0
0F83E0
0F83C0
0FC7C0
07C7C0
07C780
03CF80
03EF80
03EF00
01EF00
01FF00
01FE00
00FE00
00FE00
00FC00
007C00
00FC00
00F800
00F800
01F800
1FF000
1FF000
1FE000
1F8000
ENDCHAR
STARTCHAR 0444
ENCODING 1092
SWIDTH 770 0
DWIDTH 37 0
BBX 33 44 2 -10
BITMAP
0003E00000
0003E00000
0003E00000
0003E00000
0003E00000
0003E00000
0003E00000
0003E00000
07E3E3F000
0FF3E7F800
1FFBEFFC00
3FFFFFFE00
3F07F87F00
7E03F03F00
7C03E01F00
7C03E01F00
FC03E01F80
FC03E01F80
FC03E01F80
FC03E01F80
FC03E01F80
FC03E01F80
FC03E01F80
FC03E01F80
FC03E01F80
FC03E01F80
7C03E01F80
7C03E01F00
7C03E01F00
7E03F03F00
3F07F87F00
3FFFFFFE00
1FFBEFFC00
0FF3E7F800
07E3E3F000
0003E00000
0003E00000
0003E00000
0003E00000
0003E00000
0003E00000
0003E00000
0003E00000
0003E00000
ENDCHAR
STARTCHAR 0445
ENCODING 1093
SWIDTH 520 0
DWIDTH 25 0
BBX 23 25 1 0
BITMAP
FE007E
7E007C
3F00FC
1F81F8
1F81F0
0FC3F0
07C7E0
07E7C0
03FF80
01FF80
01FF00
00FE00
007E00
00FF00
01FF00
01FF80
03EFC0
07C7C0
0FC7E0
0F83F0
1F81F0
3F01F8
3E00FC
7E00FC
FC007E
ENDCHAR
STARTCHAR 0446
ENCODING 1094
SWIDTH 604 0
DWIDTH 29 0
BBX 24 32 4 -7
BITMAP
F801F0
F801F0
F801F0
F801F0
F801F0
F801F0
F801F0
F801F0
F801F0
F801F0
F801F0
F801F0
F801F0
F801F0
F801F0
F801F0
F801F0
F801F0
F801F0
F801F0
F801F0
FFFFFF
FFFFFF
FFFFFF
FFFFFF
00000F
00000F
00000F
00000F
00000F
00000F
00000F
ENDCHAR
STARTCHAR 0447
ENCODING 1095
SWIDTH 562 0
DWIDTH 27 0
BBX 21 25 2 0
BITMAP
FC00F8
FC00F8
FC00F8
FC00F8
FC00F8
FC00F8
FC00F8
FC00F8
FC00F8
FC00F8
FC00F8
7C01F8
7F03F8
7FFFF8
3FFEF8
1FFCF8
07F0F8
0000F8
0000F8
0000F8
0000F8
0000F8
0000F8
0000F8
0000F8
ENDCHAR
STARTCHAR 0448
ENCODING 1096
SWIDTH 812 0
DWIDTH 39 0
BBX 31 25 4 0
BITMAP
F807C03E
F807C03E
F807C03E
F807C03E
F807C03E
F807C03E
F807C03E
F807C03E
F807C03E
F807C03E
F807C03E
F807C03E
F807C03E
F807C03E
F807C03E
F807C03E
F807C03E
F807C03E
F807C03E
F807C03E
F807C03E
FFFFFFFE
FFFFFFFE
FFFFFFFE
FFFFFFFE
ENDCHAR
STARTCHAR 0449
ENCODING 1097
SWIDTH 854 0
DWIDTH 41 0
BBX 36 32 4 -7
BITMAP
F807C03E00
F807C03E00
F807C03E00
F807C03E00
F807C03E00
F807C03E00
F807C03E00
F807C03E00
F807C03E00
F807C03E00
F807C03E00
F807C03E00
F807C03E00
F807C03E00
F807C03E00
F807C03E00
F807C03E00
F807C03E00
F807C03E00
F807C03E00
F807C03E00
FFFFFFFFF0
FFFFFFFFF0
FFFFFFFFF0
FFFFFFFFF0
00000001F0
00000001F0
00000001F0
00000001F0
00000001F0
00000001F0
00000001F0
ENDCHAR
STARTCHAR 044A
ENCODING 1098
SWIDTH 604 0
DWIDTH 29 0
BBX 27 25 1 0
BITMAP
FFF00000
FFF00000
FFF00000
FFF00000
03F00000
03F00000
03F00000
03F00000
03FFFC00
03FFFF00
03FFFF80
03FFFF80
03F00FC0
03F007C0
03F007E0
03F007E0
03F007E0
03F007E0
03F007E0
03F007C0
03F00FC0
03FFFFC0
03FFFF80
03FFFF00
03FFFC00
ENDCHAR
STARTCHAR 044B
ENCODING 1099
SWIDTH 750 0
DWIDTH 36 0
BBX 29 25 4 0
BITMAP
F80001F8
F80001F8
F80001F8
F80001F8
F80001F8
F80001F8
F80001F8
F80001F8
FFFE01F8
FFFF81F8
FFFFC1F8
FFFFC1F8
F807E1F8
F803E1F8
F803F1F8
F803F1F8
F803F1F8
F803F1F8
F803F1F8
F803E1F8
F807E1F8
FFFFE1F8
FFFFC1F8
FFFF81F8
FFFE01F8
ENDCHAR
STARTCHAR 044C
ENCODING 1100
SWIDTH 541 0
DWIDTH 26 0
BBX 20 25 4 0
BITMAP
F80000
F80000
F80000
F80000
F80000
F80000
F80000
F80000
FFFE00
FFFF80
FFFFC0
FFFFE0
F807E0
F803F0
F801F0
F801F0
F801F0
F801F0
F801F0
F803F0
F807F0
FFFFE0
FFFFC0
FFFF80
FFFE00
ENDCHAR
STARTCHAR 044D
ENCODING 1101
SWIDTH 520 0
DWIDTH 25 0
BBX 22 27 1 -1
BITMAP
01FC00
0FFF00
1FFFC0
3FFFE0
7F07F0
7C01F0
F801F8
3800F8
1000F8
0000FC
0000FC
01FFFC
01FFFC
01FFFC
0000FC
0000FC
0000FC
0000FC
0000F8
1800F8
7C01F8
FC03F0
7F07F0
3FFFE0
1FFFC0
0FFF00
03FC00
ENDCHAR
STARTCHAR 044E
ENCODING 1102
SWIDTH 791 0
DWIDTH 38 0
BBX 32 27 4 -1
BITMAP
00003F80
F801FFE0
F803FFF0
F807FFF8
F80FE0FC
F80F807E
F81F003E
F81F003E
F81F001F
F83F001F
F83F001F
FFFE001F
FFFE001F
FFFE001F
FFFE001F
F83E001F
F83E001F
F83F001F
F81F001F
F81F003E
F81F003E
F80F807E
F80FE0FC
F807FFF8
F803FFF0
F801FFE0
00003F80
ENDCHAR
STARTCHAR 044F
ENCODING 1103
SWIDTH 562 0
DWIDTH 27 0
BBX 21 25 2 0
BITMAP
03FFF8
0FFFF8
3FFFF8
3FFFF8
7E00F8
7C00F8
7C00F8
FC00F8
FC00F8
7C00F8
7C00F8
7E00F8
3FFFF8
3FFFF8
0FFFF8
01FFF8
07C0F8
0FC0F8
0F80F8
1F80F8
1F00F8
FF00F8
FE00F8
FE00F8
F800F8
ENDCHAR
STARTCHAR 0450
ENCODING 1104
SWIDTH 562 0
DWIDTH 27 0
BBX 23 39 2 -1
BITMAP
00C000
03E000
07E000
03F000
01F000
00F800
007800
007C00
003C00
001000
000000
000000
00FE00
03FF80
0FFFE0
1FFFF0
3F83F8
3F01F8
7E00FC
7C007C
7C007C
FC007C
F8007E
FFFFFE
FFFFFE
FFFFFE
F80000
F80000
FC0000
FC0000
7C0020
7C0030
7E0078
3F00FC
3F81F8
1FFFF0
0FFFE0
03FFC0
00FE00
ENDCHAR
STARTCHAR 0451
ENCODING 1105
SWIDTH 562 0
DWIDTH 27 0
BBX 23 36 2 -1
BITMAP
0783C0
0FC3E0
0FC7E0
0FC7E0
0FC3E0
0783C0
000000
000000
000000
00FE00
03FF80
0FFFE0
1FFFF0
3F83F8
3F01F8
7E00FC
7C007C
7C007C
FC007C
F8007E
FFFFFE
FFFFFE
FFFFFE
F80000
F80000
FC0000
FC0000
7C0020
7C0030
7E0078
3F00FC
3F81F8
1FFFF0
0FFFE0
03FFC0
00FE00
ENDCHAR
STARTCHAR 0452
ENCODING 1106
SWIDTH 583 0
DWIDTH 28 0
BBX 23 46 1 -10
BITMAP
1F0000
1F0000
1F0000
FFFE00
FFFE00
FFFE00
1F0000
1F0000
1F0000
1F0000
1F0FC0
1F3FF0
1F7FF8
1F7FFC
1FE0FC
1F807E
1F007E
1F003E
1F003E
1F003E
1F003E
1F003E
1F003E
1F003E
1F003E
1F003E
1F003E
1F003E
1F003E
1F003E
1F003E
1F003E
1F003E
1F003E
1F003E
1F003E
00003E
00003E
00003E
00003E
00003E
00003E
0003FE
0003FC
0003FC
0003F0
ENDCHAR
STARTCHAR 0453
ENCODING 1107
SWIDTH 437 0
DWIDTH 21 0
BBX 16 38 4 0
BITMAP
0060
0078
00FC
01F8
01F0
03E0
03E0
07C0
0780
0180
0000
0000
0000
FFFF
FFFF
FFFF
FFFF
F800
F800
F800
F800
F800
F800
F800
F800
F800
F800
F800
F800
F800
F800
F800
F800
F800
F800
F800
F800
F800
ENDCHAR
STARTCHAR 0454
ENCODING 1108
SWIDTH 520 0
DWIDTH 25 0
BBX 22 27 2 -1
BITMAP
00FF00
03FFC0
0FFFE0
1FFFF0
3F83F8
3F00FC
7E0070
7C0040
7C0000
FC0000
FC0000
FC0000
FFFE00
FFFE00
FFFE00
FC0000
FC0000
FC0000
7C0000
7C0020
7E0070
3F00FC
3F83F8
1FFFF0
0FFFE0
03FFC0
00FF00
ENDCHAR
STARTCHAR 0455
ENCODING 1109
SWIDTH 500 0
DWIDTH 24 0
BBX 20 27 2 -1
BITMAP
03FC00
0FFF00
1FFF80
3FFFE0
7E0FE0
7C03C0
7C0180
F80000
FC0000
7C0000
7E0000
7FF000
3FFF00
1FFF80
07FFC0
007FE0
0007E0
0003E0
0003F0
2003F0
7003E0
F803E0
FE07E0
7FFFC0
3FFF80
1FFF00
03FC00
ENDCHAR
STARTCHAR 0456
ENCODING 1110
SWIDTH 270 0
DWIDTH 13 0
BBX 6 36 3 0
BITMAP
78
7C
FC
FC
FC
7C
78
00
00
00
00
7C
7C
7C
7C
7C
7C
7C
7C
7C
7C
7C
7C
7C
7C
7C
7C
7C
7C
7C
7C
7C
7C
7C
7C
7C
ENDCHAR
STARTCHAR 0457
ENCODING 1111
SWIDTH 270 0
DWIDTH 13 0
BBX 15 35 -1 0
BITMAP
783C
F87E
FC7E
FC7E
F87E
783C
0000
0000
0000
0000
07C0
07C0
07C0
07C0
07C0
07C0
07C0
07C0
07C0
07C0
07C0
07C0
07C0
07C0
07C0
07C0
07C0
07C0
07C0
07C0
07C0
07C0
07C0
07C0
07C0
ENDCHAR
STARTCHAR 0458
ENCODING 1112
SWIDTH 270 0
DWIDTH 13 0
BBX 9 46 0 -10
BITMAP
0F00
0F80
1F80
1F80
1F80
0F80
0F00
0000
0000
0000
0000
0F80
0F80
0F80
0F80
0F80
0F80
0F80
0F80
0F80
0F80
0F80
0F80
0F80
0F80
0F80
0F80
0F80
0F80
0F80
0F80
0F80
0F80
0F80
0F80
0F80
0F80
0F80
0F80
0F80
0F80
0F80
FF80
FF00
FE00
FC00
ENDCHAR
STARTCHAR 0459
ENCODING 1113
SWIDTH 833 0
DWIDTH 40 0
BBX 37 25 1 0
BITMAP
07FFFE0000
07FFFE0000
07FFFE0000
07FFFE0000
07C07E0000
07C07E0000
07C07E0000
07C07E0000
07C07FFF00
07C07FFFC0
07C07FFFE0
07C07FFFF0
07C07E03F0
07C07E01F8
07C07E00F8
07C07E00F8
0FC07E00F8
0F807E00F8
0F807E00F8
0F807E01F8
1F007E03F8
FF007FFFF0
FE007FFFE0
FC007FFFC0
F8007FFF00
ENDCHAR
STARTCHAR 045A
ENCODING 1114
SWIDTH 854 0
DWIDTH 41 0
BBX 35 25 4 0
BITMAP
F801F00000
F801F00000
F801F00000
F801F00000
F801F00000
F801F00000
F801F00000
F801F00000
F801FFFC00
F801FFFF00
FFFFFFFF80
FFFFFFFFC0
FFFFF00FC0
FFFFF007E0
F801F003E0
F801F003E0
F801F003E0
F801F003E0
F801F003E0
F801F007E0
F801F00FC0
F801FFFFC0
F801FFFF80
F801FFFF00
F801FFFC00
ENDCHAR
STARTCHAR 045B
ENCODING 1115
SWIDTH 583 0
DWIDTH 28 0
BBX 23 36 1 0
BITMAP
1F0000
1F0000
1F0000
1F0000
FFFE00
FFFE00
FFFE00
1F0000
1F0000
1F0000
1F0FC0
1F3FF0
1F7FF8
1F7FFC
1FE0FC
1F807E
1F007E
1F003E
1F003E
1F003E
1F003E
1F003E
1F003E
1F003E
1F003E
1F003E
1F003E
1F003E
1F003E
1F003E
1F003E
1F003E
1F003E
1F003E
1F003E
1F003E
ENDCHAR
STARTCHAR 045C
ENCODING 1116
SWIDTH 562 0
DWIDTH 27 0
BBX 21 38 4 0
BITMAP
001800
001E00
003F00
003E00
007C00
007C00
00F800
00F000
01F000
006000
000000
000000
000000
F800F8
F801F8
F803F8
F807F8
F807C0
F80F80
F81F80
F81F00
F83E00
F83E00
FFFC00
FFF800
FFF800
FFFE00
F83E00
F83F00
F81F00
F81F80
F80F80
F80FC0
F807C0
F807F8
F803F8
F801F8
F800F8
ENDCHAR
STARTCHAR 045D
ENCODING 1117
SWIDTH 604 0
DWIDTH 29 0
BBX 21 38 4 0
BITMAP
018000
07C000
0FC000
07E000
03E000
01F000
01F000
00F800
007800
002000
000000
000000
000000
F800F8
F801F8
F801F8
F803F8
F807F8
F80FF8
F80FF8
F81FF8
F83EF8
F83EF8
F87CF8
F8FCF8
F8F8F8
F9F0F8
F9F0F8
FBE0F8
FFC0F8
F7C0F8
FF80F8
FF00F8
FF00F8
FE00F8
FC00F8
FC00F8
F800F8
ENDCHAR
STARTCHAR 045E
ENCODING 1118
SWIDTH 520 0
DWIDTH 25 0
BBX 23 47 1 -10
BITMAP
030180
0F01E0
1F01F0
0F83E0
0F83E0
07FFC0
03FF80
01FF00
00FE00
000000
000000
000000
F8003E
F8003E
FC007C
7C007C
7C007C
7E00F8
3E00F8
3E00F8
3F01F0
1F01F0
1F01E0
1F83E0
0F83E0
0F83C0
0FC7C0
07C7C0
07C780
03CF80
03EF80
03EF00
01EF00
01FF00
01FE00
00FE00
00FE00
00FC00
007C00
00FC00
00F800
00F800
01F800
1FF000
1FF000
1FE000
1F8000
ENDCHAR
STARTCHAR 045F
ENCODING 1119
SWIDTH 583 0
DWIDTH 28 0
BBX 20 32 4 -7
BITMAP
F801F0
F801F0
F801F0
F801F0
F801F0
F801F0
F801F0
F801F0
F801F0
F801F0
F801F0
F801F0
F801F0
F801F0
F801F0
F801F0
F801F0
F801F0
F801F0
F801F0
F801F0
FFFFF0
FFFFF0
FFFFF0
FFFFF0
00F000
00F000
00F000
00F000
00F000
00F000
00F000
ENDCHAR
STARTCHAR 0472
ENCODING 1138
SWIDTH 708 0
DWIDTH 34 0
BBX 28 35 3 -1
BITMAP
003FC000
01FFF800
03FFFC00
0FFFFF00
0FE07F80
1F801F80
3F000FC0
3E0007C0
7E0003E0
7C0003E0
FC0003F0
FC0001F0
F80001F0
F80001F0
F80001F0
FFFFFFF0
FFFFFFF0
FFFFFFF0
FFFFFFF0
F80001F0
F80001F0
F80001F0
F80001F0
FC0003F0
FC0003F0
7C0003E0
7E0007E0
3E0007C0
3F000FC0
1F801F80
0FE07F80
0FFFFF00
03FFFC00
01FFF800
003FC000
ENDCHAR
STARTCHAR 0473
ENCODING 1139
SWIDTH 562 0
DWIDTH 27 0
BBX 23 27 2 -1
BITMAP
00FE00
03FF80
0FFFE0
1FFFF0
1F83F8
3E00F8
7C007C
7C007C
7C007C
F8003E
F8003E
FFFFFE
FFFFFE
FFFFFE
F8003E
F8003E
F8003E
FC007E
7C007C
7C007C
7E00FC
3F01F8
1F83F8
1FFFF0
0FFFE0
03FF80
00FE00
ENDCHAR
STARTCHAR 0490
ENCODING 1168
SWIDTH 500 0
DWIDTH 24 0
BBX 19 41 4 0
BITMAP
0003E0
0003E0
0003E0
0003E0
0003E0
0003E0
0003E0
FFFFE0
FFFFE0
FFFFE0
FFFFE0
FC0000
FC0000
FC0000
FC0000
FC0000
FC0000
FC0000
FC0000
FC0000
FC0000
FC0000
FC0000
FC0000
FC0000
FC0000
FC0000
FC0000
FC0000
FC0000
FC0000
FC0000
FC0000
FC0000
FC0000
FC0000
FC0000
FC0000
FC0000
FC0000
FC0000
ENDCHAR
STARTCHAR 0491
ENCODING 1169
SWIDTH 437 0
DWIDTH 21 0
BBX 16 32 4 0
BITMAP
001F
001F
001F
001F
001F
001F
001F
FFFF
FFFF
FFFF
FFFF
F800
F800
F800
F800
F800
F800
F800
F800
F800
F800
F800
F800
F800
F800
F800
F800
F800
F800
F800
F800
F800
ENDCHAR
STARTCHAR 0492
ENCODING 1170
SWIDTH 520 0
DWIDTH 25 0
BBX 23 34 1 0
BITMAP
0FFFFE
0FFFFE
0FFFFE
0FFFFE
0FC000
0FC000
0FC000
0FC000
0FC000
0FC000
0FC000
0FC000
0FC000
0FC000
0FC000
FFFFE0
FFFFE0
FFFFE0
FFFFE0
0FC000
0FC000
0FC000
0FC000
0FC000
0FC000
0FC000
0FC000
0FC000
0FC000
0FC000
0FC000
0FC000
0FC000
0FC000
ENDCHAR
STARTCHAR 0493
ENCODING 1171
SWIDTH 458 0
DWIDTH 22 0
BBX 20 25 1 0
BITMAP
0FFFF0
0FFFF0
0FFFF0
0FFFF0
0F8000
0F8000
0F8000
0F8000
0F8000
0F8000
0F8000
FFFF00
FFFF00
FFFF00
FFFF00
0F8000
0F8000
0F8000
0F8000
0F8000
0F8000
0F8000
0F8000
0F8000
0F8000
ENDCHAR
STARTCHAR 0494
ENCODING 1172
SWIDTH 645 0
DWIDTH 31 0
BBX 24 42 4 -8
BITMAP
FFFFE0
FFFFE0
FFFFE0
FFFFE0
FC0000
FC0000
FC0000
FC0000
FC0000
FC0000
FC0000
FC0000
FC0000
FC0000
FDFF80
FFFFF0
FFFFF8
FFFFFC
FE01FE
FC007E
FC003F
FC003F
FC001F
FC001F
FC001F
FC001F
FC001F
FC001F
FC001F
FC001F
FC001F
FC001F
FC001F
FC001F
00003F
00003F
00003E
00007E
000FFC
000FF8
000FF0
000FC0
ENDCHAR
STARTCHAR 0495
ENCODING 1173
SWIDTH 562 0
DWIDTH 27 0
BBX 20 35 4 -10
BITMAP
FFFF00
FFFF00
FFFF00
FFFF00
F80000
F80000
F80000
F80000
F80000
F80000
F87F00
F9FF80
FFFFC0
FFFFE0
FE07F0
FC03F0
F801F0
F801F0
F801F0
F801F0
F801F0
F801F0
F801F0
F801F0
F801F0
0001F0
0001F0
0001F0
0001F0
0003F0
0003E0
003FE0
003FC0
003F80
003F00
ENDCHAR
STARTCHAR 0496
ENCODING 1174
SWIDTH 1000 0
DWIDTH 48 0
BBX 46 41 2 -7
BITMAP
7C001F8003E0
7E001F800FE0
7F001F801FE0
7F801F801FE0
0F801F803F00
0FC01F803E00
07C01F803E00
07C01F807C00
03E01F807C00
03E01F80F800
01F01F80F800
01F01F81F800
01F81F81F000
00F81F83F000
00FC1F83E000
007FFFFFC000
003FFFFF8000
003FFFFFC000
007FFFFFE000
00FC1F83F000
01F81F81F000
01F81F81F800
01F01F81F800
03F01F80F800
03E01F80FC00
07E01F807C00
07C01F807E00
0FC01F803E00
0F801F803F00
1F801F801F00
FF001F801FFC
FF001F800FFC
FE001F8007FC
FC001F8003FC
00000000007C
00000000007C
00000000007C
00000000007C
00000000007C
00000000007C
00000000007C
ENDCHAR
STARTCHAR 0497
ENCODING 1175
SWIDTH 812 0
DWIDTH 39 0
BBX 36 32 2 -7
BITMAP
F801F003E0
FE01F00FE0
FE01F00FE0
FF01F01FE0
1F01F01F00
0F81F03E00
0F81F03E00
07C1F07C00
07C1F07C00
03E1F0F800
03FFFFF800
00FFFFE000
01FFFFF000
03FFFFF800
07E1F0F800
07C1F07C00
07C1F07C00
0F81F07E00
0F81F03E00
1F81F03F00
1F01F01F00
FF01F01FF0
FE01F00FF0
FC01F00FF0
F801F003F0
00000000F0
00000000F0
00000000F0
00000000F0
00000000F0
00000000F0
00000000F0
ENDCHAR
STARTCHAR 0498
ENCODING 1176
SWIDTH 604 0
DWIDTH 29 0
BBX 24 41 2 -7
BITMAP
00FF00
07FFE0
1FFFF8
3FFFFC
7F81FC
7E007E
3C007E
18003E
00003F
00003F
00003E
00003E
00007E
0000FC
0001FC
01FFF0
01FF80
01FFF0
01FFF8
0001FE
00007E
00003F
00003F
00003F
00003F
20003F
30003F
78003F
FE007E
FF81FE
7FFFFC
3FFFF8
0FFFE0
01FF80
007C00
007C00
007C00
007C00
007C00
007C00
007C00
ENDCHAR
STARTCHAR 0499
ENCODING 1177
SWIDTH 520 0
DWIDTH 25 0
BBX 21 33 1 -7
BITMAP
01FE00
0FFFC0
1FFFE0
3FFFF0
7F07F0
7C01F0
3801F8
1001F8
0001F0
0001F0
0003E0
03FFC0
03FF00
03FFE0
0003F0
0001F8
0000F8
0000F8
1000F8
1001F8
7C01F8
FE07F0
7FFFF0
3FFFE0
1FFFC0
03FE00
00F800
00F800
00F800
00F800
00F800
00F800
00F800
ENDCHAR
STARTCHAR 049A
ENCODING 1178
SWIDTH 687 0
DWIDTH 33 0
BBX 28 41 4 -7
BITMAP
FC000F80
FC001F80
FC003F80
FC007F80
FC007C00
FC00F800
FC00F800
FC01F000
FC01F000
FC03E000
FC03E000
FC07C000
FC07C000
FC0F8000
FC0F8000
FFFF0000
FFFE0000
FFFE0000
FFFF8000
FC0F8000
FC0FC000
FC07E000
FC07E000
FC03F000
FC03F000
FC01F800
FC00F800
FC00FC00
FC007C00
FC007E00
FC003FF0
FC003FF0
FC001FF0
FC000FF0
000001F0
000001F0
000001F0
000001F0
000001F0
000001F0
000001F0
ENDCHAR
STARTCHAR 049B
ENCODING 1179
SWIDTH 583 0
DWIDTH 28 0
BBX 23 32 4 -7
BITMAP
F800F8
F801F8
F803F8
F807F8
F807C0
F80F80
F81F80
F81F00
F83E00
F83E00
FFFC00
FFF800
FFF800
FFFE00
F83E00
F83F00
F81F00
F81F80
F80F80
F80FC0
F807C0
F807FE
F803FE
F801FE
F800FE
00003E
00003E
00003E
00003E
00003E
00003E
00003E
ENDCHAR
STARTCHAR 049C
ENCODING 1180
SWIDTH 729 0
DWIDTH 35 0
BBX 29 34 4 0
BITMAP
FC0001F0
FC0007F0
FC0007F0
FC000FF0
FC000F00
FC001F00
FC001E00
FC003E00
FCF03E00
FCF07C00
FCF07C00
FCF0F800
FCF0F800
FCF1F000
FCF1F000
FFFFE000
FFFFC000
FFFFC000
FFFFE000
FCF1F000
FCF1F800
FCF0F800
FCF0FC00
FCF07C00
FCF07E00
FCF03E00
FC003F00
FC001F00
FC001F80
FC000F80
FC000FF8
FC0007F8
FC0003F8
FC0001F8
ENDCHAR
STARTCHAR 049D
ENCODING 1181
SWIDTH 625 0
DWIDTH 30 0
BBX 24 25 4 0
BITMAP
F8003E
F8007E
F800FE
F800FE
F9E1F0
F9E1F0
F9E3E0
F9E3E0
F9E7C0
F9E7C0
FFFF80
FFFF00
FFFF00
FFFF80
F9E7C0
F9E7E0
F9E3E0
F9E3E0
F9E3F0
F9E1F0
F801F8
F800FF
F800FF
F8007F
F8001F
ENDCHAR
STARTCHAR 04A0
ENCODING 1184
SWIDTH 770 0
DWIDTH 37 0
BBX 34 34 1 0
BITMAP
FFFC000F80
FFFC001F80
FFFC003F80
FFFC003F80
00FC007C00
00FC00F800
00FC00F800
00FC01F000
00FC01F000
00FC03E000
00FC03E000
00FC07C000
00FC07C000
00FC0F8000
00FC0F8000
00FFFF0000
00FFFE0000
00FFFF0000
00FFFF8000
00FC0F8000
00FC0FC000
00FC07E000
00FC07E000
00FC03F000
00FC03F000
00FC01F800
00FC00F800
00FC00FC00
00FC007C00
00FC007E00
00FC003FC0
00FC003FC0
00FC001FC0
00FC0007C0
ENDCHAR
STARTCHAR 04A1
ENCODING 1185
SWIDTH 645 0
DWIDTH 31 0
BBX 28 25 1 0
BITMAP
FFF001E0
FFF007E0
FFF00FE0
FFF00FE0
03F01F00
03F01F00
03F03E00
03F07E00
03F07C00
03F0F800
03FFF800
03FFF000
03FFF000
03FFF800
03F0FC00
03F07C00
03F07E00
03F03E00
03F03F00
03F01F00
03F01F80
03F00FF0
03F007F0
03F007F0
03F001F0
ENDCHAR
STARTCHAR 04A2
ENCODING 1186
SWIDTH 770 0
DWIDTH 37 0
BBX 31 41 4 -7
BITMAP
FC0007C0
FC0007C0
FC0007C0
FC0007C0
FC0007C0
FC0007C0
FC0007C0
FC0007C0
FC0007C0
FC0007C0
FC0007C0
FC0007C0
FC0007C0
FC0007C0
FC0007C0
FFFFFFC0
FFFFFFC0
FFFFFFC0
FFFFFFC0
FC0007C0
FC0007C0
FC0007C0
FC0007C0
FC0007C0
FC0007C0
FC0007C0
FC0007C0
FC0007C0
FC0007C0
FC0007C0
FC0007FE
FC0007FE
FC0007FE
FC0007FE
0000003E
0000003E
0000003E
0000003E
0000003E
0000003E
0000003E
ENDCHAR
STARTCHAR 04A3
ENCODING 1187
SWIDTH 625 0
DWIDTH 30 0
BBX 25 32 4 -7
BITMAP
F800F800
F800F800
F800F800
F800F800
F800F800
F800F800
F800F800
F800F800
F800F800
F800F800
FFFFF800
FFFFF800
FFFFF800
FFFFF800
F800F800
F800F800
F800F800
F800F800
F800F800
F800F800
F800F800
F800FF80
F800FF80
F800FF80
F800FF80
00000F80
00000F80
00000F80
00000F80
00000F80
00000F80
00000F80
ENDCHAR
ENDFONT
